%TF.GenerationSoftware,KiCad,Pcbnew,9.0.5*%
%TF.CreationDate,2025-11-19T14:47:58-06:00*%
%TF.ProjectId,ESP32Vroom,45535033-3256-4726-9f6f-6d2e6b696361,rev?*%
%TF.SameCoordinates,Original*%
%TF.FileFunction,Copper,L1,Top*%
%TF.FilePolarity,Positive*%
%FSLAX46Y46*%
G04 Gerber Fmt 4.6, Leading zero omitted, Abs format (unit mm)*
G04 Created by KiCad (PCBNEW 9.0.5) date 2025-11-19 14:47:58*
%MOMM*%
%LPD*%
G01*
G04 APERTURE LIST*
G04 Aperture macros list*
%AMRoundRect*
0 Rectangle with rounded corners*
0 $1 Rounding radius*
0 $2 $3 $4 $5 $6 $7 $8 $9 X,Y pos of 4 corners*
0 Add a 4 corners polygon primitive as box body*
4,1,4,$2,$3,$4,$5,$6,$7,$8,$9,$2,$3,0*
0 Add four circle primitives for the rounded corners*
1,1,$1+$1,$2,$3*
1,1,$1+$1,$4,$5*
1,1,$1+$1,$6,$7*
1,1,$1+$1,$8,$9*
0 Add four rect primitives between the rounded corners*
20,1,$1+$1,$2,$3,$4,$5,0*
20,1,$1+$1,$4,$5,$6,$7,0*
20,1,$1+$1,$6,$7,$8,$9,0*
20,1,$1+$1,$8,$9,$2,$3,0*%
G04 Aperture macros list end*
%TA.AperFunction,ComponentPad*%
%ADD10C,2.260600*%
%TD*%
%TA.AperFunction,ComponentPad*%
%ADD11C,1.600000*%
%TD*%
%TA.AperFunction,ComponentPad*%
%ADD12C,1.800000*%
%TD*%
%TA.AperFunction,ComponentPad*%
%ADD13C,4.400000*%
%TD*%
%TA.AperFunction,ComponentPad*%
%ADD14RoundRect,0.250001X0.949999X0.949999X-0.949999X0.949999X-0.949999X-0.949999X0.949999X-0.949999X0*%
%TD*%
%TA.AperFunction,ComponentPad*%
%ADD15C,2.400000*%
%TD*%
%TA.AperFunction,ComponentPad*%
%ADD16R,1.905000X2.000000*%
%TD*%
%TA.AperFunction,ComponentPad*%
%ADD17O,1.905000X2.000000*%
%TD*%
%TA.AperFunction,ComponentPad*%
%ADD18R,1.700000X1.700000*%
%TD*%
%TA.AperFunction,ComponentPad*%
%ADD19C,1.700000*%
%TD*%
%TA.AperFunction,ComponentPad*%
%ADD20RoundRect,0.249999X0.850001X0.850001X-0.850001X0.850001X-0.850001X-0.850001X0.850001X-0.850001X0*%
%TD*%
%TA.AperFunction,ComponentPad*%
%ADD21C,2.200000*%
%TD*%
%TA.AperFunction,ComponentPad*%
%ADD22R,1.800000X1.800000*%
%TD*%
%TA.AperFunction,ComponentPad*%
%ADD23RoundRect,0.249999X-0.850001X-0.850001X0.850001X-0.850001X0.850001X0.850001X-0.850001X0.850001X0*%
%TD*%
%TA.AperFunction,ComponentPad*%
%ADD24RoundRect,0.249999X-0.850001X0.850001X-0.850001X-0.850001X0.850001X-0.850001X0.850001X0.850001X0*%
%TD*%
%TA.AperFunction,ComponentPad*%
%ADD25C,3.500000*%
%TD*%
%TA.AperFunction,ComponentPad*%
%ADD26C,3.540000*%
%TD*%
%TA.AperFunction,ComponentPad*%
%ADD27RoundRect,0.249999X0.850001X-0.850001X0.850001X0.850001X-0.850001X0.850001X-0.850001X-0.850001X0*%
%TD*%
%TA.AperFunction,ComponentPad*%
%ADD28RoundRect,0.250001X-0.949999X-0.949999X0.949999X-0.949999X0.949999X0.949999X-0.949999X0.949999X0*%
%TD*%
%TA.AperFunction,ComponentPad*%
%ADD29R,2.000000X1.905000*%
%TD*%
%TA.AperFunction,ComponentPad*%
%ADD30O,2.000000X1.905000*%
%TD*%
%TA.AperFunction,ComponentPad*%
%ADD31C,1.400000*%
%TD*%
%TA.AperFunction,ComponentPad*%
%ADD32RoundRect,0.250001X-0.949999X0.949999X-0.949999X-0.949999X0.949999X-0.949999X0.949999X0.949999X0*%
%TD*%
%TA.AperFunction,ComponentPad*%
%ADD33RoundRect,0.250000X-0.550000X0.550000X-0.550000X-0.550000X0.550000X-0.550000X0.550000X0.550000X0*%
%TD*%
%TA.AperFunction,ComponentPad*%
%ADD34RoundRect,0.250000X0.550000X0.550000X-0.550000X0.550000X-0.550000X-0.550000X0.550000X-0.550000X0*%
%TD*%
%TA.AperFunction,ComponentPad*%
%ADD35RoundRect,0.250001X0.949999X-0.949999X0.949999X0.949999X-0.949999X0.949999X-0.949999X-0.949999X0*%
%TD*%
%TA.AperFunction,ComponentPad*%
%ADD36R,2.625000X2.625000*%
%TD*%
%TA.AperFunction,ComponentPad*%
%ADD37C,2.625000*%
%TD*%
%TA.AperFunction,ComponentPad*%
%ADD38RoundRect,0.250000X-0.950000X-0.550000X0.950000X-0.550000X0.950000X0.550000X-0.950000X0.550000X0*%
%TD*%
%TA.AperFunction,ComponentPad*%
%ADD39O,2.400000X1.600000*%
%TD*%
%TA.AperFunction,ComponentPad*%
%ADD40RoundRect,0.250000X0.550000X-0.550000X0.550000X0.550000X-0.550000X0.550000X-0.550000X-0.550000X0*%
%TD*%
%TA.AperFunction,ViaPad*%
%ADD41C,0.600000*%
%TD*%
%TA.AperFunction,ViaPad*%
%ADD42C,0.800000*%
%TD*%
%TA.AperFunction,ViaPad*%
%ADD43C,2.500000*%
%TD*%
%TA.AperFunction,Conductor*%
%ADD44C,0.400000*%
%TD*%
%TA.AperFunction,Conductor*%
%ADD45C,2.000000*%
%TD*%
%TA.AperFunction,Conductor*%
%ADD46C,0.300000*%
%TD*%
%TA.AperFunction,Conductor*%
%ADD47C,1.000000*%
%TD*%
%TA.AperFunction,Profile*%
%ADD48C,0.050000*%
%TD*%
G04 APERTURE END LIST*
D10*
%TO.P,J12,23,Pin_23*%
%TO.N,SD3*%
X50040000Y-32790000D03*
%TO.P,J12,22,Pin_22*%
%TO.N,unconnected-(J12-Pin_22-Pad22)*%
X54000000Y-32790000D03*
%TO.P,J12,1,Pin_1*%
%TO.N,+18vdc*%
X137680000Y-32790000D03*
%TO.P,J12,2,Pin_2*%
%TO.N,18vdc Ret*%
X133720001Y-32790000D03*
%TO.P,J12,3,Pin_3*%
%TO.N,Vled Ret*%
X129880000Y-32790000D03*
%TO.P,J12,4,Pin_4*%
%TO.N,To Speaker*%
X125800001Y-32790000D03*
%TO.P,J12,5,Pin_5*%
%TO.N,GND*%
X121840002Y-32790000D03*
%TO.P,J12,6,Pin_6*%
%TO.N,Vled*%
X117880002Y-32790000D03*
%TO.P,J12,7,Pin_7*%
%TO.N,5.6vac*%
X113920002Y-32790000D03*
%TO.P,J12,8,Pin_8*%
X109960003Y-32790000D03*
%TO.P,J12,9,Pin_9*%
%TO.N,5.6vac com*%
X106000003Y-32790000D03*
%TO.P,J12,10,Pin_10*%
X102040003Y-32790000D03*
%TO.P,J12,11,Pin_11*%
%TO.N,unconnected-(J12-Pin_11-Pad11)*%
X98130000Y-32790000D03*
%TO.P,J12,12,Pin_12*%
%TO.N,+5V*%
X94120004Y-32790000D03*
%TO.P,J12,13,Pin_13*%
%TO.N,SW_1*%
X90160004Y-32790000D03*
%TO.P,J12,14,Pin_14*%
%TO.N,Net-(D53-K)*%
X85680000Y-32790000D03*
%TO.P,J12,15,Pin_15*%
%TO.N,Net-(D55-K)*%
X81720000Y-32790000D03*
%TO.P,J12,16,Pin_16*%
%TO.N,SD5*%
X77760001Y-32790000D03*
%TO.P,J12,17,Pin_17*%
%TO.N,SD4*%
X73800001Y-32790000D03*
%TO.P,J12,18,Pin_18*%
%TO.N,SD7*%
X69830000Y-32790000D03*
%TO.P,J12,19,Pin_19*%
%TO.N,+22vdc*%
X65880002Y-32790000D03*
%TO.P,J12,20,Pin_20*%
%TO.N,SD6*%
X61920002Y-32790000D03*
%TO.P,J12,21,Pin_21*%
%TO.N,SD2*%
X57960002Y-32790000D03*
%TD*%
D11*
%TO.P,C16,1*%
%TO.N,+18vdc*%
X143860000Y-44800000D03*
%TO.P,C16,2*%
%TO.N,GND*%
X143860000Y-54800000D03*
%TD*%
%TO.P,R68,1*%
%TO.N,Net-(C18-Pad1)*%
X158200000Y-39610000D03*
%TO.P,R68,2*%
%TO.N,Net-(C19-Pad1)*%
X168360000Y-39610000D03*
%TD*%
D12*
%TO.P,R1,1*%
%TO.N,Net-(C15-Pad1)*%
X190760000Y-69560000D03*
%TO.P,R1,2*%
%TO.N,Net-(U4--)*%
X190760000Y-67060000D03*
%TO.P,R1,3*%
%TO.N,GND*%
X190760000Y-64560000D03*
D13*
%TO.P,R1,MP*%
%TO.N,N/C*%
X197760000Y-62660000D03*
X197760000Y-71460000D03*
%TD*%
D14*
%TO.P,D2,1,K*%
%TO.N,SD5*%
X43240000Y-117390000D03*
D15*
%TO.P,D2,2,A*%
%TO.N,GND*%
X30540000Y-117390000D03*
%TD*%
D11*
%TO.P,R70,1*%
%TO.N,Net-(M1-G)*%
X60160000Y-138020000D03*
%TO.P,R70,2*%
%TO.N,GND*%
X52540000Y-138020000D03*
%TD*%
%TO.P,C7,1*%
%TO.N,MX6*%
X159910000Y-182320000D03*
%TO.P,C7,2*%
%TO.N,GND*%
X169910000Y-182320000D03*
%TD*%
D14*
%TO.P,D1,1,K*%
%TO.N,SD6*%
X43150000Y-79050000D03*
D15*
%TO.P,D1,2,A*%
%TO.N,GND*%
X30450000Y-79050000D03*
%TD*%
D16*
%TO.P,M6,1,G*%
%TO.N,Net-(M6-G)*%
X162260000Y-189720000D03*
D17*
%TO.P,M6,2,D*%
%TO.N,MX6*%
X159720000Y-189720000D03*
%TO.P,M6,3,S*%
%TO.N,18vdc Ret*%
X157180000Y-189720000D03*
%TD*%
D11*
%TO.P,R61,1*%
%TO.N,SW_3*%
X98980000Y-103930000D03*
%TO.P,R61,2*%
%TO.N,SW4*%
X106600000Y-103930000D03*
%TD*%
%TO.P,R96,1*%
%TO.N,Net-(L3-G)*%
X212420000Y-189010000D03*
%TO.P,R96,2*%
%TO.N,GND*%
X212420000Y-196630000D03*
%TD*%
D18*
%TO.P,J4,1,Vin*%
%TO.N,+5V*%
X137590000Y-74000000D03*
D19*
%TO.P,J4,2,GND*%
%TO.N,GND*%
X140130000Y-74000000D03*
%TO.P,J4,3,GPIO13*%
%TO.N,M8*%
X142670000Y-74000000D03*
%TO.P,J4,4,GPIO12*%
%TO.N,a0*%
X145210000Y-74000000D03*
%TO.P,J4,5,GPIO14*%
%TO.N,L3*%
X147750000Y-74000000D03*
%TO.P,J4,6,GPIO27*%
%TO.N,L4*%
X150290000Y-74000000D03*
%TO.P,J4,7,GPIO26*%
%TO.N,L5*%
X152830000Y-74000000D03*
%TO.P,J4,8,GPIO25*%
%TO.N,Audio*%
X155370000Y-74000000D03*
%TO.P,J4,9,GPIO33*%
%TO.N,L6*%
X157910000Y-74000000D03*
%TO.P,J4,10,GPIO32*%
%TO.N,L7*%
X160450000Y-74000000D03*
%TO.P,J4,11,GPIO35*%
%TO.N,SW1*%
X162990000Y-74000000D03*
%TO.P,J4,12,GPIO34*%
%TO.N,SW2*%
X165530000Y-74000000D03*
%TO.P,J4,13,GPIO39*%
%TO.N,SW3*%
X168070000Y-74000000D03*
%TO.P,J4,14,GPIO36*%
%TO.N,SW4*%
X170610000Y-74000000D03*
%TO.P,J4,15,EN_/_RESET*%
%TO.N,Net-(J4-EN_{slash}_RESET)*%
X173150000Y-74000000D03*
%TD*%
D20*
%TO.P,D37,1,K*%
%TO.N,Net-(D37-K)*%
X252910000Y-161050000D03*
D21*
%TO.P,D37,2,A*%
%TO.N,MX8*%
X242750000Y-161050000D03*
%TD*%
D11*
%TO.P,R14,1*%
%TO.N,Net-(LED19-K)*%
X41590000Y-193350000D03*
%TO.P,R14,2*%
%TO.N,LD3*%
X49210000Y-193350000D03*
%TD*%
D14*
%TO.P,D3,1,K*%
%TO.N,SD4*%
X43130000Y-99020000D03*
D15*
%TO.P,D3,2,A*%
%TO.N,GND*%
X30430000Y-99020000D03*
%TD*%
D11*
%TO.P,R13,1*%
%TO.N,Net-(LED18-K)*%
X228330000Y-60980000D03*
%TO.P,R13,2*%
%TO.N,LD7*%
X220710000Y-60980000D03*
%TD*%
D14*
%TO.P,D9,1,K*%
%TO.N,MX4*%
X134010000Y-195390000D03*
D15*
%TO.P,D9,2,A*%
%TO.N,GND*%
X121310000Y-195390000D03*
%TD*%
D11*
%TO.P,R80,1*%
%TO.N,Net-(M6-G)*%
X162210000Y-185830000D03*
%TO.P,R80,2*%
%TO.N,GND*%
X169830000Y-185830000D03*
%TD*%
D18*
%TO.P,J10,16,VDD_3V3*%
%TO.N,+3V3*%
X137810000Y-96960000D03*
D19*
%TO.P,J10,17,GND*%
%TO.N,GND*%
X140250000Y-96960000D03*
%TO.P,J10,18,GPIO15*%
%TO.N,M1*%
X142790000Y-96960000D03*
%TO.P,J10,19,GPIO2*%
%TO.N,a2*%
X145330000Y-96960000D03*
%TO.P,J10,20,GPIO4*%
%TO.N,a1*%
X147870000Y-96960000D03*
%TO.P,J10,21,GPIO16*%
%TO.N,M2*%
X150410000Y-96960000D03*
%TO.P,J10,22,GPIO17*%
%TO.N,M3*%
X152950000Y-96960000D03*
%TO.P,J10,23,GPIO5*%
%TO.N,M4*%
X155490000Y-96960000D03*
%TO.P,J10,24,GPIO18*%
%TO.N,M5*%
X158030000Y-96960000D03*
%TO.P,J10,25,GPIO19*%
%TO.N,M6*%
X160570000Y-96960000D03*
%TO.P,J10,26,I2C_SDA*%
%TO.N,I2C SDA*%
X163110000Y-96960000D03*
%TO.P,J10,27,GPIO3*%
%TO.N,Net-(J10-GPIO3)*%
X165650000Y-96960000D03*
%TO.P,J10,28,GPIO1*%
%TO.N,Net-(J10-GPIO1)*%
X168190000Y-96960000D03*
%TO.P,J10,29,I2C-SCL*%
%TO.N,I2C SCL*%
X170730000Y-96960000D03*
%TO.P,J10,30,GPIO23*%
%TO.N,M7*%
X173270000Y-96960000D03*
%TD*%
D22*
%TO.P,LED14,1,K*%
%TO.N,Net-(LED14-K)*%
X381085000Y-50390000D03*
D12*
%TO.P,LED14,2,A*%
%TO.N,Net-(D39-K)*%
X383625000Y-50390000D03*
%TD*%
D23*
%TO.P,D44,1,K*%
%TO.N,Net-(D44-K)*%
X52250000Y-210020000D03*
D21*
%TO.P,D44,2,A*%
%TO.N,MX1*%
X62410000Y-210020000D03*
%TD*%
D20*
%TO.P,D35,1,K*%
%TO.N,Net-(D35-K)*%
X328380000Y-161530000D03*
D21*
%TO.P,D35,2,A*%
%TO.N,MX8*%
X318220000Y-161530000D03*
%TD*%
D11*
%TO.P,C3,1*%
%TO.N,MX2*%
X74040000Y-158720000D03*
%TO.P,C3,2*%
%TO.N,GND*%
X64040000Y-158720000D03*
%TD*%
D18*
%TO.P,U2,1,Vcc*%
%TO.N,+5V*%
X294222500Y-69110000D03*
D19*
%TO.P,U2,2,Gnd*%
%TO.N,GND*%
X291682500Y-69110000D03*
%TO.P,U2,3,SDA_IN*%
%TO.N,I2C SCL*%
X289142500Y-69110000D03*
%TO.P,U2,4,SCL_IN*%
%TO.N,I2C SDA*%
X286602500Y-69110000D03*
%TO.P,U2,5,Reset*%
%TO.N,Net-(U2-Reset)*%
X284062500Y-69110000D03*
%TO.P,U2,6,A0*%
%TO.N,GND*%
X281522500Y-69110000D03*
%TO.P,U2,7,A1*%
X278982500Y-69110000D03*
%TO.P,U2,8,A2*%
X276442500Y-69110000D03*
%TO.P,U2,9,SDA0*%
%TO.N,SDA_0*%
X273902500Y-69110000D03*
%TO.P,U2,10,SCL0*%
%TO.N,SCL_0*%
X271362500Y-69110000D03*
%TO.P,U2,11,SDA1*%
%TO.N,SDA_1*%
X268822500Y-69110000D03*
%TO.P,U2,12,SCL1*%
%TO.N,SCL_1*%
X266282500Y-69110000D03*
D18*
%TO.P,U2,13,SDA2*%
%TO.N,SDA_2*%
X294322500Y-84470000D03*
D19*
%TO.P,U2,14,SCL2*%
%TO.N,SCL_2*%
X291782500Y-84470000D03*
%TO.P,U2,15,SDA3*%
%TO.N,SDA_3*%
X289242500Y-84470000D03*
%TO.P,U2,16,SCL3*%
%TO.N,SCL_3*%
X286702500Y-84470000D03*
%TO.P,U2,17,SDA4*%
%TO.N,SDA_4*%
X284162500Y-84470000D03*
%TO.P,U2,18,SCL4*%
%TO.N,SCL_4*%
X281622500Y-84470000D03*
%TO.P,U2,19,SDA5*%
%TO.N,SDA_5*%
X279082500Y-84470000D03*
%TO.P,U2,20,SCL5*%
%TO.N,SCL_5*%
X276542500Y-84470000D03*
%TO.P,U2,21,SDA6*%
%TO.N,unconnected-(U2-SDA6-Pad21)*%
X274002500Y-84470000D03*
%TO.P,U2,22,SCL6*%
%TO.N,unconnected-(U2-SCL6-Pad22)*%
X271462500Y-84470000D03*
%TO.P,U2,23,SDA7*%
%TO.N,unconnected-(U2-SDA7-Pad23)*%
X268922500Y-84470000D03*
%TO.P,U2,24,SCL7*%
%TO.N,unconnected-(U2-SCL7-Pad24)*%
X266382500Y-84470000D03*
%TD*%
D11*
%TO.P,C11,1*%
%TO.N,SW_0*%
X94630000Y-127830000D03*
%TO.P,C11,2*%
%TO.N,GND*%
X94630000Y-132830000D03*
%TD*%
D24*
%TO.P,D51,1,K*%
%TO.N,+18vdc*%
X144100000Y-204420000D03*
D21*
%TO.P,D51,2,A*%
%TO.N,MX7*%
X144100000Y-214580000D03*
%TD*%
D22*
%TO.P,LED15,1,K*%
%TO.N,Net-(LED15-K)*%
X344936300Y-50150000D03*
D12*
%TO.P,LED15,2,A*%
%TO.N,Net-(D40-K)*%
X347476300Y-50150000D03*
%TD*%
D11*
%TO.P,C19,1*%
%TO.N,Net-(C19-Pad1)*%
X176890000Y-41980000D03*
%TO.P,C19,2*%
%TO.N,GND*%
X176890000Y-36980000D03*
%TD*%
%TO.P,C6,1*%
%TO.N,MX5*%
X134420000Y-165980000D03*
%TO.P,C6,2*%
%TO.N,GND*%
X124420000Y-165980000D03*
%TD*%
%TO.P,R83,1*%
%TO.N,Net-(M8-G)*%
X148380000Y-150340000D03*
%TO.P,R83,2*%
%TO.N,M8*%
X148380000Y-142720000D03*
%TD*%
D20*
%TO.P,D41,1,K*%
%TO.N,Net-(D41-K)*%
X309130000Y-56430000D03*
D21*
%TO.P,D41,2,A*%
%TO.N,MX7*%
X298970000Y-56430000D03*
%TD*%
D18*
%TO.P,U9,1,GND*%
%TO.N,GND*%
X326268000Y-96360000D03*
D19*
%TO.P,U9,2,VCC*%
%TO.N,+5V*%
X328808000Y-96360000D03*
%TO.P,U9,3,SLC*%
%TO.N,SCL_1*%
X331348000Y-96360000D03*
%TO.P,U9,4,SDA*%
%TO.N,SDA_1*%
X333888000Y-96360000D03*
D25*
%TO.P,U9,5*%
%TO.N,N/C*%
X341678000Y-96430000D03*
%TO.P,U9,6*%
X318628000Y-96430000D03*
%TO.P,U9,7*%
X318628000Y-119480000D03*
D26*
%TO.P,U9,8*%
X341678000Y-119480000D03*
%TD*%
D27*
%TO.P,D52,1,K*%
%TO.N,+18vdc*%
X236210000Y-168030000D03*
D21*
%TO.P,D52,2,A*%
%TO.N,MX8*%
X236210000Y-157870000D03*
%TD*%
D11*
%TO.P,R84,1*%
%TO.N,Net-(M8-G)*%
X152870000Y-150110000D03*
%TO.P,R84,2*%
%TO.N,GND*%
X152870000Y-142490000D03*
%TD*%
%TO.P,C9,1*%
%TO.N,MX8*%
X160570000Y-144480000D03*
%TO.P,C9,2*%
%TO.N,GND*%
X160570000Y-134480000D03*
%TD*%
%TO.P,R85,1*%
%TO.N,Net-(S2-G)*%
X47840000Y-72230000D03*
%TO.P,R85,2*%
%TO.N,S2*%
X55460000Y-72230000D03*
%TD*%
%TO.P,R64,1*%
%TO.N,GND*%
X83300000Y-111520000D03*
%TO.P,R64,2*%
%TO.N,SW_2*%
X90920000Y-111520000D03*
%TD*%
D18*
%TO.P,U7,1,GND*%
%TO.N,GND*%
X270200000Y-96340000D03*
D19*
%TO.P,U7,2,VCC*%
%TO.N,+5V*%
X272740000Y-96340000D03*
%TO.P,U7,3,SLC*%
%TO.N,SCL_3*%
X275280000Y-96340000D03*
%TO.P,U7,4,SDA*%
%TO.N,SDA_3*%
X277820000Y-96340000D03*
D25*
%TO.P,U7,5*%
%TO.N,N/C*%
X285610000Y-96410000D03*
%TO.P,U7,6*%
X262560000Y-96410000D03*
%TO.P,U7,7*%
X262560000Y-119460000D03*
D26*
%TO.P,U7,8*%
X285610000Y-119460000D03*
%TD*%
D28*
%TO.P,D8,1,K*%
%TO.N,MX3*%
X105690000Y-195390000D03*
D15*
%TO.P,D8,2,A*%
%TO.N,GND*%
X118390000Y-195390000D03*
%TD*%
D29*
%TO.P,L4,1,G*%
%TO.N,Net-(L4-G)*%
X365730000Y-178520000D03*
D30*
%TO.P,L4,2,D*%
%TO.N,LD4*%
X365730000Y-181060000D03*
%TO.P,L4,3,S*%
%TO.N,GND*%
X365730000Y-183600000D03*
%TD*%
D24*
%TO.P,D60,1,K*%
%TO.N,Vled*%
X148340000Y-204420000D03*
D21*
%TO.P,D60,2,A*%
%TO.N,LD3*%
X148340000Y-214580000D03*
%TD*%
D11*
%TO.P,C13,1*%
%TO.N,SW_2*%
X94790000Y-111250000D03*
%TO.P,C13,2*%
%TO.N,GND*%
X94790000Y-116250000D03*
%TD*%
D16*
%TO.P,S2,1,G*%
%TO.N,Net-(S2-G)*%
X47290000Y-65507500D03*
D17*
%TO.P,S2,2,D*%
%TO.N,SD2*%
X44750000Y-65507500D03*
%TO.P,S2,3,S*%
%TO.N,GND*%
X42210000Y-65507500D03*
%TD*%
D16*
%TO.P,M2,1,G*%
%TO.N,Net-(M2-G)*%
X76630000Y-147620000D03*
D17*
%TO.P,M2,2,D*%
%TO.N,MX2*%
X74090000Y-147620000D03*
%TO.P,M2,3,S*%
%TO.N,18vdc Ret*%
X71550000Y-147620000D03*
%TD*%
D18*
%TO.P,U8,1,GND*%
%TO.N,GND*%
X298240000Y-96360000D03*
D19*
%TO.P,U8,2,VCC*%
%TO.N,+5V*%
X300780000Y-96360000D03*
%TO.P,U8,3,SLC*%
%TO.N,SCL_2*%
X303320000Y-96360000D03*
%TO.P,U8,4,SDA*%
%TO.N,SDA_2*%
X305860000Y-96360000D03*
D25*
%TO.P,U8,5*%
%TO.N,N/C*%
X313650000Y-96430000D03*
%TO.P,U8,6*%
X290600000Y-96430000D03*
%TO.P,U8,7*%
X290600000Y-119480000D03*
D26*
%TO.P,U8,8*%
X313650000Y-119480000D03*
%TD*%
D22*
%TO.P,LED21,1,K*%
%TO.N,Net-(LED21-K)*%
X68680000Y-98870000D03*
D12*
%TO.P,LED21,2,A*%
%TO.N,Net-(LED21-A)*%
X71220000Y-98870000D03*
%TD*%
D22*
%TO.P,LED9,1,K*%
%TO.N,Net-(LED9-K)*%
X364165000Y-169760000D03*
D12*
%TO.P,LED9,2,A*%
%TO.N,Net-(D34-K)*%
X366705000Y-169760000D03*
%TD*%
D24*
%TO.P,D22,1,K*%
%TO.N,+5V*%
X94870000Y-38660000D03*
D21*
%TO.P,D22,2,A*%
%TO.N,GND*%
X94870000Y-48820000D03*
%TD*%
D14*
%TO.P,D7,1,K*%
%TO.N,MX2*%
X76320000Y-154170000D03*
D15*
%TO.P,D7,2,A*%
%TO.N,GND*%
X63620000Y-154170000D03*
%TD*%
D16*
%TO.P,M7,1,G*%
%TO.N,Net-(M7-G)*%
X162230000Y-171110000D03*
D17*
%TO.P,M7,2,D*%
%TO.N,MX7*%
X159690000Y-171110000D03*
%TO.P,M7,3,S*%
%TO.N,18vdc Ret*%
X157150000Y-171110000D03*
%TD*%
D20*
%TO.P,D39,1,K*%
%TO.N,Net-(D39-K)*%
X384730000Y-56610000D03*
D21*
%TO.P,D39,2,A*%
%TO.N,MX7*%
X374570000Y-56610000D03*
%TD*%
D11*
%TO.P,R15,1*%
%TO.N,Net-(LED7-A)*%
X97360000Y-170890000D03*
%TO.P,R15,2*%
%TO.N,5.6vac com*%
X89740000Y-170890000D03*
%TD*%
D24*
%TO.P,D61,1,K*%
%TO.N,Vled*%
X160130000Y-204420000D03*
D21*
%TO.P,D61,2,A*%
%TO.N,LD4*%
X160130000Y-214580000D03*
%TD*%
D11*
%TO.P,R92,1*%
%TO.N,Net-(S5-G)*%
X37690000Y-126930000D03*
%TO.P,R92,2*%
%TO.N,GND*%
X30070000Y-126930000D03*
%TD*%
D22*
%TO.P,LED19,1,K*%
%TO.N,Net-(LED19-K)*%
X41725000Y-199520000D03*
D12*
%TO.P,LED19,2,A*%
%TO.N,Net-(D44-K)*%
X44265000Y-199520000D03*
%TD*%
D20*
%TO.P,D40,1,K*%
%TO.N,Net-(D40-K)*%
X348240000Y-56520000D03*
D21*
%TO.P,D40,2,A*%
%TO.N,MX7*%
X338080000Y-56520000D03*
%TD*%
D20*
%TO.P,D42,1,K*%
%TO.N,Net-(D42-K)*%
X269940000Y-56960000D03*
D21*
%TO.P,D42,2,A*%
%TO.N,MX7*%
X259780000Y-56960000D03*
%TD*%
D20*
%TO.P,D36,1,K*%
%TO.N,Net-(D36-K)*%
X291630000Y-161960000D03*
D21*
%TO.P,D36,2,A*%
%TO.N,MX8*%
X281470000Y-161960000D03*
%TD*%
D11*
%TO.P,C2,1*%
%TO.N,MX1*%
X57470000Y-142500000D03*
%TO.P,C2,2*%
%TO.N,GND*%
X47470000Y-142500000D03*
%TD*%
D31*
%TO.P,R21,1*%
%TO.N,+5V*%
X87620000Y-66570000D03*
%TO.P,R21,2*%
%TO.N,Net-(U1-~{SRCLR})*%
X87620000Y-74190000D03*
%TD*%
D11*
%TO.P,R66,1*%
%TO.N,+3V3*%
X178950000Y-121380000D03*
%TO.P,R66,2*%
%TO.N,I2C SCL*%
X178950000Y-113760000D03*
%TD*%
D24*
%TO.P,D62,1,K*%
%TO.N,Vled*%
X164110000Y-204420000D03*
D21*
%TO.P,D62,2,A*%
%TO.N,LD5*%
X164110000Y-214580000D03*
%TD*%
D24*
%TO.P,D48,1,K*%
%TO.N,+18vdc*%
X116150000Y-204420000D03*
D21*
%TO.P,D48,2,A*%
%TO.N,MX4*%
X116150000Y-214580000D03*
%TD*%
D29*
%TO.P,L7,1,G*%
%TO.N,Net-(L7-G)*%
X251020000Y-178150000D03*
D30*
%TO.P,L7,2,D*%
%TO.N,LD7*%
X251020000Y-180690000D03*
%TO.P,L7,3,S*%
%TO.N,GND*%
X251020000Y-183230000D03*
%TD*%
D11*
%TO.P,R103,1*%
%TO.N,Net-(L7-G)*%
X240920000Y-177460000D03*
%TO.P,R103,2*%
%TO.N,L7*%
X233300000Y-177460000D03*
%TD*%
D24*
%TO.P,D45,1,K*%
%TO.N,+18vdc*%
X72620000Y-204420000D03*
D21*
%TO.P,D45,2,A*%
%TO.N,MX1*%
X72620000Y-214580000D03*
%TD*%
D24*
%TO.P,D50,1,K*%
%TO.N,+18vdc*%
X136390000Y-204420000D03*
D21*
%TO.P,D50,2,A*%
%TO.N,MX6*%
X136390000Y-214580000D03*
%TD*%
D24*
%TO.P,D20,1,K*%
%TO.N,+18vdc*%
X138090000Y-38900000D03*
D21*
%TO.P,D20,2,A*%
%TO.N,GND*%
X138090000Y-49060000D03*
%TD*%
D32*
%TO.P,D13,1,K*%
%TO.N,MX8*%
X303800000Y-161380000D03*
D15*
%TO.P,D13,2,A*%
%TO.N,GND*%
X303800000Y-174080000D03*
%TD*%
D18*
%TO.P,U5,1,GND*%
%TO.N,GND*%
X214130000Y-96400000D03*
D19*
%TO.P,U5,2,VCC*%
%TO.N,+5V*%
X216670000Y-96400000D03*
%TO.P,U5,3,SLC*%
%TO.N,SCL_5*%
X219210000Y-96400000D03*
%TO.P,U5,4,SDA*%
%TO.N,SDA_5*%
X221750000Y-96400000D03*
D25*
%TO.P,U5,5*%
%TO.N,N/C*%
X229540000Y-96470000D03*
%TO.P,U5,6*%
X206490000Y-96470000D03*
%TO.P,U5,7*%
X206490000Y-119520000D03*
D26*
%TO.P,U5,8*%
X229540000Y-119520000D03*
%TD*%
D11*
%TO.P,R74,1*%
%TO.N,Net-(M3-G)*%
X112780000Y-185060000D03*
%TO.P,R74,2*%
%TO.N,GND*%
X120400000Y-185060000D03*
%TD*%
D33*
%TO.P,D53,1,K*%
%TO.N,Net-(D53-K)*%
X85930000Y-48180000D03*
D11*
%TO.P,D53,2,A*%
%TO.N,MX1*%
X85930000Y-55800000D03*
%TD*%
D22*
%TO.P,LED17,1,K*%
%TO.N,Net-(LED17-K)*%
X267328800Y-50150000D03*
D12*
%TO.P,LED17,2,A*%
%TO.N,Net-(D42-K)*%
X269868800Y-50150000D03*
%TD*%
D11*
%TO.P,R71,1*%
%TO.N,Net-(M2-G)*%
X81790000Y-141620000D03*
%TO.P,R71,2*%
%TO.N,M2*%
X81790000Y-149240000D03*
%TD*%
D34*
%TO.P,D29,1,K*%
%TO.N,SW1*%
X106350000Y-132690000D03*
D11*
%TO.P,D29,2,A*%
%TO.N,GND*%
X98730000Y-132690000D03*
%TD*%
D28*
%TO.P,D11,1,K*%
%TO.N,MX6*%
X143460000Y-197050000D03*
D15*
%TO.P,D11,2,A*%
%TO.N,GND*%
X156160000Y-197050000D03*
%TD*%
D29*
%TO.P,L3,1,G*%
%TO.N,Net-(L3-G)*%
X205220000Y-189860000D03*
D30*
%TO.P,L3,2,D*%
%TO.N,LD3*%
X205220000Y-192400000D03*
%TO.P,L3,3,S*%
%TO.N,GND*%
X205220000Y-194940000D03*
%TD*%
D11*
%TO.P,C1,1*%
%TO.N,+3V3*%
X184460000Y-124180000D03*
%TO.P,C1,2*%
%TO.N,GND*%
X174460000Y-124180000D03*
%TD*%
D35*
%TO.P,D18,1,K*%
%TO.N,LD7*%
X206900000Y-49990000D03*
D15*
%TO.P,D18,2,A*%
%TO.N,GND*%
X206900000Y-37290000D03*
%TD*%
D11*
%TO.P,R67,1*%
%TO.N,+3V3*%
X183500000Y-121160000D03*
%TO.P,R67,2*%
%TO.N,I2C SDA*%
X183500000Y-113540000D03*
%TD*%
D24*
%TO.P,D46,1,K*%
%TO.N,+18vdc*%
X76790000Y-204420000D03*
D21*
%TO.P,D46,2,A*%
%TO.N,MX2*%
X76790000Y-214580000D03*
%TD*%
D11*
%TO.P,R63,1*%
%TO.N,GND*%
X82970000Y-120520000D03*
%TO.P,R63,2*%
%TO.N,SW_1*%
X90590000Y-120520000D03*
%TD*%
%TO.P,R72,1*%
%TO.N,Net-(M2-G)*%
X76340000Y-141610000D03*
%TO.P,R72,2*%
%TO.N,GND*%
X68720000Y-141610000D03*
%TD*%
%TO.P,R76,1*%
%TO.N,Net-(M4-G)*%
X137530000Y-181270000D03*
%TO.P,R76,2*%
%TO.N,GND*%
X129910000Y-181270000D03*
%TD*%
D16*
%TO.P,M4,1,G*%
%TO.N,Net-(M4-G)*%
X136750000Y-189300000D03*
D17*
%TO.P,M4,2,D*%
%TO.N,MX4*%
X134210000Y-189300000D03*
%TO.P,M4,3,S*%
%TO.N,18vdc Ret*%
X131670000Y-189300000D03*
%TD*%
D11*
%TO.P,R6,1*%
%TO.N,Net-(LED11-K)*%
X283680000Y-173330000D03*
%TO.P,R6,2*%
%TO.N,LD6*%
X283680000Y-180950000D03*
%TD*%
D33*
%TO.P,D55,1,K*%
%TO.N,Net-(D55-K)*%
X81790000Y-48140000D03*
D11*
%TO.P,D55,2,A*%
%TO.N,MX2*%
X81790000Y-55760000D03*
%TD*%
%TO.P,R62,1*%
%TO.N,GND*%
X83030000Y-128130000D03*
%TO.P,R62,2*%
%TO.N,SW_0*%
X90650000Y-128130000D03*
%TD*%
%TO.P,C12,1*%
%TO.N,SW_1*%
X94570000Y-120030000D03*
%TO.P,C12,2*%
%TO.N,GND*%
X94570000Y-125030000D03*
%TD*%
D20*
%TO.P,D56,1,K*%
%TO.N,+22vdc*%
X57420000Y-42560000D03*
D21*
%TO.P,D56,2,A*%
%TO.N,SD3*%
X47260000Y-42560000D03*
%TD*%
D24*
%TO.P,D47,1,K*%
%TO.N,+18vdc*%
X111620000Y-204420000D03*
D21*
%TO.P,D47,2,A*%
%TO.N,MX3*%
X111620000Y-214580000D03*
%TD*%
D18*
%TO.P,U6,1,GND*%
%TO.N,GND*%
X242184000Y-96360000D03*
D19*
%TO.P,U6,2,VCC*%
%TO.N,+5V*%
X244724000Y-96360000D03*
%TO.P,U6,3,SLC*%
%TO.N,SCL_4*%
X247264000Y-96360000D03*
%TO.P,U6,4,SDA*%
%TO.N,SDA_4*%
X249804000Y-96360000D03*
D25*
%TO.P,U6,5*%
%TO.N,N/C*%
X257594000Y-96430000D03*
%TO.P,U6,6*%
X234544000Y-96430000D03*
%TO.P,U6,7*%
X234544000Y-119480000D03*
D26*
%TO.P,U6,8*%
X257594000Y-119480000D03*
%TD*%
D32*
%TO.P,D15,1,K*%
%TO.N,LD4*%
X354880000Y-181090000D03*
D15*
%TO.P,D15,2,A*%
%TO.N,GND*%
X354880000Y-193790000D03*
%TD*%
D36*
%TO.P,SW1,1,A*%
%TO.N,Net-(D27-K)*%
X37170000Y-165710000D03*
D37*
%TO.P,SW1,2,B*%
%TO.N,SW_1*%
X32570000Y-165710000D03*
%TD*%
D34*
%TO.P,D30,1,K*%
%TO.N,SW2*%
X106410000Y-124920000D03*
D11*
%TO.P,D30,2,A*%
%TO.N,GND*%
X98790000Y-124920000D03*
%TD*%
%TO.P,R91,1*%
%TO.N,Net-(S5-G)*%
X47170000Y-127430000D03*
%TO.P,R91,2*%
%TO.N,S5*%
X54790000Y-127430000D03*
%TD*%
%TO.P,C5,1*%
%TO.N,MX4*%
X134210000Y-185560000D03*
%TO.P,C5,2*%
%TO.N,GND*%
X124210000Y-185560000D03*
%TD*%
%TO.P,R97,1*%
%TO.N,Net-(L4-G)*%
X355160000Y-177720000D03*
%TO.P,R97,2*%
%TO.N,L4*%
X355160000Y-170100000D03*
%TD*%
D24*
%TO.P,D64,1,K*%
%TO.N,Vled*%
X152250000Y-204420000D03*
D21*
%TO.P,D64,2,A*%
%TO.N,LD7*%
X152250000Y-214580000D03*
%TD*%
D11*
%TO.P,R104,1*%
%TO.N,Net-(L7-G)*%
X256970000Y-177370000D03*
%TO.P,R104,2*%
%TO.N,GND*%
X256970000Y-184990000D03*
%TD*%
D23*
%TO.P,D27,1,K*%
%TO.N,Net-(D27-K)*%
X44310000Y-166140000D03*
D21*
%TO.P,D27,2,A*%
%TO.N,MX5*%
X54470000Y-166140000D03*
%TD*%
D11*
%TO.P,R88,1*%
%TO.N,Net-(S3-G)*%
X37640000Y-52710000D03*
%TO.P,R88,2*%
%TO.N,GND*%
X30020000Y-52710000D03*
%TD*%
%TO.P,R11,1*%
%TO.N,Net-(LED16-K)*%
X306470000Y-61240000D03*
%TO.P,R11,2*%
%TO.N,LD6*%
X298850000Y-61240000D03*
%TD*%
%TO.P,R77,1*%
%TO.N,Net-(M5-G)*%
X136890000Y-162890000D03*
%TO.P,R77,2*%
%TO.N,M5*%
X144510000Y-162890000D03*
%TD*%
%TO.P,R98,1*%
%TO.N,Net-(L4-G)*%
X372380000Y-177180000D03*
%TO.P,R98,2*%
%TO.N,GND*%
X372380000Y-184800000D03*
%TD*%
D22*
%TO.P,r16,1,K*%
%TO.N,Net-(r16-K)*%
X196935000Y-184560000D03*
D12*
%TO.P,r16,2,A*%
%TO.N,Net-(D38-K)*%
X199475000Y-184560000D03*
%TD*%
D11*
%TO.P,R87,1*%
%TO.N,Net-(S3-G)*%
X47380000Y-53470000D03*
%TO.P,R87,2*%
%TO.N,S3*%
X55000000Y-53470000D03*
%TD*%
%TO.P,R69,1*%
%TO.N,Net-(M1-G)*%
X64090000Y-137680000D03*
%TO.P,R69,2*%
%TO.N,M1*%
X64090000Y-130060000D03*
%TD*%
D22*
%TO.P,LED13,1,K*%
%TO.N,Net-(LED13-K)*%
X68790000Y-91120000D03*
D12*
%TO.P,LED13,2,A*%
%TO.N,Net-(LED13-A)*%
X71330000Y-91120000D03*
%TD*%
D16*
%TO.P,S4,1,G*%
%TO.N,Net-(S4-G)*%
X47290000Y-102912500D03*
D17*
%TO.P,S4,2,D*%
%TO.N,SD4*%
X44750000Y-102912500D03*
%TO.P,S4,3,S*%
%TO.N,GND*%
X42210000Y-102912500D03*
%TD*%
D11*
%TO.P,R100,1*%
%TO.N,Net-(L5-G)*%
X333500000Y-177290000D03*
%TO.P,R100,2*%
%TO.N,GND*%
X333500000Y-184910000D03*
%TD*%
%TO.P,R82,1*%
%TO.N,Net-(M7-G)*%
X159800000Y-163340000D03*
%TO.P,R82,2*%
%TO.N,GND*%
X152180000Y-163340000D03*
%TD*%
D23*
%TO.P,D28,1,K*%
%TO.N,Net-(D28-K)*%
X43772500Y-181130000D03*
D21*
%TO.P,D28,2,A*%
%TO.N,MX6*%
X53932500Y-181130000D03*
%TD*%
D22*
%TO.P,LED10,1,K*%
%TO.N,Net-(LED10-K)*%
X325923300Y-169760000D03*
D12*
%TO.P,LED10,2,A*%
%TO.N,Net-(D35-K)*%
X328463300Y-169760000D03*
%TD*%
D11*
%TO.P,C15,1*%
%TO.N,Net-(C15-Pad1)*%
X170880000Y-62830000D03*
%TO.P,C15,2*%
%TO.N,Audio*%
X168380000Y-62830000D03*
%TD*%
D16*
%TO.P,S3,1,G*%
%TO.N,Net-(S3-G)*%
X47290000Y-46645000D03*
D17*
%TO.P,S3,2,D*%
%TO.N,SD3*%
X44750000Y-46645000D03*
%TO.P,S3,3,S*%
%TO.N,GND*%
X42210000Y-46645000D03*
%TD*%
D16*
%TO.P,M3,1,G*%
%TO.N,Net-(M3-G)*%
X112700000Y-188890000D03*
D17*
%TO.P,M3,2,D*%
%TO.N,MX3*%
X110160000Y-188890000D03*
%TO.P,M3,3,S*%
%TO.N,18vdc Ret*%
X107620000Y-188890000D03*
%TD*%
D11*
%TO.P,R86,1*%
%TO.N,Net-(S2-G)*%
X37990000Y-72050000D03*
%TO.P,R86,2*%
%TO.N,GND*%
X30370000Y-72050000D03*
%TD*%
%TO.P,R4,1*%
%TO.N,Net-(LED9-K)*%
X359670000Y-173250000D03*
%TO.P,R4,2*%
%TO.N,LD4*%
X359670000Y-180870000D03*
%TD*%
D10*
%TO.P,JD2,1,Pin_1*%
%TO.N,MX1*%
X72540008Y-223490000D03*
%TO.P,JD2,2,Pin_2*%
%TO.N,MX2*%
X76500007Y-223490000D03*
%TO.P,JD2,3,Pin_3*%
X80460007Y-223490000D03*
%TO.P,JD2,4,Pin_4*%
%TO.N,SW_3*%
X84420007Y-223490000D03*
%TO.P,JD2,5,Pin_5*%
%TO.N,SW_2*%
X88380006Y-223490000D03*
%TO.P,JD2,6,Pin_6*%
%TO.N,SW_1*%
X92340006Y-223490000D03*
%TO.P,JD2,7,Pin_7*%
%TO.N,SW_0*%
X96300006Y-223490000D03*
%TO.P,JD2,8,Pin_8*%
%TO.N,unconnected-(JD2-Pin_8-Pad8)*%
X100260005Y-223490000D03*
%TO.P,JD2,9,Pin_9*%
%TO.N,unconnected-(JD2-Pin_9-Pad9)*%
X104220005Y-223490000D03*
%TO.P,JD2,10,Pin_10*%
%TO.N,MX3*%
X108180005Y-223490000D03*
%TO.P,JD2,11,Pin_11*%
X112140005Y-223490000D03*
%TO.P,JD2,12,Pin_12*%
%TO.N,MX4*%
X116100004Y-223490000D03*
%TO.P,JD2,13,Pin_13*%
X120060004Y-223490000D03*
%TO.P,JD2,14,Pin_14*%
%TO.N,unconnected-(JD2-Pin_14-Pad14)*%
X124560000Y-223490000D03*
%TO.P,JD2,15,Pin_15*%
%TO.N,MX5*%
X128500008Y-223490000D03*
%TO.P,JD2,16,Pin_16*%
X132460007Y-223490000D03*
%TO.P,JD2,17,Pin_17*%
%TO.N,MX6*%
X136420007Y-223490000D03*
%TO.P,JD2,18,Pin_18*%
X140380007Y-223490000D03*
%TO.P,JD2,19,Pin_19*%
%TO.N,MX7*%
X144340006Y-223490000D03*
%TO.P,JD2,20,Pin_20*%
%TO.N,LD3*%
X148300006Y-223490000D03*
%TO.P,JD2,21,Pin_21*%
%TO.N,LD7*%
X152260006Y-223490000D03*
%TO.P,JD2,22,Pin_22*%
%TO.N,LD6*%
X156220006Y-223490000D03*
%TO.P,JD2,23,Pin_23*%
%TO.N,LD4*%
X160200001Y-223490000D03*
%TO.P,JD2,24,Pin_24*%
%TO.N,LD5*%
X164160000Y-223490000D03*
%TD*%
D11*
%TO.P,R81,1*%
%TO.N,Net-(M7-G)*%
X162240000Y-163340000D03*
%TO.P,R81,2*%
%TO.N,M7*%
X169860000Y-163340000D03*
%TD*%
D24*
%TO.P,D49,1,K*%
%TO.N,+18vdc*%
X132240000Y-204420000D03*
D21*
%TO.P,D49,2,A*%
%TO.N,MX5*%
X132240000Y-214580000D03*
%TD*%
D16*
%TO.P,S6,1,G*%
%TO.N,Net-(S6-G)*%
X47290000Y-84210000D03*
D17*
%TO.P,S6,2,D*%
%TO.N,SD6*%
X44750000Y-84210000D03*
%TO.P,S6,3,S*%
%TO.N,GND*%
X42210000Y-84210000D03*
%TD*%
D14*
%TO.P,D5,1,K*%
%TO.N,SD2*%
X43260000Y-59430000D03*
D15*
%TO.P,D5,2,A*%
%TO.N,GND*%
X30560000Y-59430000D03*
%TD*%
D20*
%TO.P,D43,1,K*%
%TO.N,Net-(D43-K)*%
X232140000Y-56430000D03*
D21*
%TO.P,D43,2,A*%
%TO.N,MX6*%
X221980000Y-56430000D03*
%TD*%
D20*
%TO.P,D59,1,K*%
%TO.N,+22vdc*%
X56920000Y-79070000D03*
D21*
%TO.P,D59,2,A*%
%TO.N,SD6*%
X46760000Y-79070000D03*
%TD*%
D11*
%TO.P,R94,1*%
%TO.N,Net-(S6-G)*%
X38710000Y-90040000D03*
%TO.P,R94,2*%
%TO.N,GND*%
X31090000Y-90040000D03*
%TD*%
D22*
%TO.P,LED12,1,K*%
%TO.N,Net-(LED12-K)*%
X249440000Y-169760000D03*
D12*
%TO.P,LED12,2,A*%
%TO.N,Net-(D37-K)*%
X251980000Y-169760000D03*
%TD*%
D32*
%TO.P,D14,1,K*%
%TO.N,LD3*%
X198250000Y-192200000D03*
D15*
%TO.P,D14,2,A*%
%TO.N,GND*%
X198250000Y-204900000D03*
%TD*%
D20*
%TO.P,D54,1,K*%
%TO.N,+22vdc*%
X57910000Y-59500000D03*
D21*
%TO.P,D54,2,A*%
%TO.N,SD2*%
X47750000Y-59500000D03*
%TD*%
D11*
%TO.P,R20,1*%
%TO.N,Net-(LED21-K)*%
X85350000Y-99400000D03*
%TO.P,R20,2*%
%TO.N,+5V*%
X92970000Y-99400000D03*
%TD*%
%TO.P,R65,1*%
%TO.N,GND*%
X83490000Y-104170000D03*
%TO.P,R65,2*%
%TO.N,SW_3*%
X91110000Y-104170000D03*
%TD*%
D20*
%TO.P,D38,1,K*%
%TO.N,Net-(D38-K)*%
X199430000Y-178010000D03*
D21*
%TO.P,D38,2,A*%
%TO.N,MX7*%
X189270000Y-178010000D03*
%TD*%
D32*
%TO.P,D17,1,K*%
%TO.N,LD6*%
X278470000Y-181520000D03*
D15*
%TO.P,D17,2,A*%
%TO.N,GND*%
X278470000Y-194220000D03*
%TD*%
D20*
%TO.P,D57,1,K*%
%TO.N,+22vdc*%
X57490000Y-99000000D03*
D21*
%TO.P,D57,2,A*%
%TO.N,SD4*%
X47330000Y-99000000D03*
%TD*%
D22*
%TO.P,LED18,1,K*%
%TO.N,Net-(LED18-K)*%
X228525000Y-50150000D03*
D12*
%TO.P,LED18,2,A*%
%TO.N,Net-(D43-K)*%
X231065000Y-50150000D03*
%TD*%
D29*
%TO.P,L5,1,G*%
%TO.N,Net-(L5-G)*%
X327340000Y-178630000D03*
D30*
%TO.P,L5,2,D*%
%TO.N,LD5*%
X327340000Y-181170000D03*
%TO.P,L5,3,S*%
%TO.N,GND*%
X327340000Y-183710000D03*
%TD*%
D20*
%TO.P,D58,1,K*%
%TO.N,+22vdc*%
X57690000Y-117390000D03*
D21*
%TO.P,D58,2,A*%
%TO.N,SD5*%
X47530000Y-117390000D03*
%TD*%
D11*
%TO.P,R60,1*%
%TO.N,SW_2*%
X98980000Y-111920000D03*
%TO.P,R60,2*%
%TO.N,SW3*%
X106600000Y-111920000D03*
%TD*%
%TO.P,R93,1*%
%TO.N,Net-(S6-G)*%
X47230000Y-90610000D03*
%TO.P,R93,2*%
%TO.N,S6*%
X54850000Y-90610000D03*
%TD*%
D36*
%TO.P,SW2,1,A*%
%TO.N,Net-(D28-K)*%
X37170000Y-180460000D03*
D37*
%TO.P,SW2,2,B*%
%TO.N,SW_1*%
X32570000Y-180460000D03*
%TD*%
D14*
%TO.P,D10,1,K*%
%TO.N,MX5*%
X134110000Y-175930000D03*
D15*
%TO.P,D10,2,A*%
%TO.N,GND*%
X121410000Y-175930000D03*
%TD*%
D11*
%TO.P,R102,1*%
%TO.N,Net-(L6-G)*%
X296000000Y-177530000D03*
%TO.P,R102,2*%
%TO.N,GND*%
X296000000Y-185150000D03*
%TD*%
D38*
%TO.P,U1,1,QB*%
%TO.N,S3*%
X76680000Y-66280000D03*
D39*
%TO.P,U1,2,QC*%
%TO.N,S4*%
X76680000Y-68820000D03*
%TO.P,U1,3,QD*%
%TO.N,S5*%
X76680000Y-71360000D03*
%TO.P,U1,4,QE*%
%TO.N,S6*%
X76680000Y-73900000D03*
%TO.P,U1,5,QF*%
%TO.N,Net-(LED13-A)*%
X76680000Y-76440000D03*
%TO.P,U1,6,QG*%
%TO.N,Net-(LED21-A)*%
X76680000Y-78980000D03*
%TO.P,U1,7,QH*%
%TO.N,unconnected-(U1-QH-Pad7)*%
X76680000Y-81520000D03*
%TO.P,U1,8,GND*%
%TO.N,GND*%
X76680000Y-84060000D03*
%TO.P,U1,9,QH'*%
%TO.N,unconnected-(U1-QH&apos;-Pad9)*%
X84300000Y-84060000D03*
%TO.P,U1,10,~{SRCLR}*%
%TO.N,Net-(U1-~{SRCLR})*%
X84300000Y-81520000D03*
%TO.P,U1,11,SRCLK*%
%TO.N,a2*%
X84300000Y-78980000D03*
%TO.P,U1,12,RCLK*%
%TO.N,a1*%
X84300000Y-76440000D03*
%TO.P,U1,13,~{OE}*%
%TO.N,GND*%
X84300000Y-73900000D03*
%TO.P,U1,14,SER*%
%TO.N,a0*%
X84300000Y-71360000D03*
%TO.P,U1,15,QA*%
%TO.N,S2*%
X84300000Y-68820000D03*
%TO.P,U1,16,VCC*%
%TO.N,+5V*%
X84300000Y-66280000D03*
%TD*%
D40*
%TO.P,C17,1*%
%TO.N,Net-(U4-BYPASS)*%
X155220000Y-35430000D03*
D11*
%TO.P,C17,2*%
%TO.N,GND*%
X155220000Y-32930000D03*
%TD*%
%TO.P,R59,1*%
%TO.N,SW_1*%
X98680000Y-120620000D03*
%TO.P,R59,2*%
%TO.N,SW2*%
X106300000Y-120620000D03*
%TD*%
D16*
%TO.P,M5,1,G*%
%TO.N,Net-(M5-G)*%
X137010000Y-170280000D03*
D17*
%TO.P,M5,2,D*%
%TO.N,MX5*%
X134470000Y-170280000D03*
%TO.P,M5,3,S*%
%TO.N,18vdc Ret*%
X131930000Y-170280000D03*
%TD*%
D24*
%TO.P,D21,1,K*%
%TO.N,+22vdc*%
X65350000Y-38660000D03*
D21*
%TO.P,D21,2,A*%
%TO.N,GND*%
X65350000Y-48820000D03*
%TD*%
D11*
%TO.P,R90,1*%
%TO.N,Net-(S4-G)*%
X38540000Y-108580000D03*
%TO.P,R90,2*%
%TO.N,GND*%
X30920000Y-108580000D03*
%TD*%
D32*
%TO.P,D16,1,K*%
%TO.N,LD5*%
X314400000Y-180660000D03*
D15*
%TO.P,D16,2,A*%
%TO.N,GND*%
X314400000Y-193360000D03*
%TD*%
D11*
%TO.P,R5,1*%
%TO.N,Net-(LED10-K)*%
X322100000Y-173590000D03*
%TO.P,R5,2*%
%TO.N,LD5*%
X322100000Y-181210000D03*
%TD*%
%TO.P,R89,1*%
%TO.N,Net-(S4-G)*%
X47750000Y-108640000D03*
%TO.P,R89,2*%
%TO.N,S4*%
X55370000Y-108640000D03*
%TD*%
%TO.P,R95,1*%
%TO.N,Net-(L3-G)*%
X205320000Y-184690000D03*
%TO.P,R95,2*%
%TO.N,L3*%
X205320000Y-177070000D03*
%TD*%
%TO.P,R79,1*%
%TO.N,Net-(M6-G)*%
X154350000Y-185400000D03*
%TO.P,R79,2*%
%TO.N,M6*%
X154350000Y-177780000D03*
%TD*%
%TO.P,C8,1*%
%TO.N,MX7*%
X159680000Y-167250000D03*
%TO.P,C8,2*%
%TO.N,GND*%
X149680000Y-167250000D03*
%TD*%
D27*
%TO.P,D63,1,K*%
%TO.N,Vled*%
X271150000Y-194330000D03*
D21*
%TO.P,D63,2,A*%
%TO.N,LD6*%
X271150000Y-184170000D03*
%TD*%
D16*
%TO.P,M1,1,G*%
%TO.N,Net-(M1-G)*%
X59810000Y-147350000D03*
D17*
%TO.P,M1,2,D*%
%TO.N,MX1*%
X57270000Y-147350000D03*
%TO.P,M1,3,S*%
%TO.N,18vdc Ret*%
X54730000Y-147350000D03*
%TD*%
D11*
%TO.P,R8,1*%
%TO.N,Net-(r16-K)*%
X192880000Y-184620000D03*
%TO.P,R8,2*%
%TO.N,LD3*%
X192880000Y-192240000D03*
%TD*%
%TO.P,R57,1*%
%TO.N,+3V3*%
X179760000Y-81790000D03*
%TO.P,R57,2*%
%TO.N,Net-(J4-EN_{slash}_RESET)*%
X179760000Y-74170000D03*
%TD*%
%TO.P,R99,1*%
%TO.N,Net-(L5-G)*%
X318070000Y-177760000D03*
%TO.P,R99,2*%
%TO.N,L5*%
X318070000Y-170140000D03*
%TD*%
%TO.P,R10,1*%
%TO.N,Net-(LED15-K)*%
X344610000Y-61070000D03*
%TO.P,R10,2*%
%TO.N,LD5*%
X336990000Y-61070000D03*
%TD*%
D22*
%TO.P,LED7,1,K*%
%TO.N,Net-(D25-K)*%
X93975000Y-176920000D03*
D12*
%TO.P,LED7,2,A*%
%TO.N,Net-(LED7-A)*%
X96515000Y-176920000D03*
%TD*%
D11*
%TO.P,C4,1*%
%TO.N,MX3*%
X110280000Y-181170000D03*
%TO.P,C4,2*%
%TO.N,GND*%
X120280000Y-181170000D03*
%TD*%
%TO.P,R58,1*%
%TO.N,SW_0*%
X98680000Y-128270000D03*
%TO.P,R58,2*%
%TO.N,SW1*%
X106300000Y-128270000D03*
%TD*%
D28*
%TO.P,D12,1,K*%
%TO.N,MX7*%
X159180000Y-177280000D03*
D15*
%TO.P,D12,2,A*%
%TO.N,GND*%
X171880000Y-177280000D03*
%TD*%
D34*
%TO.P,C18,1*%
%TO.N,Net-(C18-Pad1)*%
X146040000Y-38070000D03*
D11*
%TO.P,C18,2*%
%TO.N,To Speaker*%
X142540000Y-38070000D03*
%TD*%
D40*
%TO.P,D33,1,K*%
%TO.N,Audio*%
X172800000Y-44680000D03*
D11*
%TO.P,D33,2,A*%
%TO.N,GND*%
X172800000Y-37060000D03*
%TD*%
D34*
%TO.P,D31,1,K*%
%TO.N,SW3*%
X106600000Y-116090000D03*
D11*
%TO.P,D31,2,A*%
%TO.N,GND*%
X98980000Y-116090000D03*
%TD*%
D16*
%TO.P,S5,1,G*%
%TO.N,Net-(S5-G)*%
X47290000Y-121615000D03*
D17*
%TO.P,S5,2,D*%
%TO.N,SD5*%
X44750000Y-121615000D03*
%TO.P,S5,3,S*%
%TO.N,GND*%
X42210000Y-121615000D03*
%TD*%
D11*
%TO.P,R19,1*%
%TO.N,+5V*%
X93090000Y-93790000D03*
%TO.P,R19,2*%
%TO.N,Net-(LED13-K)*%
X85470000Y-93790000D03*
%TD*%
%TO.P,R78,1*%
%TO.N,Net-(M5-G)*%
X134310000Y-162830000D03*
%TO.P,R78,2*%
%TO.N,GND*%
X126690000Y-162830000D03*
%TD*%
D27*
%TO.P,D25,1,K*%
%TO.N,Net-(D25-K)*%
X93970000Y-166940000D03*
D21*
%TO.P,D25,2,A*%
%TO.N,5.6vac*%
X93970000Y-156780000D03*
%TD*%
D11*
%TO.P,R75,1*%
%TO.N,Net-(M4-G)*%
X141950000Y-176300000D03*
%TO.P,R75,2*%
%TO.N,M4*%
X141950000Y-168680000D03*
%TD*%
%TO.P,R73,1*%
%TO.N,Net-(M3-G)*%
X105190000Y-183010000D03*
%TO.P,R73,2*%
%TO.N,M3*%
X105190000Y-175390000D03*
%TD*%
D22*
%TO.P,LED11,1,K*%
%TO.N,Net-(LED11-K)*%
X287681700Y-169760000D03*
D12*
%TO.P,LED11,2,A*%
%TO.N,Net-(D36-K)*%
X290221700Y-169760000D03*
%TD*%
D11*
%TO.P,R12,1*%
%TO.N,Net-(LED17-K)*%
X266480000Y-60890000D03*
%TO.P,R12,2*%
%TO.N,LD7*%
X258860000Y-60890000D03*
%TD*%
D31*
%TO.P,R17,1*%
%TO.N,+5V*%
X292490000Y-63940000D03*
%TO.P,R17,2*%
%TO.N,Net-(U2-Reset)*%
X284870000Y-63940000D03*
%TD*%
D14*
%TO.P,D4,1,K*%
%TO.N,SD3*%
X43310000Y-42570000D03*
D15*
%TO.P,D4,2,A*%
%TO.N,GND*%
X30610000Y-42570000D03*
%TD*%
D33*
%TO.P,C10,1*%
%TO.N,+18vdc*%
X129590000Y-43430000D03*
D11*
%TO.P,C10,2*%
%TO.N,GND*%
X129590000Y-45430000D03*
%TD*%
D33*
%TO.P,C21,1*%
%TO.N,+5V*%
X100100000Y-47450000D03*
D11*
%TO.P,C21,2*%
%TO.N,GND*%
X100100000Y-49450000D03*
%TD*%
D29*
%TO.P,L6,1,G*%
%TO.N,Net-(L6-G)*%
X288880000Y-178310000D03*
D30*
%TO.P,L6,2,D*%
%TO.N,LD6*%
X288880000Y-180850000D03*
%TO.P,L6,3,S*%
%TO.N,GND*%
X288880000Y-183390000D03*
%TD*%
D11*
%TO.P,R101,1*%
%TO.N,Net-(L6-G)*%
X278960000Y-177250000D03*
%TO.P,R101,2*%
%TO.N,L6*%
X278960000Y-169630000D03*
%TD*%
D18*
%TO.P,U10,1,GND*%
%TO.N,GND*%
X354296000Y-96360000D03*
D19*
%TO.P,U10,2,VCC*%
%TO.N,+5V*%
X356836000Y-96360000D03*
%TO.P,U10,3,SLC*%
%TO.N,SCL_0*%
X359376000Y-96360000D03*
%TO.P,U10,4,SDA*%
%TO.N,SDA_0*%
X361916000Y-96360000D03*
D25*
%TO.P,U10,5*%
%TO.N,N/C*%
X369706000Y-96430000D03*
%TO.P,U10,6*%
X346656000Y-96430000D03*
%TO.P,U10,7*%
X346656000Y-119480000D03*
D26*
%TO.P,U10,8*%
X369706000Y-119480000D03*
%TD*%
D16*
%TO.P,M8,1,G*%
%TO.N,Net-(M8-G)*%
X162260000Y-148780000D03*
D17*
%TO.P,M8,2,D*%
%TO.N,MX8*%
X159720000Y-148780000D03*
%TO.P,M8,3,S*%
%TO.N,18vdc Ret*%
X157180000Y-148780000D03*
%TD*%
D11*
%TO.P,R9,1*%
%TO.N,Net-(LED14-K)*%
X380570000Y-62210000D03*
%TO.P,R9,2*%
%TO.N,LD4*%
X372950000Y-62210000D03*
%TD*%
D20*
%TO.P,D34,1,K*%
%TO.N,Net-(D34-K)*%
X367370000Y-161790000D03*
D21*
%TO.P,D34,2,A*%
%TO.N,MX8*%
X357210000Y-161790000D03*
%TD*%
D11*
%TO.P,R7,1*%
%TO.N,Net-(LED12-K)*%
X245120000Y-173330000D03*
%TO.P,R7,2*%
%TO.N,LD7*%
X245120000Y-180950000D03*
%TD*%
D34*
%TO.P,D32,1,K*%
%TO.N,SW4*%
X106630000Y-108310000D03*
D11*
%TO.P,D32,2,A*%
%TO.N,GND*%
X99010000Y-108310000D03*
%TD*%
D40*
%TO.P,U4,1,BYPASS*%
%TO.N,Net-(U4-BYPASS)*%
X148490000Y-52555000D03*
D11*
%TO.P,U4,2,+*%
%TO.N,GND*%
X151030000Y-52555000D03*
%TO.P,U4,3,GND*%
X153570000Y-52555000D03*
%TO.P,U4,4,GND*%
X156110000Y-52555000D03*
%TO.P,U4,5,GND*%
X158650000Y-52555000D03*
%TO.P,U4,6,-*%
%TO.N,Net-(U4--)*%
X161190000Y-52555000D03*
%TO.P,U4,7,GND*%
%TO.N,GND*%
X163730000Y-52555000D03*
%TO.P,U4,8*%
%TO.N,Net-(C18-Pad1)*%
X163730000Y-44935000D03*
%TO.P,U4,9,NC*%
%TO.N,unconnected-(U4-NC-Pad9)*%
X161190000Y-44935000D03*
%TO.P,U4,10,GND*%
%TO.N,GND*%
X158650000Y-44935000D03*
%TO.P,U4,11,GND*%
X156110000Y-44935000D03*
%TO.P,U4,12,GND*%
X153570000Y-44935000D03*
%TO.P,U4,13,NC*%
%TO.N,unconnected-(U4-NC-Pad13)*%
X151030000Y-44935000D03*
%TO.P,U4,14,VS*%
%TO.N,+18vdc*%
X148490000Y-44935000D03*
%TD*%
D20*
%TO.P,D19,1,K*%
%TO.N,Vled*%
X133480000Y-155870000D03*
D21*
%TO.P,D19,2,A*%
%TO.N,GND*%
X123320000Y-155870000D03*
%TD*%
D22*
%TO.P,LED16,1,K*%
%TO.N,Net-(LED16-K)*%
X306132500Y-50150000D03*
D12*
%TO.P,LED16,2,A*%
%TO.N,Net-(D41-K)*%
X308672500Y-50150000D03*
%TD*%
D11*
%TO.P,C14,1*%
%TO.N,SW_3*%
X94970000Y-103480000D03*
%TO.P,C14,2*%
%TO.N,GND*%
X94970000Y-108480000D03*
%TD*%
D14*
%TO.P,D6,1,K*%
%TO.N,MX1*%
X56620000Y-154250000D03*
D15*
%TO.P,D6,2,A*%
%TO.N,GND*%
X43920000Y-154250000D03*
%TD*%
D41*
%TO.N,+5V*%
X137590000Y-66590000D03*
%TO.N,GND*%
X122470000Y-48790000D03*
X255740000Y-140170000D03*
X326240000Y-102840000D03*
X242210000Y-102840000D03*
X255920000Y-102840000D03*
X354296000Y-102914000D03*
X298160000Y-102840000D03*
X158032100Y-141357100D03*
X270330000Y-102840000D03*
%TO.N,SW_1*%
X86084400Y-183046300D03*
%TO.N,I2C SCL*%
X286440000Y-114400000D03*
D42*
%TO.N,+18vdc*%
X145820000Y-173260000D03*
D43*
X113930000Y-43950000D03*
X100600000Y-204240000D03*
D41*
%TO.N,MX6*%
X187810000Y-56430000D03*
X180030000Y-192760000D03*
%TO.N,MX7*%
X189000000Y-58270000D03*
D43*
X183070000Y-184560000D03*
X179930000Y-220720000D03*
X189704400Y-167410000D03*
D41*
%TO.N,+5V*%
X125730000Y-47710000D03*
X106080000Y-38800000D03*
X93110000Y-66570000D03*
D42*
X106080000Y-60190000D03*
D43*
%TO.N,LD3*%
X157450000Y-201700000D03*
X190110000Y-198510000D03*
D41*
%TO.N,LD4*%
X345096500Y-216087400D03*
%TO.N,LD5*%
X309614400Y-212824300D03*
D43*
%TO.N,LD6*%
X274180000Y-209400000D03*
X156460000Y-213130000D03*
%TO.N,LD7*%
X186080000Y-209020000D03*
X190020000Y-182370000D03*
X155911200Y-209141200D03*
D41*
%TO.N,L7*%
X194970000Y-91160000D03*
X160360000Y-91190000D03*
%TO.N,S4*%
X66760000Y-104920000D03*
%TO.N,L6*%
X193380000Y-89922500D03*
X193370000Y-155970000D03*
X278960000Y-156010000D03*
X157950000Y-89890000D03*
%TO.N,S5*%
X59710000Y-80010000D03*
%TO.N,SD4*%
X61740000Y-94280000D03*
%TO.N,SD5*%
X64968800Y-112649400D03*
%TO.N,M2*%
X84420000Y-118150000D03*
X149810000Y-118160000D03*
%TO.N,M3*%
X152850000Y-127930000D03*
X116370000Y-144330000D03*
%TO.N,M4*%
X138940000Y-165680000D03*
X142240000Y-159200000D03*
%TO.N,M7*%
X168530000Y-103620000D03*
%TO.N,M8*%
X128920000Y-137560000D03*
X129255000Y-78825000D03*
%TO.N,L3*%
X188520000Y-86190000D03*
X147670000Y-86130000D03*
%TO.N,L4*%
X150230000Y-87410000D03*
X355170000Y-156030000D03*
X190147500Y-153010000D03*
X190100000Y-87447500D03*
%TO.N,L5*%
X191755000Y-154330000D03*
X152880000Y-88700000D03*
X312450000Y-154330000D03*
X191750000Y-88685000D03*
%TO.N,I2C SDA*%
X181457200Y-97038200D03*
X280720000Y-114400000D03*
D43*
%TO.N,18vdc Ret*%
X117960000Y-187482100D03*
X119370000Y-146800000D03*
X118775000Y-170675000D03*
D41*
X126950000Y-66440000D03*
D43*
X135940000Y-146800000D03*
D41*
X131000000Y-62300000D03*
%TO.N,SW_3*%
X88582200Y-102645700D03*
%TO.N,a2*%
X145100000Y-91200000D03*
%TO.N,a1*%
X147870000Y-89860000D03*
%TO.N,SW1*%
X110180000Y-82180000D03*
%TO.N,SW2*%
X108730000Y-83019714D03*
%TO.N,SW3*%
X104370000Y-83989857D03*
%TO.N,SW4*%
X106670000Y-85040000D03*
%TO.N,+3V3*%
X180140000Y-93560000D03*
%TO.N,M1*%
X142770000Y-121800000D03*
%TO.N,Net-(M4-G)*%
X137450000Y-176060000D03*
%TD*%
D44*
%TO.N,+5V*%
X94120004Y-37910004D02*
X94870000Y-38660000D01*
X94120004Y-32790000D02*
X94120004Y-37910004D01*
D45*
%TO.N,+22vdc*%
X61450000Y-42560000D02*
X65350000Y-38660000D01*
X57420000Y-42560000D02*
X61450000Y-42560000D01*
D44*
%TO.N,GND*%
X158650000Y-50770000D02*
X158650000Y-52555000D01*
X159260000Y-50130000D02*
X159260000Y-50160000D01*
X162650000Y-50130000D02*
X159260000Y-50130000D01*
X163730000Y-51210000D02*
X162650000Y-50130000D01*
X163730000Y-52555000D02*
X163730000Y-51210000D01*
X159260000Y-50160000D02*
X158650000Y-50770000D01*
D46*
X153570000Y-44935000D02*
X153570000Y-52555000D01*
D44*
X151030000Y-53700000D02*
X151030000Y-52555000D01*
X143860000Y-54800000D02*
X149930000Y-54800000D01*
X149930000Y-54800000D02*
X151030000Y-53700000D01*
D46*
%TO.N,Net-(U4--)*%
X188180000Y-67060000D02*
X190760000Y-67060000D01*
X179690000Y-58570000D02*
X188180000Y-67060000D01*
%TO.N,Net-(C15-Pad1)*%
X179350000Y-62830000D02*
X170880000Y-62830000D01*
X186080000Y-69560000D02*
X179350000Y-62830000D01*
X190760000Y-69560000D02*
X186080000Y-69560000D01*
D44*
%TO.N,+5V*%
X137670000Y-66510000D02*
X137590000Y-66590000D01*
X178630000Y-66510000D02*
X137670000Y-66510000D01*
X216696000Y-82546000D02*
X216000000Y-81850000D01*
X243670000Y-99060000D02*
X219396000Y-99060000D01*
X216696000Y-96360000D02*
X216696000Y-82546000D01*
X193970000Y-81850000D02*
X178630000Y-66510000D01*
X244724000Y-98006000D02*
X243670000Y-99060000D01*
X219396000Y-99060000D02*
X216696000Y-96360000D01*
X216000000Y-81850000D02*
X193970000Y-81850000D01*
X244724000Y-96360000D02*
X244724000Y-98006000D01*
D45*
%TO.N,18vdc Ret*%
X131000000Y-62390000D02*
X126950000Y-66440000D01*
D46*
%TO.N,GND*%
X177730000Y-37060000D02*
X178950000Y-35840000D01*
X178950000Y-35840000D02*
X181060000Y-35840000D01*
X174805000Y-37060000D02*
X177730000Y-37060000D01*
%TO.N,Net-(C19-Pad1)*%
X171710000Y-39610000D02*
X168360000Y-39610000D01*
X174080000Y-41980000D02*
X171710000Y-39610000D01*
X176890000Y-41980000D02*
X174080000Y-41980000D01*
%TO.N,GND*%
X191980000Y-35840000D02*
X181060000Y-35840000D01*
X193430000Y-37290000D02*
X191980000Y-35840000D01*
X206900000Y-37290000D02*
X193430000Y-37290000D01*
%TO.N,Net-(U4--)*%
X161390000Y-53490000D02*
X161390000Y-52755000D01*
X166470000Y-58570000D02*
X161390000Y-53490000D01*
X161390000Y-52755000D02*
X161190000Y-52555000D01*
X179690000Y-58570000D02*
X166470000Y-58570000D01*
%TO.N,GND*%
X117160000Y-49450000D02*
X117790000Y-48820000D01*
X156899200Y-142490000D02*
X158032100Y-141357100D01*
X327340000Y-183710000D02*
X327340000Y-185014200D01*
D44*
X129590000Y-48770000D02*
X129640000Y-48820000D01*
D46*
X251020000Y-184534200D02*
X256514200Y-184534200D01*
X94970000Y-108480000D02*
X98840000Y-108480000D01*
X137850000Y-48820000D02*
X138090000Y-49060000D01*
D44*
X242210000Y-102840000D02*
X255920000Y-102840000D01*
D46*
X333500000Y-184910000D02*
X333395800Y-185014200D01*
X157380000Y-52555000D02*
X157318000Y-52555000D01*
D44*
X278982500Y-69110000D02*
X281522500Y-69110000D01*
D46*
X120380000Y-181270000D02*
X120280000Y-181170000D01*
X98840000Y-108480000D02*
X99010000Y-108310000D01*
X313540000Y-194220000D02*
X278470000Y-194220000D01*
X68720000Y-139908600D02*
X54428600Y-139908600D01*
X65980000Y-49450000D02*
X65350000Y-48820000D01*
X97800000Y-49450000D02*
X95500000Y-49450000D01*
X95500000Y-49450000D02*
X94870000Y-48820000D01*
X255740000Y-140170000D02*
X255720000Y-140190000D01*
X129910000Y-181270000D02*
X120380000Y-181270000D01*
X124210000Y-185560000D02*
X120900000Y-185560000D01*
X149680000Y-167250000D02*
X131110000Y-167250000D01*
X255720000Y-140190000D02*
X220680000Y-140190000D01*
X289335800Y-185150000D02*
X296000000Y-185150000D01*
X44385000Y-48820000D02*
X42210000Y-46645000D01*
X152870000Y-142490000D02*
X156899200Y-142490000D01*
X100100000Y-49450000D02*
X117160000Y-49450000D01*
X94630000Y-132830000D02*
X75798600Y-132830000D01*
D44*
X290950000Y-71610000D02*
X290900000Y-71560000D01*
D46*
X205220000Y-195592100D02*
X157617900Y-195592100D01*
X212420000Y-196630000D02*
X205605800Y-196630000D01*
D44*
X270330000Y-102840000D02*
X298160000Y-102840000D01*
D46*
X251020000Y-183230000D02*
X251020000Y-184534200D01*
D44*
X214156000Y-96360000D02*
X214156000Y-100734000D01*
D46*
X296000000Y-185150000D02*
X327204200Y-185150000D01*
X94790000Y-116250000D02*
X98820000Y-116250000D01*
D44*
X255920000Y-102840000D02*
X270330000Y-102840000D01*
D46*
X94630000Y-132830000D02*
X98590000Y-132830000D01*
D44*
X79850000Y-84060000D02*
X87530000Y-91740000D01*
X80740000Y-74650000D02*
X80740000Y-83010000D01*
X80740000Y-83010000D02*
X79690000Y-84060000D01*
D46*
X156356000Y-52555000D02*
X156110000Y-52555000D01*
X68720000Y-139908600D02*
X68720000Y-141610000D01*
X97800000Y-49450000D02*
X65980000Y-49450000D01*
X257621800Y-185641800D02*
X287932400Y-185641800D01*
X126690000Y-162830000D02*
X68150000Y-162830000D01*
X174805000Y-37060000D02*
X176810000Y-37060000D01*
X117790000Y-48820000D02*
X129640000Y-48820000D01*
X333395800Y-185014200D02*
X327340000Y-185014200D01*
X288880000Y-184694200D02*
X289335800Y-185150000D01*
X172800000Y-37060000D02*
X174805000Y-37060000D01*
X220640000Y-140150000D02*
X159239200Y-140150000D01*
X98680000Y-125030000D02*
X98790000Y-124920000D01*
X98590000Y-132830000D02*
X98730000Y-132690000D01*
X65350000Y-48820000D02*
X44385000Y-48820000D01*
D44*
X84300000Y-73900000D02*
X81490000Y-73900000D01*
D46*
X365730000Y-183600000D02*
X365730000Y-184252100D01*
D44*
X291682500Y-69110000D02*
X291682500Y-70877500D01*
D46*
X170870000Y-124180000D02*
X160570000Y-134480000D01*
X314400000Y-193360000D02*
X313540000Y-194220000D01*
D44*
X291682500Y-70877500D02*
X290950000Y-71610000D01*
D46*
X151030000Y-52555000D02*
X153570000Y-52555000D01*
D44*
X281522500Y-70982500D02*
X281522500Y-69110000D01*
D46*
X205605800Y-196630000D02*
X205220000Y-196244200D01*
D44*
X354296000Y-102914000D02*
X354204000Y-102914000D01*
D46*
X174460000Y-124180000D02*
X170870000Y-124180000D01*
X54428600Y-139908600D02*
X52540000Y-138020000D01*
D44*
X79690000Y-84060000D02*
X76680000Y-84060000D01*
D46*
X334157900Y-184252100D02*
X333500000Y-184910000D01*
D44*
X87530000Y-100130000D02*
X83490000Y-104170000D01*
X129590000Y-45430000D02*
X129590000Y-48770000D01*
X214090000Y-100800000D02*
X216130000Y-102840000D01*
X76680000Y-84060000D02*
X79850000Y-84060000D01*
D46*
X42210000Y-102912500D02*
X34322500Y-102912500D01*
X327204200Y-185150000D02*
X327340000Y-185014200D01*
D44*
X214156000Y-100734000D02*
X214090000Y-100800000D01*
X354204000Y-102914000D02*
X354130000Y-102840000D01*
X276442500Y-69110000D02*
X278982500Y-69110000D01*
D46*
X372380000Y-184800000D02*
X372275800Y-184904200D01*
X97800000Y-49450000D02*
X100100000Y-49450000D01*
X75798600Y-132830000D02*
X68720000Y-139908600D01*
X94570000Y-125030000D02*
X98680000Y-125030000D01*
X365730000Y-184252100D02*
X334157900Y-184252100D01*
X372275800Y-184904200D02*
X365730000Y-184904200D01*
X159239200Y-140150000D02*
X158032100Y-141357100D01*
X157318000Y-52555000D02*
X156356000Y-52555000D01*
X256970000Y-184990000D02*
X257621800Y-185641800D01*
D44*
X290900000Y-71560000D02*
X282100000Y-71560000D01*
D46*
X256514200Y-184534200D02*
X256970000Y-184990000D01*
X98820000Y-116250000D02*
X98980000Y-116090000D01*
D44*
X354130000Y-102840000D02*
X326240000Y-102840000D01*
D46*
X205220000Y-194940000D02*
X205220000Y-195592100D01*
X156356000Y-52555000D02*
X153570000Y-52555000D01*
X121310000Y-195390000D02*
X118390000Y-195390000D01*
D44*
X216130000Y-102840000D02*
X242210000Y-102840000D01*
D46*
X83300000Y-111520000D02*
X86340000Y-108480000D01*
X120900000Y-185560000D02*
X120400000Y-185060000D01*
X220680000Y-140190000D02*
X220640000Y-140150000D01*
D44*
X298160000Y-102840000D02*
X326240000Y-102840000D01*
D46*
X131110000Y-167250000D02*
X126690000Y-162830000D01*
X365730000Y-184252100D02*
X365730000Y-184904200D01*
X288880000Y-183390000D02*
X288880000Y-184694200D01*
X158650000Y-52555000D02*
X157380000Y-52555000D01*
X68150000Y-162830000D02*
X64040000Y-158720000D01*
X205220000Y-195592100D02*
X205220000Y-196244200D01*
X86340000Y-108480000D02*
X94970000Y-108480000D01*
D44*
X282100000Y-71560000D02*
X281522500Y-70982500D01*
D46*
X287932400Y-185641800D02*
X288880000Y-184694200D01*
D44*
X81490000Y-73900000D02*
X80740000Y-74650000D01*
D46*
X129640000Y-48820000D02*
X137850000Y-48820000D01*
X34322500Y-102912500D02*
X30430000Y-99020000D01*
D44*
X87530000Y-91740000D02*
X87530000Y-100130000D01*
D46*
X157617900Y-195592100D02*
X156160000Y-197050000D01*
X176810000Y-37060000D02*
X176890000Y-36980000D01*
%TO.N,SW_1*%
X98580000Y-120520000D02*
X98680000Y-120620000D01*
X92936400Y-120520000D02*
X98580000Y-120520000D01*
X32570000Y-180460000D02*
X35156300Y-183046300D01*
X35156300Y-183046300D02*
X86084400Y-183046300D01*
X94080000Y-120520000D02*
X94570000Y-120030000D01*
X92936400Y-120520000D02*
X94080000Y-120520000D01*
X90590000Y-120520000D02*
X92936400Y-120520000D01*
%TO.N,I2C SCL*%
X285363400Y-116326600D02*
X286440000Y-115250000D01*
X221922100Y-116326600D02*
X285363400Y-116326600D01*
X221922100Y-116326600D02*
X181516600Y-116326600D01*
X181516600Y-116326600D02*
X178950000Y-113760000D01*
X286440000Y-115250000D02*
X286440000Y-114400000D01*
%TO.N,5.6vac com*%
X102040000Y-32790000D02*
X106000000Y-32790000D01*
D47*
%TO.N,+18vdc*%
X132240000Y-204420000D02*
X136390000Y-204420000D01*
D44*
X231381400Y-172858600D02*
X236210000Y-168030000D01*
D45*
X122450000Y-43950000D02*
X113930000Y-43950000D01*
D44*
X147665200Y-173260000D02*
X148066600Y-172858600D01*
D47*
X132240000Y-204420000D02*
X116150000Y-204420000D01*
D45*
X138090000Y-38900000D02*
X132340000Y-38900000D01*
X132340000Y-38900000D02*
X129510000Y-38900000D01*
D44*
X129590000Y-43430000D02*
X129590000Y-38980000D01*
X148066600Y-172858600D02*
X231381400Y-172858600D01*
D47*
X76790000Y-204420000D02*
X72620000Y-204420000D01*
D44*
X145820000Y-173260000D02*
X147665200Y-173260000D01*
D45*
X127500000Y-38900000D02*
X122450000Y-43950000D01*
D44*
X129590000Y-38980000D02*
X129510000Y-38900000D01*
D47*
X76790000Y-204420000D02*
X100470000Y-204420000D01*
X100470000Y-204420000D02*
X111620000Y-204420000D01*
D45*
X129510000Y-38900000D02*
X127500000Y-38900000D01*
D44*
X145841100Y-173238900D02*
X147686300Y-173238900D01*
X113930000Y-43950000D02*
X113880000Y-43950000D01*
D47*
X136390000Y-204420000D02*
X144100000Y-204420000D01*
X111620000Y-204420000D02*
X116150000Y-204420000D01*
D44*
X145820000Y-173260000D02*
X145841100Y-173238900D01*
D45*
%TO.N,MX1*%
X66970000Y-214580000D02*
X62410000Y-210020000D01*
X72620000Y-214580000D02*
X66970000Y-214580000D01*
D46*
%TO.N,MX2*%
X76500000Y-223490000D02*
X80460000Y-223490000D01*
D45*
%TO.N,MX3*%
X108180000Y-223490000D02*
X112140000Y-223490000D01*
%TO.N,MX4*%
X116100000Y-223490000D02*
X120060000Y-223490000D01*
D46*
%TO.N,MX5*%
X132588400Y-168398400D02*
X134470000Y-170280000D01*
X56728400Y-168398400D02*
X132588400Y-168398400D01*
D45*
X132460000Y-223490000D02*
X128500000Y-223490000D01*
D46*
X54470000Y-166140000D02*
X56728400Y-168398400D01*
%TO.N,MX6*%
X157536400Y-179946400D02*
X55116100Y-179946400D01*
D45*
X157720000Y-192760000D02*
X158505000Y-191975000D01*
X157720000Y-192760000D02*
X180030000Y-192760000D01*
X159720000Y-190760000D02*
X159720000Y-189720000D01*
D46*
X221980000Y-56430000D02*
X187810000Y-56430000D01*
X55116100Y-179946400D02*
X53932500Y-181130000D01*
D45*
X158505000Y-191975000D02*
X159720000Y-190760000D01*
X143460000Y-197050000D02*
X143460000Y-193900000D01*
X144600000Y-192760000D02*
X157720000Y-192760000D01*
X143460000Y-193900000D02*
X144600000Y-192760000D01*
D46*
X187770000Y-56470000D02*
X187810000Y-56430000D01*
D45*
X140380000Y-223490000D02*
X136420000Y-223490000D01*
D46*
X159910000Y-182320000D02*
X157536400Y-179946400D01*
%TO.N,MX7*%
X298970000Y-57970700D02*
X298970000Y-56430000D01*
D45*
X188300000Y-178010000D02*
X183070000Y-183240000D01*
D46*
X339557000Y-57997000D02*
X338080000Y-56520000D01*
X259780000Y-56960000D02*
X261233900Y-58413900D01*
D45*
X183070000Y-183240000D02*
X183070000Y-184560000D01*
D46*
X189000000Y-58270000D02*
X189210000Y-58060000D01*
X298970000Y-57970700D02*
X336629300Y-57970700D01*
D45*
X179930000Y-220720000D02*
X147110006Y-220720000D01*
D46*
X189210000Y-58060000D02*
X258680000Y-58060000D01*
X298526800Y-58413900D02*
X298970000Y-57970700D01*
X373183000Y-57997000D02*
X339557000Y-57997000D01*
D45*
X189270000Y-178010000D02*
X188300000Y-178010000D01*
X147110006Y-220720000D02*
X144340006Y-223490000D01*
X189110000Y-167250000D02*
X159680000Y-167250000D01*
D46*
X258680000Y-58060000D02*
X259780000Y-56960000D01*
X261233900Y-58413900D02*
X298526800Y-58413900D01*
X374570000Y-56610000D02*
X373183000Y-57997000D01*
X336629300Y-57970700D02*
X338080000Y-56520000D01*
D45*
%TO.N,MX8*%
X236210000Y-157870000D02*
X182500000Y-157870000D01*
X318220000Y-158060000D02*
X318410000Y-157870000D01*
X303800000Y-161380000D02*
X303800000Y-157930000D01*
X281530000Y-157870000D02*
X303740000Y-157870000D01*
X168730000Y-144480000D02*
X182120000Y-157870000D01*
X242750000Y-161050000D02*
X242750000Y-158160000D01*
X242460000Y-157870000D02*
X281530000Y-157870000D01*
X353290000Y-157870000D02*
X357210000Y-161790000D01*
X318220000Y-161530000D02*
X318220000Y-158060000D01*
D46*
X182500000Y-157870000D02*
X168930000Y-144300000D01*
D45*
X236210000Y-157870000D02*
X242460000Y-157870000D01*
X318410000Y-157870000D02*
X353290000Y-157870000D01*
X281470000Y-161960000D02*
X281470000Y-157930000D01*
X240030000Y-158160000D02*
X239740000Y-157870000D01*
D46*
X281470000Y-162505700D02*
X281470000Y-161960000D01*
D47*
X239570000Y-157870000D02*
X236210000Y-157870000D01*
D45*
X303740000Y-157870000D02*
X318410000Y-157870000D01*
X160570000Y-144480000D02*
X168730000Y-144480000D01*
X303800000Y-157930000D02*
X303740000Y-157870000D01*
X182120000Y-157870000D02*
X182500000Y-157870000D01*
X281470000Y-157930000D02*
X281530000Y-157870000D01*
D44*
%TO.N,+5V*%
X272752000Y-97598000D02*
X271330000Y-99020000D01*
X292490000Y-64680000D02*
X294222500Y-66412500D01*
X328808000Y-98162000D02*
X327780000Y-99190000D01*
X328808000Y-98278000D02*
X328808000Y-96360000D01*
X327780000Y-99190000D02*
X301170000Y-99190000D01*
X300780000Y-98800000D02*
X300780000Y-96360000D01*
X99700000Y-66570000D02*
X106080000Y-60190000D01*
X125330000Y-47310000D02*
X125730000Y-47710000D01*
X356836000Y-99180000D02*
X329710000Y-99180000D01*
X274190000Y-99190000D02*
X272752000Y-97752000D01*
X100100000Y-47450000D02*
X100240000Y-47310000D01*
X301170000Y-99190000D02*
X300780000Y-98800000D01*
X356836000Y-96360000D02*
X356836000Y-99180000D01*
X294222500Y-66412500D02*
X294222500Y-69110000D01*
X300780000Y-96360000D02*
X300780000Y-97400000D01*
X244724000Y-98054000D02*
X244724000Y-96360000D01*
X272752000Y-97752000D02*
X272752000Y-96360000D01*
X328808000Y-96360000D02*
X328808000Y-98162000D01*
X100240000Y-47310000D02*
X125330000Y-47310000D01*
X271330000Y-99020000D02*
X245690000Y-99020000D01*
X298990000Y-99190000D02*
X274190000Y-99190000D01*
X87620000Y-66570000D02*
X99700000Y-66570000D01*
X272752000Y-96360000D02*
X272752000Y-97598000D01*
X245690000Y-99020000D02*
X244724000Y-98054000D01*
X94870000Y-38660000D02*
X105940000Y-38660000D01*
X292490000Y-63940000D02*
X292490000Y-64680000D01*
X84590000Y-66570000D02*
X84300000Y-66280000D01*
X300780000Y-97400000D02*
X298990000Y-99190000D01*
X105940000Y-38660000D02*
X106080000Y-38800000D01*
X329710000Y-99180000D02*
X328808000Y-98278000D01*
X87620000Y-66570000D02*
X84590000Y-66570000D01*
D47*
%TO.N,Vled*%
X271150000Y-194330000D02*
X263502600Y-201977400D01*
X152250000Y-204420000D02*
X148340000Y-204420000D01*
X160130000Y-204420000D02*
X156240000Y-204420000D01*
X165280000Y-204420000D02*
X160130000Y-204420000D01*
X263502600Y-201977400D02*
X167722600Y-201977400D01*
X167722600Y-201977400D02*
X165280000Y-204420000D01*
X152250000Y-204420000D02*
X156240000Y-204420000D01*
D45*
%TO.N,LD3*%
X190110000Y-198510000D02*
X160740000Y-198510000D01*
D46*
X65210000Y-204420000D02*
X70270000Y-209480000D01*
X192920000Y-192200000D02*
X192880000Y-192240000D01*
D45*
X160740000Y-198510000D02*
X157550000Y-201700000D01*
X198250000Y-192200000D02*
X192920000Y-192200000D01*
D46*
X63770000Y-204420000D02*
X65210000Y-204420000D01*
X198450000Y-192400000D02*
X198250000Y-192200000D01*
D45*
X205220000Y-192400000D02*
X198450000Y-192400000D01*
D46*
X49210000Y-193350000D02*
X60060000Y-204200000D01*
X63550000Y-204200000D02*
X63770000Y-204420000D01*
X143240000Y-209480000D02*
X148340000Y-214580000D01*
X70270000Y-209480000D02*
X143240000Y-209480000D01*
D45*
X157550000Y-201700000D02*
X157450000Y-201700000D01*
D46*
X60060000Y-204200000D02*
X63550000Y-204200000D01*
D45*
%TO.N,LD4*%
X343743900Y-217440000D02*
X345096500Y-216087400D01*
X359670000Y-180870000D02*
X364188300Y-180870000D01*
X364188300Y-180870000D02*
X364378300Y-181060000D01*
X365730000Y-181060000D02*
X364378300Y-181060000D01*
X343743900Y-217440000D02*
X162990000Y-217440000D01*
X354880000Y-181090000D02*
X359450000Y-181090000D01*
X162990000Y-217440000D02*
X160130000Y-214580000D01*
D46*
X359450000Y-181090000D02*
X359670000Y-180870000D01*
%TO.N,LD5*%
X327340000Y-181170000D02*
X325988300Y-181170000D01*
D45*
X314400000Y-180660000D02*
X321550000Y-180660000D01*
D46*
X321550000Y-180660000D02*
X322100000Y-181210000D01*
D45*
X307858700Y-214580000D02*
X309614400Y-212824300D01*
X164110000Y-214580000D02*
X307858700Y-214580000D01*
D46*
X325948300Y-181210000D02*
X325988300Y-181170000D01*
D45*
X322100000Y-181210000D02*
X325948300Y-181210000D01*
%TO.N,LD6*%
X278470000Y-181520000D02*
X283110000Y-181520000D01*
X156460000Y-213130000D02*
X157380000Y-212210000D01*
D46*
X283780000Y-180850000D02*
X283680000Y-180950000D01*
D45*
X288880000Y-180850000D02*
X283780000Y-180850000D01*
D46*
X271150000Y-184170000D02*
X275820000Y-184170000D01*
D45*
X271370000Y-212210000D02*
X274180000Y-209400000D01*
D46*
X283110000Y-181520000D02*
X283680000Y-180950000D01*
X275820000Y-184170000D02*
X278470000Y-181520000D01*
D45*
X157380000Y-212210000D02*
X271370000Y-212210000D01*
%TO.N,LD7*%
X251020000Y-180690000D02*
X245380000Y-180690000D01*
D46*
X245380000Y-180690000D02*
X245120000Y-180950000D01*
D45*
X191440000Y-180950000D02*
X245120000Y-180950000D01*
X190020000Y-182370000D02*
X191440000Y-180950000D01*
X186030000Y-209070000D02*
X155982400Y-209070000D01*
D46*
X220710000Y-60980000D02*
X222430000Y-59260000D01*
X257230000Y-59260000D02*
X258860000Y-60890000D01*
X222430000Y-59260000D02*
X257230000Y-59260000D01*
%TO.N,S2*%
X83149000Y-69971000D02*
X57719000Y-69971000D01*
X84300000Y-68820000D02*
X83149000Y-69971000D01*
X57719000Y-69971000D02*
X55460000Y-72230000D01*
%TO.N,S3*%
X72070000Y-61670000D02*
X72070000Y-57630000D01*
X76680000Y-66280000D02*
X72070000Y-61670000D01*
X72070000Y-57630000D02*
X67910000Y-53470000D01*
X67910000Y-53470000D02*
X55000000Y-53470000D01*
%TO.N,L7*%
X160360000Y-91190000D02*
X160390000Y-91160000D01*
X195030000Y-91160000D02*
X195060000Y-91130000D01*
X160390000Y-91160000D02*
X194970000Y-91160000D01*
X194970000Y-91160000D02*
X195030000Y-91160000D01*
%TO.N,S4*%
X59090000Y-104920000D02*
X55370000Y-108640000D01*
X66760000Y-104920000D02*
X59090000Y-104920000D01*
X66780000Y-104900000D02*
X66760000Y-104920000D01*
%TO.N,S6*%
X76680000Y-73900000D02*
X72200000Y-78380000D01*
X72200000Y-78380000D02*
X72200000Y-86300000D01*
X72200000Y-86300000D02*
X59370000Y-86300000D01*
X59370000Y-86300000D02*
X54340000Y-91330000D01*
%TO.N,L6*%
X193390000Y-155990000D02*
X278940000Y-155990000D01*
X157982500Y-89922500D02*
X193380000Y-89922500D01*
X278940000Y-155990000D02*
X278960000Y-156010000D01*
X157950000Y-89890000D02*
X157982500Y-89922500D01*
X193370000Y-155970000D02*
X193390000Y-155990000D01*
%TO.N,S5*%
X68360000Y-71360000D02*
X59710000Y-80010000D01*
X76680000Y-71360000D02*
X68360000Y-71360000D01*
D45*
%TO.N,SD4*%
X61740000Y-94280000D02*
X60791200Y-94280000D01*
X43130000Y-99020000D02*
X47310000Y-99020000D01*
X60721200Y-94350000D02*
X49060000Y-94350000D01*
X60791200Y-94280000D02*
X60721200Y-94350000D01*
X49060000Y-94350000D02*
X47330000Y-96080000D01*
X47330000Y-96080000D02*
X47330000Y-99000000D01*
D46*
X47310000Y-99020000D02*
X47330000Y-99000000D01*
D45*
%TO.N,SD5*%
X63061300Y-114556900D02*
X50363100Y-114556900D01*
X43240000Y-117390000D02*
X47530000Y-117390000D01*
X50363100Y-114556900D02*
X47530000Y-117390000D01*
X64968800Y-112649400D02*
X63061300Y-114556900D01*
D46*
%TO.N,SD2*%
X43330000Y-59500000D02*
X43260000Y-59430000D01*
D45*
X47750000Y-59500000D02*
X43330000Y-59500000D01*
D46*
%TO.N,SD6*%
X43170000Y-79070000D02*
X43150000Y-79050000D01*
X46760000Y-79070000D02*
X43170000Y-79070000D01*
%TO.N,SD3*%
X47250000Y-42570000D02*
X47260000Y-42560000D01*
D45*
X43310000Y-42570000D02*
X47250000Y-42570000D01*
D46*
%TO.N,M2*%
X149800000Y-118150000D02*
X149810000Y-118160000D01*
X84420000Y-118150000D02*
X149800000Y-118150000D01*
%TO.N,M3*%
X152850000Y-128220000D02*
X152850000Y-127930000D01*
X116370000Y-144330000D02*
X116370000Y-144300000D01*
X124070000Y-136600000D02*
X144470000Y-136600000D01*
X144470000Y-136600000D02*
X152850000Y-128220000D01*
X116370000Y-144300000D02*
X124070000Y-136600000D01*
%TO.N,M4*%
X142240000Y-159200000D02*
X138940000Y-162500000D01*
X138940000Y-162500000D02*
X138940000Y-165680000D01*
X138940000Y-165680000D02*
X138940000Y-165700000D01*
%TO.N,M7*%
X168530000Y-102800000D02*
X169860000Y-101470000D01*
X169860000Y-101260000D02*
X173270000Y-97850000D01*
X169860000Y-101470000D02*
X169860000Y-101260000D01*
X168530000Y-103620000D02*
X168530000Y-102800000D01*
X173270000Y-97850000D02*
X173270000Y-96960000D01*
%TO.N,M8*%
X137845000Y-78825000D02*
X142670000Y-74000000D01*
X129255000Y-78825000D02*
X137845000Y-78825000D01*
X148380000Y-142720000D02*
X134080000Y-142720000D01*
X134080000Y-142720000D02*
X128920000Y-137560000D01*
%TO.N,L3*%
X188500000Y-86210000D02*
X188520000Y-86190000D01*
X147670000Y-86130000D02*
X147750000Y-86210000D01*
X147750000Y-86210000D02*
X188500000Y-86210000D01*
%TO.N,L4*%
X150430000Y-87410000D02*
X150467500Y-87447500D01*
X352190000Y-153050000D02*
X355170000Y-156030000D01*
X150290000Y-74000000D02*
X150290000Y-73860000D01*
X190267500Y-153010000D02*
X190307500Y-153050000D01*
X190147500Y-153010000D02*
X190267500Y-153010000D01*
X190307500Y-153050000D02*
X352190000Y-153050000D01*
X150467500Y-87447500D02*
X190100000Y-87447500D01*
X150230000Y-87410000D02*
X150430000Y-87410000D01*
%TO.N,L5*%
X312450000Y-154330000D02*
X191755000Y-154330000D01*
X153145000Y-88685000D02*
X191750000Y-88685000D01*
X152880000Y-88700000D02*
X153130000Y-88700000D01*
X153130000Y-88700000D02*
X153145000Y-88685000D01*
%TO.N,I2C SDA*%
X164321100Y-95748900D02*
X180167900Y-95748900D01*
X280720000Y-114400000D02*
X279740000Y-115380000D01*
X180167900Y-95748900D02*
X181457200Y-97038200D01*
X279750000Y-115370000D02*
X223110200Y-115370000D01*
X223080000Y-115380200D02*
X185340200Y-115380200D01*
X163110000Y-96960000D02*
X164321100Y-95748900D01*
X185340200Y-115380200D02*
X183500000Y-113540000D01*
X279660000Y-115460000D02*
X267560000Y-115460000D01*
X280720000Y-114400000D02*
X279750000Y-115370000D01*
X267560000Y-115460000D02*
X267480000Y-115380000D01*
X279660000Y-115460000D02*
X267545000Y-115460000D01*
X279740000Y-115380000D02*
X279660000Y-115460000D01*
X267545000Y-115460000D02*
X267465000Y-115380000D01*
%TO.N,5.6vac*%
X113920000Y-32790000D02*
X109960000Y-32790000D01*
D45*
%TO.N,18vdc Ret*%
X118775000Y-170675000D02*
X131535000Y-170675000D01*
D47*
X67965900Y-149850000D02*
X70172000Y-147643900D01*
D45*
X131930000Y-170280000D02*
X131320000Y-170890000D01*
X132007500Y-172977500D02*
X140952500Y-172977500D01*
D44*
X130315800Y-189300000D02*
X130305800Y-189310000D01*
D45*
X140952500Y-172977500D02*
X142820000Y-171110000D01*
D44*
X70172000Y-147643900D02*
X70172000Y-147643800D01*
D45*
X131320000Y-170890000D02*
X131320000Y-172290000D01*
X130305800Y-189310000D02*
X119370000Y-189310000D01*
X78824800Y-150484800D02*
X73012900Y-150484800D01*
D47*
X54730000Y-149850000D02*
X67965900Y-149850000D01*
D45*
X119370000Y-146800000D02*
X117970000Y-146800000D01*
X131535000Y-170675000D02*
X131930000Y-170280000D01*
X155200000Y-146800000D02*
X119370000Y-146800000D01*
D44*
X117960000Y-187482100D02*
X109027900Y-187482100D01*
X131000000Y-62300000D02*
X131000000Y-62390000D01*
D45*
X73012900Y-150484800D02*
X70172000Y-147643900D01*
D44*
X70172000Y-147643800D02*
X70195800Y-147620000D01*
X117960000Y-187900000D02*
X117960000Y-187482100D01*
D45*
X142820000Y-171110000D02*
X157150000Y-171110000D01*
X92400000Y-146800000D02*
X86520000Y-152680000D01*
X81020000Y-152680000D02*
X78824800Y-150484800D01*
D44*
X71550000Y-147620000D02*
X70195800Y-147620000D01*
X109027900Y-187482100D02*
X107620000Y-188890000D01*
D45*
X117970000Y-146800000D02*
X92400000Y-146800000D01*
X131320000Y-172290000D02*
X132007500Y-172977500D01*
D44*
X131670000Y-189300000D02*
X130315800Y-189300000D01*
D45*
X157180000Y-148780000D02*
X155200000Y-146800000D01*
X86520000Y-152680000D02*
X81020000Y-152680000D01*
X119370000Y-189310000D02*
X117960000Y-187900000D01*
D47*
X54730000Y-147350000D02*
X54730000Y-149850000D01*
D46*
%TO.N,SW_3*%
X90106500Y-104170000D02*
X88582200Y-102645700D01*
X91110000Y-104170000D02*
X90106500Y-104170000D01*
X94970000Y-103480000D02*
X94280000Y-104170000D01*
X94280000Y-104170000D02*
X91110000Y-104170000D01*
X98980000Y-103930000D02*
X95420000Y-103930000D01*
X95420000Y-103930000D02*
X94970000Y-103480000D01*
%TO.N,SW_0*%
X95070000Y-128270000D02*
X94630000Y-127830000D01*
X94330000Y-128130000D02*
X94630000Y-127830000D01*
X90650000Y-128130000D02*
X94330000Y-128130000D01*
X98680000Y-128270000D02*
X95070000Y-128270000D01*
%TO.N,SW_2*%
X94520000Y-111520000D02*
X94790000Y-111250000D01*
X93861400Y-111520000D02*
X98580000Y-111520000D01*
X98580000Y-111520000D02*
X98980000Y-111920000D01*
X93861400Y-111520000D02*
X94520000Y-111520000D01*
X90920000Y-111520000D02*
X93861400Y-111520000D01*
%TO.N,a2*%
X86520000Y-88360000D02*
X86520000Y-80320000D01*
X89360000Y-91200000D02*
X86520000Y-88360000D01*
X145100000Y-91200000D02*
X89360000Y-91200000D01*
X86520000Y-80320000D02*
X85180000Y-78980000D01*
X85180000Y-78980000D02*
X84300000Y-78980000D01*
%TO.N,a0*%
X84470000Y-71190000D02*
X84300000Y-71360000D01*
X142400000Y-71190000D02*
X84470000Y-71190000D01*
X145210000Y-74000000D02*
X142400000Y-71190000D01*
%TO.N,a1*%
X147870000Y-89860000D02*
X89350000Y-89860000D01*
X87370000Y-77980000D02*
X87320000Y-77980000D01*
X87510000Y-88020000D02*
X87510000Y-78170000D01*
X87320000Y-77980000D02*
X85780000Y-76440000D01*
X89350000Y-89860000D02*
X87510000Y-88020000D01*
X87510000Y-78170000D02*
X87460000Y-78120000D01*
X85780000Y-76440000D02*
X84300000Y-76440000D01*
%TO.N,SCL_0*%
X355210000Y-89140000D02*
X358010000Y-91940000D01*
X271362500Y-75752500D02*
X271362500Y-69110000D01*
X314460000Y-76300000D02*
X315600000Y-76300000D01*
X315600000Y-76300000D02*
X328440000Y-89140000D01*
X328440000Y-89140000D02*
X355210000Y-89140000D01*
X358010000Y-91940000D02*
X358010000Y-94994000D01*
X358010000Y-94994000D02*
X359376000Y-96360000D01*
X314555521Y-76300000D02*
X271910000Y-76300000D01*
X271910000Y-76300000D02*
X271362500Y-75752500D01*
%TO.N,SDA_4*%
X281440000Y-90940000D02*
X281440000Y-90860000D01*
X281440000Y-90860000D02*
X284162500Y-88137500D01*
X284162500Y-88137500D02*
X284162500Y-84470000D01*
X249804000Y-93566000D02*
X252430000Y-90940000D01*
X252430000Y-90940000D02*
X281440000Y-90940000D01*
X249804000Y-96360000D02*
X249804000Y-93566000D01*
%TO.N,SDA_0*%
X273902500Y-69110000D02*
X273902500Y-74422500D01*
X353320000Y-87880000D02*
X328860000Y-87880000D01*
X315990000Y-75100000D02*
X274580000Y-75100000D01*
X317230000Y-76340000D02*
X315990000Y-75100000D01*
X328860000Y-87880000D02*
X317320000Y-76340000D01*
X274580000Y-75100000D02*
X273902500Y-74422500D01*
X360580000Y-95024000D02*
X360580000Y-92020000D01*
X317320000Y-76340000D02*
X317230000Y-76340000D01*
X353330000Y-87890000D02*
X353320000Y-87880000D01*
X361916000Y-96360000D02*
X360580000Y-95024000D01*
X356450000Y-87890000D02*
X353330000Y-87890000D01*
X360580000Y-92020000D02*
X356450000Y-87890000D01*
%TO.N,SDA_1*%
X272143333Y-77520000D02*
X272163333Y-77500000D01*
X333888000Y-96360000D02*
X333700000Y-96360000D01*
X333700000Y-96360000D02*
X316478000Y-79138000D01*
X268822500Y-77012500D02*
X269330000Y-77520000D01*
X314874667Y-77510000D02*
X316458000Y-79093333D01*
X268822500Y-69110000D02*
X268822500Y-77012500D01*
X272163333Y-77500000D02*
X314874667Y-77500000D01*
X269330000Y-77520000D02*
X272143333Y-77520000D01*
%TO.N,SCL_4*%
X281622500Y-86917500D02*
X278930000Y-89610000D01*
X247264000Y-93336000D02*
X247264000Y-96360000D01*
X281622500Y-84470000D02*
X281622500Y-86917500D01*
X250990000Y-89610000D02*
X247264000Y-93336000D01*
X278930000Y-89610000D02*
X250990000Y-89610000D01*
%TO.N,SDA_3*%
X277832000Y-94608000D02*
X277832000Y-96360000D01*
X289242500Y-89027500D02*
X284190000Y-94080000D01*
X289242500Y-84470000D02*
X289242500Y-89027500D01*
X284190000Y-94080000D02*
X278360000Y-94080000D01*
X278360000Y-94080000D02*
X277832000Y-94608000D01*
%TO.N,SCL_3*%
X286702500Y-84470000D02*
X286702500Y-88587500D01*
X277280000Y-92580000D02*
X275292000Y-94568000D01*
X286702500Y-88587500D02*
X282710000Y-92580000D01*
X282710000Y-92580000D02*
X277280000Y-92580000D01*
X275292000Y-94568000D02*
X275292000Y-96360000D01*
%TO.N,SDA_5*%
X221776000Y-91894000D02*
X221776000Y-96360000D01*
X279082500Y-84470000D02*
X279082500Y-85672081D01*
X276414581Y-88340000D02*
X225330000Y-88340000D01*
X279082500Y-85672081D02*
X276414581Y-88340000D01*
X225330000Y-88340000D02*
X221776000Y-91894000D01*
%TO.N,SCL_5*%
X223390000Y-87380000D02*
X219820000Y-90950000D01*
X275690000Y-87380000D02*
X223390000Y-87380000D01*
X275690000Y-85322500D02*
X275690000Y-87380000D01*
X219820000Y-95776000D02*
X219236000Y-96360000D01*
X276542500Y-84470000D02*
X275690000Y-85322500D01*
X219820000Y-90950000D02*
X219820000Y-95776000D01*
%TO.N,To Speaker*%
X140092400Y-36490000D02*
X129500000Y-36490000D01*
X129500000Y-36490000D02*
X125800000Y-32790000D01*
X141672400Y-38070000D02*
X140092400Y-36490000D01*
X142540000Y-38070000D02*
X141672400Y-38070000D01*
%TO.N,Net-(C18-Pad1)*%
X146615600Y-39513200D02*
X158308200Y-39513200D01*
X158308200Y-39513200D02*
X163730000Y-44935000D01*
X146040000Y-38070000D02*
X146040000Y-38937600D01*
X146040000Y-38937600D02*
X146615600Y-39513200D01*
%TO.N,SW1*%
X162990000Y-77030000D02*
X158010000Y-82010000D01*
X158010000Y-82010000D02*
X110350000Y-82010000D01*
X110350000Y-82010000D02*
X110180000Y-82180000D01*
X162990000Y-74000000D02*
X162990000Y-77030000D01*
%TO.N,SW2*%
X165530000Y-74000000D02*
X165530000Y-77010000D01*
X165530000Y-77010000D02*
X159520286Y-83019714D01*
X159520286Y-83019714D02*
X108730000Y-83019714D01*
%TO.N,SW3*%
X161000143Y-83989857D02*
X104370000Y-83989857D01*
X168070000Y-76920000D02*
X161000143Y-83989857D01*
X168070000Y-74000000D02*
X168070000Y-76920000D01*
%TO.N,SW4*%
X106670000Y-85040000D02*
X106600000Y-85110000D01*
X106720000Y-84960000D02*
X106720000Y-84990000D01*
X106720000Y-84990000D02*
X106670000Y-85040000D01*
X170610000Y-76920000D02*
X162570000Y-84960000D01*
X162570000Y-84960000D02*
X106720000Y-84960000D01*
X170610000Y-74000000D02*
X170610000Y-76920000D01*
%TO.N,+3V3*%
X180140000Y-93560000D02*
X180040500Y-93659500D01*
X180040500Y-93659500D02*
X141786500Y-93659500D01*
X183280000Y-121380000D02*
X183500000Y-121160000D01*
X141777000Y-93650000D02*
X139270000Y-93650000D01*
X137810000Y-95110000D02*
X137810000Y-96960000D01*
X139270000Y-93650000D02*
X137810000Y-95110000D01*
X178950000Y-121380000D02*
X183280000Y-121380000D01*
X141786500Y-93659500D02*
X141777000Y-93650000D01*
%TO.N,M1*%
X142545000Y-121885000D02*
X70585000Y-121885000D01*
X64090000Y-128380000D02*
X64090000Y-130060000D01*
X70585000Y-121885000D02*
X64090000Y-128380000D01*
%TO.N,Net-(L3-G)*%
X205220000Y-189860000D02*
X206571700Y-189860000D01*
X207421700Y-189010000D02*
X206571700Y-189860000D01*
X212420000Y-189010000D02*
X207421700Y-189010000D01*
%TO.N,Net-(L4-G)*%
X355307900Y-177867900D02*
X355160000Y-177720000D01*
X372344200Y-177215800D02*
X372380000Y-177180000D01*
X365730000Y-178520000D02*
X365730000Y-177867900D01*
X365730000Y-177215800D02*
X372344200Y-177215800D01*
X365730000Y-177867900D02*
X365730000Y-177215800D01*
X365730000Y-177867900D02*
X355307900Y-177867900D01*
%TO.N,Net-(L5-G)*%
X327340000Y-178630000D02*
X327340000Y-177325800D01*
X327375800Y-177290000D02*
X327340000Y-177325800D01*
X327340000Y-178630000D02*
X318940000Y-178630000D01*
X333500000Y-177290000D02*
X327375800Y-177290000D01*
X318940000Y-178630000D02*
X318070000Y-177760000D01*
%TO.N,Net-(L6-G)*%
X291011700Y-177530000D02*
X290231700Y-178310000D01*
X296000000Y-177530000D02*
X291011700Y-177530000D01*
X288880000Y-178310000D02*
X287528300Y-178310000D01*
X288880000Y-178310000D02*
X290231700Y-178310000D01*
X287528300Y-178310000D02*
X286468300Y-177250000D01*
X286468300Y-177250000D02*
X278960000Y-177250000D01*
%TO.N,Net-(L7-G)*%
X251020000Y-178150000D02*
X249668300Y-178150000D01*
X248978300Y-177460000D02*
X249668300Y-178150000D01*
X256970000Y-177370000D02*
X253151700Y-177370000D01*
X251020000Y-178150000D02*
X252371700Y-178150000D01*
X253151700Y-177370000D02*
X252371700Y-178150000D01*
X240920000Y-177460000D02*
X248978300Y-177460000D01*
%TO.N,Net-(M1-G)*%
X64090000Y-137680000D02*
X60500000Y-137680000D01*
X60500000Y-137680000D02*
X60160000Y-138020000D01*
%TO.N,Net-(M2-G)*%
X76350000Y-141620000D02*
X76340000Y-141610000D01*
X81790000Y-141620000D02*
X76350000Y-141620000D01*
%TO.N,Net-(M3-G)*%
X110730000Y-183010000D02*
X105190000Y-183010000D01*
X112780000Y-185060000D02*
X110730000Y-183010000D01*
%TO.N,Net-(M4-G)*%
X137450000Y-176060000D02*
X137690000Y-176300000D01*
X137690000Y-176300000D02*
X141950000Y-176300000D01*
%TO.N,Net-(M5-G)*%
X136830000Y-162830000D02*
X136890000Y-162890000D01*
X134310000Y-162830000D02*
X136830000Y-162830000D01*
%TO.N,Net-(M6-G)*%
X161780000Y-185400000D02*
X162210000Y-185830000D01*
X154350000Y-185400000D02*
X161780000Y-185400000D01*
%TO.N,Net-(M7-G)*%
X159800000Y-163340000D02*
X162240000Y-163340000D01*
%TO.N,Net-(M8-G)*%
X160700000Y-150340000D02*
X162260000Y-148780000D01*
X148380000Y-150340000D02*
X150510000Y-150340000D01*
X150510000Y-150340000D02*
X152640000Y-150340000D01*
X152640000Y-150340000D02*
X152870000Y-150110000D01*
X150510000Y-150340000D02*
X160700000Y-150340000D01*
%TO.N,Net-(S2-G)*%
X37990000Y-72050000D02*
X47660000Y-72050000D01*
X47660000Y-72050000D02*
X47840000Y-72230000D01*
%TO.N,Net-(S3-G)*%
X37640000Y-52710000D02*
X46620000Y-52710000D01*
X46620000Y-52710000D02*
X47380000Y-53470000D01*
%TO.N,Net-(S4-G)*%
X38540000Y-108580000D02*
X47690000Y-108580000D01*
X47690000Y-108580000D02*
X47750000Y-108640000D01*
%TO.N,Net-(S5-G)*%
X47170000Y-127430000D02*
X38190000Y-127430000D01*
X38190000Y-127430000D02*
X37690000Y-126930000D01*
%TO.N,Net-(S6-G)*%
X38710000Y-90040000D02*
X46660000Y-90040000D01*
X46660000Y-90040000D02*
X47230000Y-90610000D01*
%TO.N,Net-(D27-K)*%
X44310000Y-166140000D02*
X39264200Y-166140000D01*
X37170000Y-165710000D02*
X38834200Y-165710000D01*
X39264200Y-166140000D02*
X38834200Y-165710000D01*
%TO.N,Net-(D28-K)*%
X37170000Y-180460000D02*
X43102500Y-180460000D01*
X43102500Y-180460000D02*
X43772500Y-181130000D01*
%TO.N,Net-(J4-EN_{slash}_RESET)*%
X179680000Y-74000000D02*
X179760000Y-74080000D01*
X179760000Y-74170000D02*
X173320000Y-74170000D01*
X173320000Y-74170000D02*
X173150000Y-74000000D01*
%TO.N,SDA_2*%
X295180000Y-87570000D02*
X303950000Y-87570000D01*
X304890000Y-88510000D02*
X304890000Y-95390000D01*
X294322500Y-86712500D02*
X295180000Y-87570000D01*
X304890000Y-95390000D02*
X305860000Y-96360000D01*
X294322500Y-84470000D02*
X294322500Y-86712500D01*
X303950000Y-87570000D02*
X304890000Y-88510000D01*
%TO.N,SCL_2*%
X291782500Y-87462500D02*
X293560000Y-89240000D01*
X301270000Y-89240000D02*
X301270000Y-94310000D01*
X293560000Y-89240000D02*
X301270000Y-89240000D01*
X301270000Y-94310000D02*
X303320000Y-96360000D01*
X291782500Y-84470000D02*
X291782500Y-87462500D01*
%TO.N,SCL_1*%
X331348000Y-96360000D02*
X313688000Y-78700000D01*
X266282500Y-78132500D02*
X266282500Y-69110000D01*
X266850000Y-78700000D02*
X266282500Y-78132500D01*
X313688000Y-78700000D02*
X266850000Y-78700000D01*
%TO.N,Net-(U2-Reset)*%
X284870000Y-68302500D02*
X284062500Y-69110000D01*
X284870000Y-63940000D02*
X284870000Y-68302500D01*
%TO.N,Net-(LED12-K)*%
X248188300Y-170261700D02*
X248188300Y-169760000D01*
X245120000Y-173330000D02*
X248188300Y-170261700D01*
X249440000Y-169760000D02*
X248188300Y-169760000D01*
%TO.N,Net-(r16-K)*%
X196935000Y-184560000D02*
X192940000Y-184560000D01*
X192940000Y-184560000D02*
X192880000Y-184620000D01*
%TO.N,Net-(J10-GPIO1)*%
X168190000Y-96960000D02*
X168260400Y-97030400D01*
%TO.N,Net-(LED13-K)*%
X75030000Y-92660000D02*
X76160000Y-93790000D01*
X69640000Y-92660000D02*
X75030000Y-92660000D01*
X68790000Y-91120000D02*
X68790000Y-91810000D01*
X76160000Y-93790000D02*
X85470000Y-93790000D01*
X68790000Y-91810000D02*
X69640000Y-92660000D01*
%TO.N,Net-(LED21-K)*%
X76040000Y-99400000D02*
X74270000Y-101170000D01*
X69360000Y-101170000D02*
X68790000Y-100600000D01*
X68790000Y-100600000D02*
X68790000Y-98590000D01*
X68790000Y-98590000D02*
X68330000Y-99050000D01*
X74270000Y-101170000D02*
X69360000Y-101170000D01*
X85350000Y-99400000D02*
X76040000Y-99400000D01*
%TD*%
D48*
X16145000Y-29790000D02*
X403385000Y-29790000D01*
X403385000Y-232080000D01*
X16145000Y-232080000D01*
X16145000Y-29790000D01*
M02*
