%TF.GenerationSoftware,KiCad,Pcbnew,9.0.5*%
%TF.CreationDate,2025-11-19T11:55:31-06:00*%
%TF.ProjectId,ESP32Vroom,45535033-3256-4726-9f6f-6d2e6b696361,rev?*%
%TF.SameCoordinates,Original*%
%TF.FileFunction,Copper,L2,Bot*%
%TF.FilePolarity,Positive*%
%FSLAX46Y46*%
G04 Gerber Fmt 4.6, Leading zero omitted, Abs format (unit mm)*
G04 Created by KiCad (PCBNEW 9.0.5) date 2025-11-19 11:55:31*
%MOMM*%
%LPD*%
G01*
G04 APERTURE LIST*
G04 Aperture macros list*
%AMRoundRect*
0 Rectangle with rounded corners*
0 $1 Rounding radius*
0 $2 $3 $4 $5 $6 $7 $8 $9 X,Y pos of 4 corners*
0 Add a 4 corners polygon primitive as box body*
4,1,4,$2,$3,$4,$5,$6,$7,$8,$9,$2,$3,0*
0 Add four circle primitives for the rounded corners*
1,1,$1+$1,$2,$3*
1,1,$1+$1,$4,$5*
1,1,$1+$1,$6,$7*
1,1,$1+$1,$8,$9*
0 Add four rect primitives between the rounded corners*
20,1,$1+$1,$2,$3,$4,$5,0*
20,1,$1+$1,$4,$5,$6,$7,0*
20,1,$1+$1,$6,$7,$8,$9,0*
20,1,$1+$1,$8,$9,$2,$3,0*%
G04 Aperture macros list end*
%TA.AperFunction,ComponentPad*%
%ADD10RoundRect,0.250001X0.949999X0.949999X-0.949999X0.949999X-0.949999X-0.949999X0.949999X-0.949999X0*%
%TD*%
%TA.AperFunction,ComponentPad*%
%ADD11C,2.400000*%
%TD*%
%TA.AperFunction,ComponentPad*%
%ADD12C,1.600000*%
%TD*%
%TA.AperFunction,ComponentPad*%
%ADD13R,1.905000X2.000000*%
%TD*%
%TA.AperFunction,ComponentPad*%
%ADD14O,1.905000X2.000000*%
%TD*%
%TA.AperFunction,ComponentPad*%
%ADD15R,1.700000X1.700000*%
%TD*%
%TA.AperFunction,ComponentPad*%
%ADD16C,1.700000*%
%TD*%
%TA.AperFunction,ComponentPad*%
%ADD17RoundRect,0.249999X0.850001X0.850001X-0.850001X0.850001X-0.850001X-0.850001X0.850001X-0.850001X0*%
%TD*%
%TA.AperFunction,ComponentPad*%
%ADD18C,2.200000*%
%TD*%
%TA.AperFunction,ComponentPad*%
%ADD19R,1.800000X1.800000*%
%TD*%
%TA.AperFunction,ComponentPad*%
%ADD20C,1.800000*%
%TD*%
%TA.AperFunction,ComponentPad*%
%ADD21RoundRect,0.249999X-0.850001X-0.850001X0.850001X-0.850001X0.850001X0.850001X-0.850001X0.850001X0*%
%TD*%
%TA.AperFunction,ComponentPad*%
%ADD22RoundRect,0.249999X-0.850001X0.850001X-0.850001X-0.850001X0.850001X-0.850001X0.850001X0.850001X0*%
%TD*%
%TA.AperFunction,ComponentPad*%
%ADD23C,3.500000*%
%TD*%
%TA.AperFunction,ComponentPad*%
%ADD24C,3.540000*%
%TD*%
%TA.AperFunction,ComponentPad*%
%ADD25RoundRect,0.249999X0.850001X-0.850001X0.850001X0.850001X-0.850001X0.850001X-0.850001X-0.850001X0*%
%TD*%
%TA.AperFunction,ComponentPad*%
%ADD26RoundRect,0.250001X-0.949999X-0.949999X0.949999X-0.949999X0.949999X0.949999X-0.949999X0.949999X0*%
%TD*%
%TA.AperFunction,ComponentPad*%
%ADD27R,2.000000X1.905000*%
%TD*%
%TA.AperFunction,ComponentPad*%
%ADD28O,2.000000X1.905000*%
%TD*%
%TA.AperFunction,ComponentPad*%
%ADD29C,2.260600*%
%TD*%
%TA.AperFunction,ComponentPad*%
%ADD30C,1.400000*%
%TD*%
%TA.AperFunction,ComponentPad*%
%ADD31RoundRect,0.250001X-0.949999X0.949999X-0.949999X-0.949999X0.949999X-0.949999X0.949999X0.949999X0*%
%TD*%
%TA.AperFunction,ComponentPad*%
%ADD32RoundRect,0.250000X-0.550000X0.550000X-0.550000X-0.550000X0.550000X-0.550000X0.550000X0.550000X0*%
%TD*%
%TA.AperFunction,ComponentPad*%
%ADD33RoundRect,0.250000X0.550000X0.550000X-0.550000X0.550000X-0.550000X-0.550000X0.550000X-0.550000X0*%
%TD*%
%TA.AperFunction,ComponentPad*%
%ADD34RoundRect,0.250001X0.949999X-0.949999X0.949999X0.949999X-0.949999X0.949999X-0.949999X-0.949999X0*%
%TD*%
%TA.AperFunction,ComponentPad*%
%ADD35R,2.625000X2.625000*%
%TD*%
%TA.AperFunction,ComponentPad*%
%ADD36C,2.625000*%
%TD*%
%TA.AperFunction,ComponentPad*%
%ADD37RoundRect,0.250000X-0.950000X-0.550000X0.950000X-0.550000X0.950000X0.550000X-0.950000X0.550000X0*%
%TD*%
%TA.AperFunction,ComponentPad*%
%ADD38O,2.400000X1.600000*%
%TD*%
%TA.AperFunction,ComponentPad*%
%ADD39RoundRect,0.250000X0.550000X-0.550000X0.550000X0.550000X-0.550000X0.550000X-0.550000X-0.550000X0*%
%TD*%
%TA.AperFunction,ViaPad*%
%ADD40C,0.600000*%
%TD*%
%TA.AperFunction,ViaPad*%
%ADD41C,0.800000*%
%TD*%
%TA.AperFunction,ViaPad*%
%ADD42C,2.500000*%
%TD*%
%TA.AperFunction,Conductor*%
%ADD43C,0.300000*%
%TD*%
%TA.AperFunction,Conductor*%
%ADD44C,0.400000*%
%TD*%
%TA.AperFunction,Conductor*%
%ADD45C,2.000000*%
%TD*%
%TA.AperFunction,Conductor*%
%ADD46C,1.000000*%
%TD*%
G04 APERTURE END LIST*
D10*
%TO.P,D2,1,K*%
%TO.N,SD5*%
X43240000Y-117390000D03*
D11*
%TO.P,D2,2,A*%
%TO.N,GND*%
X30540000Y-117390000D03*
%TD*%
D12*
%TO.P,R70,1*%
%TO.N,Net-(M1-G)*%
X60160000Y-138020000D03*
%TO.P,R70,2*%
%TO.N,GND*%
X52540000Y-138020000D03*
%TD*%
%TO.P,C7,1*%
%TO.N,MX6*%
X159910000Y-182320000D03*
%TO.P,C7,2*%
%TO.N,GND*%
X169910000Y-182320000D03*
%TD*%
D10*
%TO.P,D1,1,K*%
%TO.N,SD6*%
X43150000Y-79050000D03*
D11*
%TO.P,D1,2,A*%
%TO.N,GND*%
X30450000Y-79050000D03*
%TD*%
D13*
%TO.P,M6,1,G*%
%TO.N,Net-(M6-G)*%
X162260000Y-189720000D03*
D14*
%TO.P,M6,2,D*%
%TO.N,MX6*%
X159720000Y-189720000D03*
%TO.P,M6,3,S*%
%TO.N,18vdc Ret*%
X157180000Y-189720000D03*
%TD*%
D12*
%TO.P,R61,1*%
%TO.N,SW_3*%
X98980000Y-103930000D03*
%TO.P,R61,2*%
%TO.N,SW4*%
X106600000Y-103930000D03*
%TD*%
%TO.P,R96,1*%
%TO.N,Net-(L3-G)*%
X212420000Y-189010000D03*
%TO.P,R96,2*%
%TO.N,GND*%
X212420000Y-196630000D03*
%TD*%
D15*
%TO.P,J4,1,Vin*%
%TO.N,+5V*%
X137590000Y-74000000D03*
D16*
%TO.P,J4,2,GND*%
%TO.N,GND*%
X140130000Y-74000000D03*
%TO.P,J4,3,GPIO13*%
%TO.N,M8*%
X142670000Y-74000000D03*
%TO.P,J4,4,GPIO12*%
%TO.N,a0*%
X145210000Y-74000000D03*
%TO.P,J4,5,GPIO14*%
%TO.N,L3*%
X147750000Y-74000000D03*
%TO.P,J4,6,GPIO27*%
%TO.N,L4*%
X150290000Y-74000000D03*
%TO.P,J4,7,GPIO26*%
%TO.N,L5*%
X152830000Y-74000000D03*
%TO.P,J4,8,GPIO25*%
%TO.N,Audio*%
X155370000Y-74000000D03*
%TO.P,J4,9,GPIO33*%
%TO.N,L6*%
X157910000Y-74000000D03*
%TO.P,J4,10,GPIO32*%
%TO.N,L7*%
X160450000Y-74000000D03*
%TO.P,J4,11,GPIO35*%
%TO.N,SW1*%
X162990000Y-74000000D03*
%TO.P,J4,12,GPIO34*%
%TO.N,SW2*%
X165530000Y-74000000D03*
%TO.P,J4,13,GPIO39*%
%TO.N,SW3*%
X168070000Y-74000000D03*
%TO.P,J4,14,GPIO36*%
%TO.N,SW4*%
X170610000Y-74000000D03*
%TO.P,J4,15,EN_/_RESET*%
%TO.N,Net-(J4-EN_{slash}_RESET)*%
X173150000Y-74000000D03*
%TD*%
D17*
%TO.P,D37,1,K*%
%TO.N,Net-(D37-K)*%
X252910000Y-161050000D03*
D18*
%TO.P,D37,2,A*%
%TO.N,MX8*%
X242750000Y-161050000D03*
%TD*%
D12*
%TO.P,R14,1*%
%TO.N,Net-(LED19-K)*%
X41590000Y-193350000D03*
%TO.P,R14,2*%
%TO.N,LD3*%
X49210000Y-193350000D03*
%TD*%
D10*
%TO.P,D3,1,K*%
%TO.N,SD4*%
X43130000Y-99020000D03*
D11*
%TO.P,D3,2,A*%
%TO.N,GND*%
X30430000Y-99020000D03*
%TD*%
D12*
%TO.P,R13,1*%
%TO.N,Net-(LED18-K)*%
X228330000Y-60980000D03*
%TO.P,R13,2*%
%TO.N,LD7*%
X220710000Y-60980000D03*
%TD*%
D10*
%TO.P,D9,1,K*%
%TO.N,MX4*%
X134010000Y-195390000D03*
D11*
%TO.P,D9,2,A*%
%TO.N,GND*%
X121310000Y-195390000D03*
%TD*%
D12*
%TO.P,R80,1*%
%TO.N,Net-(M6-G)*%
X162210000Y-185830000D03*
%TO.P,R80,2*%
%TO.N,GND*%
X169830000Y-185830000D03*
%TD*%
D15*
%TO.P,J10,16,VDD_3V3*%
%TO.N,+3V3*%
X137810000Y-96960000D03*
D16*
%TO.P,J10,17,GND*%
%TO.N,GND*%
X140250000Y-96960000D03*
%TO.P,J10,18,GPIO15*%
%TO.N,M1*%
X142790000Y-96960000D03*
%TO.P,J10,19,GPIO2*%
%TO.N,a2*%
X145330000Y-96960000D03*
%TO.P,J10,20,GPIO4*%
%TO.N,a1*%
X147870000Y-96960000D03*
%TO.P,J10,21,GPIO16*%
%TO.N,M2*%
X150410000Y-96960000D03*
%TO.P,J10,22,GPIO17*%
%TO.N,M3*%
X152950000Y-96960000D03*
%TO.P,J10,23,GPIO5*%
%TO.N,M4*%
X155490000Y-96960000D03*
%TO.P,J10,24,GPIO18*%
%TO.N,M5*%
X158030000Y-96960000D03*
%TO.P,J10,25,GPIO19*%
%TO.N,M6*%
X160570000Y-96960000D03*
%TO.P,J10,26,I2C_SDA*%
%TO.N,I2C SDA*%
X163110000Y-96960000D03*
%TO.P,J10,27,GPIO3*%
%TO.N,Net-(J10-GPIO3)*%
X165650000Y-96960000D03*
%TO.P,J10,28,GPIO1*%
%TO.N,Net-(J10-GPIO1)*%
X168190000Y-96960000D03*
%TO.P,J10,29,I2C-SCL*%
%TO.N,I2C SCL*%
X170730000Y-96960000D03*
%TO.P,J10,30,GPIO23*%
%TO.N,M7*%
X173270000Y-96960000D03*
%TD*%
D19*
%TO.P,LED14,1,K*%
%TO.N,Net-(LED14-K)*%
X381085000Y-50390000D03*
D20*
%TO.P,LED14,2,A*%
%TO.N,Net-(D39-K)*%
X383625000Y-50390000D03*
%TD*%
D21*
%TO.P,D44,1,K*%
%TO.N,Net-(D44-K)*%
X52250000Y-210020000D03*
D18*
%TO.P,D44,2,A*%
%TO.N,MX1*%
X62410000Y-210020000D03*
%TD*%
D17*
%TO.P,D35,1,K*%
%TO.N,Net-(D35-K)*%
X328380000Y-161530000D03*
D18*
%TO.P,D35,2,A*%
%TO.N,MX8*%
X318220000Y-161530000D03*
%TD*%
D12*
%TO.P,C3,1*%
%TO.N,MX2*%
X74040000Y-158720000D03*
%TO.P,C3,2*%
%TO.N,GND*%
X64040000Y-158720000D03*
%TD*%
D15*
%TO.P,U2,1,Vcc*%
%TO.N,+5V*%
X294222500Y-69110000D03*
D16*
%TO.P,U2,2,Gnd*%
%TO.N,GND*%
X291682500Y-69110000D03*
%TO.P,U2,3,SDA_IN*%
%TO.N,I2C SCL*%
X289142500Y-69110000D03*
%TO.P,U2,4,SCL_IN*%
%TO.N,I2C SDA*%
X286602500Y-69110000D03*
%TO.P,U2,5,Reset*%
%TO.N,Net-(U2-Reset)*%
X284062500Y-69110000D03*
%TO.P,U2,6,A0*%
%TO.N,GND*%
X281522500Y-69110000D03*
%TO.P,U2,7,A1*%
X278982500Y-69110000D03*
%TO.P,U2,8,A2*%
X276442500Y-69110000D03*
%TO.P,U2,9,SDA0*%
%TO.N,SDA_0*%
X273902500Y-69110000D03*
%TO.P,U2,10,SCL0*%
%TO.N,SCL_0*%
X271362500Y-69110000D03*
%TO.P,U2,11,SDA1*%
%TO.N,SDA_1*%
X268822500Y-69110000D03*
%TO.P,U2,12,SCL1*%
%TO.N,SCL_1*%
X266282500Y-69110000D03*
D15*
%TO.P,U2,13,SDA2*%
%TO.N,SDA_2*%
X294322500Y-84470000D03*
D16*
%TO.P,U2,14,SCL2*%
%TO.N,SCL_2*%
X291782500Y-84470000D03*
%TO.P,U2,15,SDA3*%
%TO.N,SDA_3*%
X289242500Y-84470000D03*
%TO.P,U2,16,SCL3*%
%TO.N,SCL_3*%
X286702500Y-84470000D03*
%TO.P,U2,17,SDA4*%
%TO.N,SDA_4*%
X284162500Y-84470000D03*
%TO.P,U2,18,SCL4*%
%TO.N,SCL_4*%
X281622500Y-84470000D03*
%TO.P,U2,19,SDA5*%
%TO.N,SDA_5*%
X279082500Y-84470000D03*
%TO.P,U2,20,SCL5*%
%TO.N,SCL_5*%
X276542500Y-84470000D03*
%TO.P,U2,21,SDA6*%
%TO.N,unconnected-(U2-SDA6-Pad21)*%
X274002500Y-84470000D03*
%TO.P,U2,22,SCL6*%
%TO.N,unconnected-(U2-SCL6-Pad22)*%
X271462500Y-84470000D03*
%TO.P,U2,23,SDA7*%
%TO.N,unconnected-(U2-SDA7-Pad23)*%
X268922500Y-84470000D03*
%TO.P,U2,24,SCL7*%
%TO.N,unconnected-(U2-SCL7-Pad24)*%
X266382500Y-84470000D03*
%TD*%
D12*
%TO.P,C11,1*%
%TO.N,SW_0*%
X94630000Y-127830000D03*
%TO.P,C11,2*%
%TO.N,GND*%
X94630000Y-132830000D03*
%TD*%
D22*
%TO.P,D51,1,K*%
%TO.N,+18vdc*%
X144100000Y-204420000D03*
D18*
%TO.P,D51,2,A*%
%TO.N,MX7*%
X144100000Y-214580000D03*
%TD*%
D19*
%TO.P,LED15,1,K*%
%TO.N,Net-(LED15-K)*%
X344936300Y-50150000D03*
D20*
%TO.P,LED15,2,A*%
%TO.N,Net-(D40-K)*%
X347476300Y-50150000D03*
%TD*%
D12*
%TO.P,C19,1*%
%TO.N,Net-(C19-Pad1)*%
X176890000Y-41980000D03*
%TO.P,C19,2*%
%TO.N,GND*%
X176890000Y-36980000D03*
%TD*%
%TO.P,C6,1*%
%TO.N,MX5*%
X134420000Y-165980000D03*
%TO.P,C6,2*%
%TO.N,GND*%
X124420000Y-165980000D03*
%TD*%
%TO.P,R83,1*%
%TO.N,Net-(M8-G)*%
X148380000Y-150340000D03*
%TO.P,R83,2*%
%TO.N,M8*%
X148380000Y-142720000D03*
%TD*%
D17*
%TO.P,D41,1,K*%
%TO.N,Net-(D41-K)*%
X309130000Y-56430000D03*
D18*
%TO.P,D41,2,A*%
%TO.N,MX7*%
X298970000Y-56430000D03*
%TD*%
D15*
%TO.P,U9,1,GND*%
%TO.N,GND*%
X326268000Y-96360000D03*
D16*
%TO.P,U9,2,VCC*%
%TO.N,+5V*%
X328808000Y-96360000D03*
%TO.P,U9,3,SLC*%
%TO.N,SCL_1*%
X331348000Y-96360000D03*
%TO.P,U9,4,SDA*%
%TO.N,SDA_1*%
X333888000Y-96360000D03*
D23*
%TO.P,U9,5*%
%TO.N,N/C*%
X341678000Y-96430000D03*
%TO.P,U9,6*%
X318628000Y-96430000D03*
%TO.P,U9,7*%
X318628000Y-119480000D03*
D24*
%TO.P,U9,8*%
X341678000Y-119480000D03*
%TD*%
D25*
%TO.P,D52,1,K*%
%TO.N,+18vdc*%
X236210000Y-168030000D03*
D18*
%TO.P,D52,2,A*%
%TO.N,MX8*%
X236210000Y-157870000D03*
%TD*%
D12*
%TO.P,R84,1*%
%TO.N,Net-(M8-G)*%
X152870000Y-150110000D03*
%TO.P,R84,2*%
%TO.N,GND*%
X152870000Y-142490000D03*
%TD*%
%TO.P,C9,1*%
%TO.N,MX8*%
X160570000Y-144480000D03*
%TO.P,C9,2*%
%TO.N,GND*%
X160570000Y-134480000D03*
%TD*%
%TO.P,R85,1*%
%TO.N,Net-(S2-G)*%
X47840000Y-72230000D03*
%TO.P,R85,2*%
%TO.N,S2*%
X55460000Y-72230000D03*
%TD*%
%TO.P,R64,1*%
%TO.N,GND*%
X83300000Y-111520000D03*
%TO.P,R64,2*%
%TO.N,SW_2*%
X90920000Y-111520000D03*
%TD*%
D15*
%TO.P,U7,1,GND*%
%TO.N,GND*%
X270200000Y-96340000D03*
D16*
%TO.P,U7,2,VCC*%
%TO.N,+5V*%
X272740000Y-96340000D03*
%TO.P,U7,3,SLC*%
%TO.N,SCL_3*%
X275280000Y-96340000D03*
%TO.P,U7,4,SDA*%
%TO.N,SDA_3*%
X277820000Y-96340000D03*
D23*
%TO.P,U7,5*%
%TO.N,N/C*%
X285610000Y-96410000D03*
%TO.P,U7,6*%
X262560000Y-96410000D03*
%TO.P,U7,7*%
X262560000Y-119460000D03*
D24*
%TO.P,U7,8*%
X285610000Y-119460000D03*
%TD*%
D26*
%TO.P,D8,1,K*%
%TO.N,MX3*%
X105690000Y-195390000D03*
D11*
%TO.P,D8,2,A*%
%TO.N,GND*%
X118390000Y-195390000D03*
%TD*%
D27*
%TO.P,L4,1,G*%
%TO.N,Net-(L4-G)*%
X365730000Y-178520000D03*
D28*
%TO.P,L4,2,D*%
%TO.N,LD4*%
X365730000Y-181060000D03*
%TO.P,L4,3,S*%
%TO.N,GND*%
X365730000Y-183600000D03*
%TD*%
D22*
%TO.P,D60,1,K*%
%TO.N,Vled*%
X148340000Y-204420000D03*
D18*
%TO.P,D60,2,A*%
%TO.N,LD3*%
X148340000Y-214580000D03*
%TD*%
D12*
%TO.P,C13,1*%
%TO.N,SW_2*%
X94790000Y-111250000D03*
%TO.P,C13,2*%
%TO.N,GND*%
X94790000Y-116250000D03*
%TD*%
D13*
%TO.P,S2,1,G*%
%TO.N,Net-(S2-G)*%
X47290000Y-65507500D03*
D14*
%TO.P,S2,2,D*%
%TO.N,SD2*%
X44750000Y-65507500D03*
%TO.P,S2,3,S*%
%TO.N,GND*%
X42210000Y-65507500D03*
%TD*%
D13*
%TO.P,M2,1,G*%
%TO.N,Net-(M2-G)*%
X76630000Y-147620000D03*
D14*
%TO.P,M2,2,D*%
%TO.N,MX2*%
X74090000Y-147620000D03*
%TO.P,M2,3,S*%
%TO.N,18vdc Ret*%
X71550000Y-147620000D03*
%TD*%
D15*
%TO.P,U8,1,GND*%
%TO.N,GND*%
X298240000Y-96360000D03*
D16*
%TO.P,U8,2,VCC*%
%TO.N,+5V*%
X300780000Y-96360000D03*
%TO.P,U8,3,SLC*%
%TO.N,SCL_2*%
X303320000Y-96360000D03*
%TO.P,U8,4,SDA*%
%TO.N,SDA_2*%
X305860000Y-96360000D03*
D23*
%TO.P,U8,5*%
%TO.N,N/C*%
X313650000Y-96430000D03*
%TO.P,U8,6*%
X290600000Y-96430000D03*
%TO.P,U8,7*%
X290600000Y-119480000D03*
D24*
%TO.P,U8,8*%
X313650000Y-119480000D03*
%TD*%
D29*
%TO.P,J12,1,Pin_1*%
%TO.N,+18vdc*%
X137680000Y-32790000D03*
%TO.P,J12,2,Pin_2*%
%TO.N,18vdc Ret*%
X133720001Y-32790000D03*
%TO.P,J12,3,Pin_3*%
%TO.N,Vled Ret*%
X129880000Y-32790000D03*
%TO.P,J12,4,Pin_4*%
%TO.N,To Speaker*%
X125800001Y-32790000D03*
%TO.P,J12,5,Pin_5*%
%TO.N,GND*%
X121840002Y-32790000D03*
%TO.P,J12,6,Pin_6*%
%TO.N,Vled*%
X117880002Y-32790000D03*
%TO.P,J12,7,Pin_7*%
%TO.N,5.6vac*%
X113920002Y-32790000D03*
%TO.P,J12,8,Pin_8*%
X109960003Y-32790000D03*
%TO.P,J12,9,Pin_9*%
%TO.N,5.6vac com*%
X106000003Y-32790000D03*
%TO.P,J12,10,Pin_10*%
X102040003Y-32790000D03*
%TO.P,J12,11,Pin_11*%
%TO.N,unconnected-(J12-Pin_11-Pad11)*%
X98130000Y-32790000D03*
%TO.P,J12,12,Pin_12*%
%TO.N,+5V*%
X94120004Y-32790000D03*
%TO.P,J12,13,Pin_13*%
%TO.N,SW_1*%
X90160004Y-32790000D03*
%TO.P,J12,14,Pin_14*%
%TO.N,Net-(D53-K)*%
X85680000Y-32790000D03*
%TO.P,J12,15,Pin_15*%
%TO.N,Net-(D55-K)*%
X81720000Y-32790000D03*
%TO.P,J12,16,Pin_16*%
%TO.N,SD5*%
X77760001Y-32790000D03*
%TO.P,J12,17,Pin_17*%
%TO.N,SD4*%
X73800001Y-32790000D03*
%TO.P,J12,18,Pin_18*%
%TO.N,SD7*%
X69830000Y-32790000D03*
%TO.P,J12,19,Pin_19*%
%TO.N,+22vdc*%
X65880002Y-32790000D03*
%TO.P,J12,20,Pin_20*%
%TO.N,SD6*%
X61920002Y-32790000D03*
%TO.P,J12,21,Pin_21*%
%TO.N,SD2*%
X57960002Y-32790000D03*
%TO.P,J12,23,Pin_23*%
%TO.N,SD3*%
X54000002Y-32790000D03*
%TD*%
D19*
%TO.P,LED21,1,K*%
%TO.N,Net-(LED21-K)*%
X68680000Y-98870000D03*
D20*
%TO.P,LED21,2,A*%
%TO.N,Net-(LED21-A)*%
X71220000Y-98870000D03*
%TD*%
D19*
%TO.P,LED9,1,K*%
%TO.N,Net-(LED9-K)*%
X364165000Y-169760000D03*
D20*
%TO.P,LED9,2,A*%
%TO.N,Net-(D34-K)*%
X366705000Y-169760000D03*
%TD*%
D22*
%TO.P,D22,1,K*%
%TO.N,+5V*%
X94870000Y-38660000D03*
D18*
%TO.P,D22,2,A*%
%TO.N,GND*%
X94870000Y-48820000D03*
%TD*%
D10*
%TO.P,D7,1,K*%
%TO.N,MX2*%
X76320000Y-154170000D03*
D11*
%TO.P,D7,2,A*%
%TO.N,GND*%
X63620000Y-154170000D03*
%TD*%
D13*
%TO.P,M7,1,G*%
%TO.N,Net-(M7-G)*%
X162230000Y-171110000D03*
D14*
%TO.P,M7,2,D*%
%TO.N,MX7*%
X159690000Y-171110000D03*
%TO.P,M7,3,S*%
%TO.N,18vdc Ret*%
X157150000Y-171110000D03*
%TD*%
D17*
%TO.P,D39,1,K*%
%TO.N,Net-(D39-K)*%
X384730000Y-56610000D03*
D18*
%TO.P,D39,2,A*%
%TO.N,MX7*%
X374570000Y-56610000D03*
%TD*%
D12*
%TO.P,R15,1*%
%TO.N,Net-(LED7-A)*%
X97360000Y-170890000D03*
%TO.P,R15,2*%
%TO.N,5.6vac com*%
X89740000Y-170890000D03*
%TD*%
D22*
%TO.P,D61,1,K*%
%TO.N,Vled*%
X160130000Y-204420000D03*
D18*
%TO.P,D61,2,A*%
%TO.N,LD4*%
X160130000Y-214580000D03*
%TD*%
D12*
%TO.P,R92,1*%
%TO.N,Net-(S5-G)*%
X37690000Y-126930000D03*
%TO.P,R92,2*%
%TO.N,GND*%
X30070000Y-126930000D03*
%TD*%
D19*
%TO.P,LED19,1,K*%
%TO.N,Net-(LED19-K)*%
X41725000Y-199520000D03*
D20*
%TO.P,LED19,2,A*%
%TO.N,Net-(D44-K)*%
X44265000Y-199520000D03*
%TD*%
D17*
%TO.P,D40,1,K*%
%TO.N,Net-(D40-K)*%
X348240000Y-56520000D03*
D18*
%TO.P,D40,2,A*%
%TO.N,MX7*%
X338080000Y-56520000D03*
%TD*%
D17*
%TO.P,D42,1,K*%
%TO.N,Net-(D42-K)*%
X269940000Y-56960000D03*
D18*
%TO.P,D42,2,A*%
%TO.N,MX7*%
X259780000Y-56960000D03*
%TD*%
D17*
%TO.P,D36,1,K*%
%TO.N,Net-(D36-K)*%
X291630000Y-161960000D03*
D18*
%TO.P,D36,2,A*%
%TO.N,MX8*%
X281470000Y-161960000D03*
%TD*%
D12*
%TO.P,C2,1*%
%TO.N,MX1*%
X57470000Y-142500000D03*
%TO.P,C2,2*%
%TO.N,GND*%
X47470000Y-142500000D03*
%TD*%
%TO.P,C16,1*%
%TO.N,+18vdc*%
X192700000Y-46560000D03*
%TO.P,C16,2*%
%TO.N,GND*%
X192700000Y-36560000D03*
%TD*%
D30*
%TO.P,R21,1*%
%TO.N,+5V*%
X87620000Y-66570000D03*
%TO.P,R21,2*%
%TO.N,Net-(U1-~{SRCLR})*%
X87620000Y-74190000D03*
%TD*%
D12*
%TO.P,R66,1*%
%TO.N,+3V3*%
X178950000Y-121380000D03*
%TO.P,R66,2*%
%TO.N,I2C SCL*%
X178950000Y-113760000D03*
%TD*%
D22*
%TO.P,D62,1,K*%
%TO.N,Vled*%
X164110000Y-204420000D03*
D18*
%TO.P,D62,2,A*%
%TO.N,LD5*%
X164110000Y-214580000D03*
%TD*%
D22*
%TO.P,D48,1,K*%
%TO.N,+18vdc*%
X116150000Y-204420000D03*
D18*
%TO.P,D48,2,A*%
%TO.N,MX4*%
X116150000Y-214580000D03*
%TD*%
D27*
%TO.P,L7,1,G*%
%TO.N,Net-(L7-G)*%
X251020000Y-178150000D03*
D28*
%TO.P,L7,2,D*%
%TO.N,LD7*%
X251020000Y-180690000D03*
%TO.P,L7,3,S*%
%TO.N,GND*%
X251020000Y-183230000D03*
%TD*%
D12*
%TO.P,R103,1*%
%TO.N,Net-(L7-G)*%
X240920000Y-177460000D03*
%TO.P,R103,2*%
%TO.N,L7*%
X233300000Y-177460000D03*
%TD*%
D22*
%TO.P,D45,1,K*%
%TO.N,+18vdc*%
X72620000Y-204420000D03*
D18*
%TO.P,D45,2,A*%
%TO.N,MX1*%
X72620000Y-214580000D03*
%TD*%
D22*
%TO.P,D50,1,K*%
%TO.N,+18vdc*%
X136390000Y-204420000D03*
D18*
%TO.P,D50,2,A*%
%TO.N,MX6*%
X136390000Y-214580000D03*
%TD*%
D12*
%TO.P,R1,1*%
%TO.N,Net-(C15-Pad1)*%
X156610000Y-34110000D03*
%TO.P,R1,2*%
%TO.N,Net-(U4--)*%
X148990000Y-34110000D03*
%TD*%
D22*
%TO.P,D20,1,K*%
%TO.N,+18vdc*%
X138090000Y-38900000D03*
D18*
%TO.P,D20,2,A*%
%TO.N,GND*%
X138090000Y-49060000D03*
%TD*%
D31*
%TO.P,D13,1,K*%
%TO.N,MX8*%
X303800000Y-161380000D03*
D11*
%TO.P,D13,2,A*%
%TO.N,GND*%
X303800000Y-174080000D03*
%TD*%
D15*
%TO.P,U5,1,GND*%
%TO.N,GND*%
X214130000Y-96400000D03*
D16*
%TO.P,U5,2,VCC*%
%TO.N,+5V*%
X216670000Y-96400000D03*
%TO.P,U5,3,SLC*%
%TO.N,SCL_5*%
X219210000Y-96400000D03*
%TO.P,U5,4,SDA*%
%TO.N,SDA_5*%
X221750000Y-96400000D03*
D23*
%TO.P,U5,5*%
%TO.N,N/C*%
X229540000Y-96470000D03*
%TO.P,U5,6*%
X206490000Y-96470000D03*
%TO.P,U5,7*%
X206490000Y-119520000D03*
D24*
%TO.P,U5,8*%
X229540000Y-119520000D03*
%TD*%
D12*
%TO.P,R74,1*%
%TO.N,Net-(M3-G)*%
X112780000Y-185060000D03*
%TO.P,R74,2*%
%TO.N,GND*%
X120400000Y-185060000D03*
%TD*%
D32*
%TO.P,D53,1,K*%
%TO.N,Net-(D53-K)*%
X85930000Y-48180000D03*
D12*
%TO.P,D53,2,A*%
%TO.N,MX1*%
X85930000Y-55800000D03*
%TD*%
D19*
%TO.P,LED17,1,K*%
%TO.N,Net-(LED17-K)*%
X267328800Y-50150000D03*
D20*
%TO.P,LED17,2,A*%
%TO.N,Net-(D42-K)*%
X269868800Y-50150000D03*
%TD*%
D12*
%TO.P,R71,1*%
%TO.N,Net-(M2-G)*%
X81790000Y-141620000D03*
%TO.P,R71,2*%
%TO.N,M2*%
X81790000Y-149240000D03*
%TD*%
D33*
%TO.P,D29,1,K*%
%TO.N,SW1*%
X106350000Y-132690000D03*
D12*
%TO.P,D29,2,A*%
%TO.N,GND*%
X98730000Y-132690000D03*
%TD*%
D26*
%TO.P,D11,1,K*%
%TO.N,MX6*%
X143460000Y-197050000D03*
D11*
%TO.P,D11,2,A*%
%TO.N,GND*%
X156160000Y-197050000D03*
%TD*%
D27*
%TO.P,L3,1,G*%
%TO.N,Net-(L3-G)*%
X205220000Y-189860000D03*
D28*
%TO.P,L3,2,D*%
%TO.N,LD3*%
X205220000Y-192400000D03*
%TO.P,L3,3,S*%
%TO.N,GND*%
X205220000Y-194940000D03*
%TD*%
D12*
%TO.P,C1,1*%
%TO.N,+3V3*%
X184460000Y-124180000D03*
%TO.P,C1,2*%
%TO.N,GND*%
X174460000Y-124180000D03*
%TD*%
D34*
%TO.P,D18,1,K*%
%TO.N,LD7*%
X206900000Y-49990000D03*
D11*
%TO.P,D18,2,A*%
%TO.N,GND*%
X206900000Y-37290000D03*
%TD*%
D12*
%TO.P,R67,1*%
%TO.N,+3V3*%
X183500000Y-121160000D03*
%TO.P,R67,2*%
%TO.N,I2C SDA*%
X183500000Y-113540000D03*
%TD*%
D22*
%TO.P,D46,1,K*%
%TO.N,+18vdc*%
X76790000Y-204420000D03*
D18*
%TO.P,D46,2,A*%
%TO.N,MX2*%
X76790000Y-214580000D03*
%TD*%
D12*
%TO.P,R63,1*%
%TO.N,GND*%
X82970000Y-120520000D03*
%TO.P,R63,2*%
%TO.N,SW_1*%
X90590000Y-120520000D03*
%TD*%
%TO.P,R72,1*%
%TO.N,Net-(M2-G)*%
X76340000Y-141610000D03*
%TO.P,R72,2*%
%TO.N,GND*%
X68720000Y-141610000D03*
%TD*%
%TO.P,R76,1*%
%TO.N,Net-(M4-G)*%
X137530000Y-181270000D03*
%TO.P,R76,2*%
%TO.N,GND*%
X129910000Y-181270000D03*
%TD*%
D13*
%TO.P,M4,1,G*%
%TO.N,Net-(M4-G)*%
X136750000Y-189300000D03*
D14*
%TO.P,M4,2,D*%
%TO.N,MX4*%
X134210000Y-189300000D03*
%TO.P,M4,3,S*%
%TO.N,18vdc Ret*%
X131670000Y-189300000D03*
%TD*%
D12*
%TO.P,R6,1*%
%TO.N,Net-(LED11-K)*%
X283680000Y-173330000D03*
%TO.P,R6,2*%
%TO.N,LD6*%
X283680000Y-180950000D03*
%TD*%
D32*
%TO.P,D55,1,K*%
%TO.N,Net-(D55-K)*%
X81790000Y-48140000D03*
D12*
%TO.P,D55,2,A*%
%TO.N,MX2*%
X81790000Y-55760000D03*
%TD*%
%TO.P,R62,1*%
%TO.N,GND*%
X83030000Y-128130000D03*
%TO.P,R62,2*%
%TO.N,SW_0*%
X90650000Y-128130000D03*
%TD*%
%TO.P,C12,1*%
%TO.N,SW_1*%
X94570000Y-120030000D03*
%TO.P,C12,2*%
%TO.N,GND*%
X94570000Y-125030000D03*
%TD*%
D17*
%TO.P,D56,1,K*%
%TO.N,+22vdc*%
X57420000Y-42560000D03*
D18*
%TO.P,D56,2,A*%
%TO.N,SD3*%
X47260000Y-42560000D03*
%TD*%
D22*
%TO.P,D47,1,K*%
%TO.N,+18vdc*%
X111620000Y-204420000D03*
D18*
%TO.P,D47,2,A*%
%TO.N,MX3*%
X111620000Y-214580000D03*
%TD*%
D15*
%TO.P,U6,1,GND*%
%TO.N,GND*%
X242184000Y-96360000D03*
D16*
%TO.P,U6,2,VCC*%
%TO.N,+5V*%
X244724000Y-96360000D03*
%TO.P,U6,3,SLC*%
%TO.N,SCL_4*%
X247264000Y-96360000D03*
%TO.P,U6,4,SDA*%
%TO.N,SDA_4*%
X249804000Y-96360000D03*
D23*
%TO.P,U6,5*%
%TO.N,N/C*%
X257594000Y-96430000D03*
%TO.P,U6,6*%
X234544000Y-96430000D03*
%TO.P,U6,7*%
X234544000Y-119480000D03*
D24*
%TO.P,U6,8*%
X257594000Y-119480000D03*
%TD*%
D31*
%TO.P,D15,1,K*%
%TO.N,LD4*%
X354880000Y-181090000D03*
D11*
%TO.P,D15,2,A*%
%TO.N,GND*%
X354880000Y-193790000D03*
%TD*%
%TO.P,R68,1*%
%TO.N,Net-(C18-Pad1)*%
X201880000Y-52110000D03*
%TO.P,R68,2*%
%TO.N,Net-(C19-Pad1)*%
X176480000Y-52110000D03*
%TD*%
D35*
%TO.P,SW1,1,A*%
%TO.N,Net-(D27-K)*%
X37170000Y-165710000D03*
D36*
%TO.P,SW1,2,B*%
%TO.N,SW_1*%
X32570000Y-165710000D03*
%TD*%
D33*
%TO.P,D30,1,K*%
%TO.N,SW2*%
X106410000Y-124920000D03*
D12*
%TO.P,D30,2,A*%
%TO.N,GND*%
X98790000Y-124920000D03*
%TD*%
%TO.P,R91,1*%
%TO.N,Net-(S5-G)*%
X47170000Y-127430000D03*
%TO.P,R91,2*%
%TO.N,S5*%
X54790000Y-127430000D03*
%TD*%
%TO.P,C5,1*%
%TO.N,MX4*%
X134210000Y-185560000D03*
%TO.P,C5,2*%
%TO.N,GND*%
X124210000Y-185560000D03*
%TD*%
%TO.P,R97,1*%
%TO.N,Net-(L4-G)*%
X355160000Y-177720000D03*
%TO.P,R97,2*%
%TO.N,L4*%
X355160000Y-170100000D03*
%TD*%
D22*
%TO.P,D64,1,K*%
%TO.N,Vled*%
X152250000Y-204420000D03*
D18*
%TO.P,D64,2,A*%
%TO.N,LD7*%
X152250000Y-214580000D03*
%TD*%
D12*
%TO.P,R104,1*%
%TO.N,Net-(L7-G)*%
X256970000Y-177370000D03*
%TO.P,R104,2*%
%TO.N,GND*%
X256970000Y-184990000D03*
%TD*%
D21*
%TO.P,D27,1,K*%
%TO.N,Net-(D27-K)*%
X44310000Y-166140000D03*
D18*
%TO.P,D27,2,A*%
%TO.N,MX5*%
X54470000Y-166140000D03*
%TD*%
D12*
%TO.P,R88,1*%
%TO.N,Net-(S3-G)*%
X37640000Y-52710000D03*
%TO.P,R88,2*%
%TO.N,GND*%
X30020000Y-52710000D03*
%TD*%
%TO.P,R11,1*%
%TO.N,Net-(LED16-K)*%
X306470000Y-61240000D03*
%TO.P,R11,2*%
%TO.N,LD6*%
X298850000Y-61240000D03*
%TD*%
%TO.P,R77,1*%
%TO.N,Net-(M5-G)*%
X136890000Y-162890000D03*
%TO.P,R77,2*%
%TO.N,M5*%
X144510000Y-162890000D03*
%TD*%
%TO.P,R98,1*%
%TO.N,Net-(L4-G)*%
X372380000Y-177180000D03*
%TO.P,R98,2*%
%TO.N,GND*%
X372380000Y-184800000D03*
%TD*%
D19*
%TO.P,r16,1,K*%
%TO.N,Net-(r16-K)*%
X196935000Y-184560000D03*
D20*
%TO.P,r16,2,A*%
%TO.N,Net-(D38-K)*%
X199475000Y-184560000D03*
%TD*%
D12*
%TO.P,R87,1*%
%TO.N,Net-(S3-G)*%
X47380000Y-53470000D03*
%TO.P,R87,2*%
%TO.N,S3*%
X55000000Y-53470000D03*
%TD*%
%TO.P,R69,1*%
%TO.N,Net-(M1-G)*%
X64090000Y-137680000D03*
%TO.P,R69,2*%
%TO.N,M1*%
X64090000Y-130060000D03*
%TD*%
D19*
%TO.P,LED13,1,K*%
%TO.N,Net-(LED13-K)*%
X68790000Y-91120000D03*
D20*
%TO.P,LED13,2,A*%
%TO.N,Net-(LED13-A)*%
X71330000Y-91120000D03*
%TD*%
D13*
%TO.P,S4,1,G*%
%TO.N,Net-(S4-G)*%
X47290000Y-102912500D03*
D14*
%TO.P,S4,2,D*%
%TO.N,SD4*%
X44750000Y-102912500D03*
%TO.P,S4,3,S*%
%TO.N,GND*%
X42210000Y-102912500D03*
%TD*%
D12*
%TO.P,R100,1*%
%TO.N,Net-(L5-G)*%
X333500000Y-177290000D03*
%TO.P,R100,2*%
%TO.N,GND*%
X333500000Y-184910000D03*
%TD*%
%TO.P,R82,1*%
%TO.N,Net-(M7-G)*%
X159800000Y-163340000D03*
%TO.P,R82,2*%
%TO.N,GND*%
X152180000Y-163340000D03*
%TD*%
D21*
%TO.P,D28,1,K*%
%TO.N,Net-(D28-K)*%
X43772500Y-181130000D03*
D18*
%TO.P,D28,2,A*%
%TO.N,MX6*%
X53932500Y-181130000D03*
%TD*%
D19*
%TO.P,LED10,1,K*%
%TO.N,Net-(LED10-K)*%
X325923300Y-169760000D03*
D20*
%TO.P,LED10,2,A*%
%TO.N,Net-(D35-K)*%
X328463300Y-169760000D03*
%TD*%
D12*
%TO.P,C15,1*%
%TO.N,Net-(C15-Pad1)*%
X167540000Y-49570000D03*
%TO.P,C15,2*%
%TO.N,Audio*%
X170040000Y-49570000D03*
%TD*%
D13*
%TO.P,S3,1,G*%
%TO.N,Net-(S3-G)*%
X47290000Y-46645000D03*
D14*
%TO.P,S3,2,D*%
%TO.N,SD3*%
X44750000Y-46645000D03*
%TO.P,S3,3,S*%
%TO.N,GND*%
X42210000Y-46645000D03*
%TD*%
D13*
%TO.P,M3,1,G*%
%TO.N,Net-(M3-G)*%
X112700000Y-188890000D03*
D14*
%TO.P,M3,2,D*%
%TO.N,MX3*%
X110160000Y-188890000D03*
%TO.P,M3,3,S*%
%TO.N,18vdc Ret*%
X107620000Y-188890000D03*
%TD*%
D12*
%TO.P,R86,1*%
%TO.N,Net-(S2-G)*%
X37990000Y-72050000D03*
%TO.P,R86,2*%
%TO.N,GND*%
X30370000Y-72050000D03*
%TD*%
%TO.P,R4,1*%
%TO.N,Net-(LED9-K)*%
X359670000Y-173250000D03*
%TO.P,R4,2*%
%TO.N,LD4*%
X359670000Y-180870000D03*
%TD*%
D29*
%TO.P,JD2,1,Pin_1*%
%TO.N,MX1*%
X72540008Y-223490000D03*
%TO.P,JD2,2,Pin_2*%
%TO.N,MX2*%
X76500007Y-223490000D03*
%TO.P,JD2,3,Pin_3*%
X80460007Y-223490000D03*
%TO.P,JD2,4,Pin_4*%
%TO.N,SW_3*%
X84420007Y-223490000D03*
%TO.P,JD2,5,Pin_5*%
%TO.N,SW_2*%
X88380006Y-223490000D03*
%TO.P,JD2,6,Pin_6*%
%TO.N,SW_1*%
X92340006Y-223490000D03*
%TO.P,JD2,7,Pin_7*%
%TO.N,SW_0*%
X96300006Y-223490000D03*
%TO.P,JD2,8,Pin_8*%
%TO.N,unconnected-(JD2-Pin_8-Pad8)*%
X100260005Y-223490000D03*
%TO.P,JD2,9,Pin_9*%
%TO.N,unconnected-(JD2-Pin_9-Pad9)*%
X104220005Y-223490000D03*
%TO.P,JD2,10,Pin_10*%
%TO.N,MX3*%
X108180005Y-223490000D03*
%TO.P,JD2,11,Pin_11*%
X112140005Y-223490000D03*
%TO.P,JD2,12,Pin_12*%
%TO.N,MX4*%
X116100004Y-223490000D03*
%TO.P,JD2,13,Pin_13*%
X120060004Y-223490000D03*
%TO.P,JD2,14,Pin_14*%
%TO.N,unconnected-(JD2-Pin_14-Pad14)*%
X124560000Y-223490000D03*
%TO.P,JD2,15,Pin_15*%
%TO.N,MX5*%
X128500008Y-223490000D03*
%TO.P,JD2,16,Pin_16*%
X132460007Y-223490000D03*
%TO.P,JD2,17,Pin_17*%
%TO.N,MX6*%
X136420007Y-223490000D03*
%TO.P,JD2,18,Pin_18*%
X140380007Y-223490000D03*
%TO.P,JD2,19,Pin_19*%
%TO.N,MX7*%
X144340006Y-223490000D03*
%TO.P,JD2,20,Pin_20*%
%TO.N,LD3*%
X148300006Y-223490000D03*
%TO.P,JD2,21,Pin_21*%
%TO.N,LD7*%
X152260006Y-223490000D03*
%TO.P,JD2,22,Pin_22*%
%TO.N,LD6*%
X156220006Y-223490000D03*
%TO.P,JD2,23,Pin_23*%
%TO.N,LD4*%
X160200001Y-223490000D03*
%TO.P,JD2,24,Pin_24*%
%TO.N,LD5*%
X164160000Y-223490000D03*
%TD*%
D12*
%TO.P,R81,1*%
%TO.N,Net-(M7-G)*%
X162240000Y-163340000D03*
%TO.P,R81,2*%
%TO.N,M7*%
X169860000Y-163340000D03*
%TD*%
D22*
%TO.P,D49,1,K*%
%TO.N,+18vdc*%
X132240000Y-204420000D03*
D18*
%TO.P,D49,2,A*%
%TO.N,MX5*%
X132240000Y-214580000D03*
%TD*%
D13*
%TO.P,S6,1,G*%
%TO.N,Net-(S6-G)*%
X47290000Y-84210000D03*
D14*
%TO.P,S6,2,D*%
%TO.N,SD6*%
X44750000Y-84210000D03*
%TO.P,S6,3,S*%
%TO.N,GND*%
X42210000Y-84210000D03*
%TD*%
D10*
%TO.P,D5,1,K*%
%TO.N,SD2*%
X43260000Y-59430000D03*
D11*
%TO.P,D5,2,A*%
%TO.N,GND*%
X30560000Y-59430000D03*
%TD*%
D17*
%TO.P,D43,1,K*%
%TO.N,Net-(D43-K)*%
X232140000Y-56430000D03*
D18*
%TO.P,D43,2,A*%
%TO.N,MX6*%
X221980000Y-56430000D03*
%TD*%
D17*
%TO.P,D59,1,K*%
%TO.N,+22vdc*%
X56920000Y-79070000D03*
D18*
%TO.P,D59,2,A*%
%TO.N,SD6*%
X46760000Y-79070000D03*
%TD*%
D12*
%TO.P,R94,1*%
%TO.N,Net-(S6-G)*%
X38710000Y-90040000D03*
%TO.P,R94,2*%
%TO.N,GND*%
X31090000Y-90040000D03*
%TD*%
D19*
%TO.P,LED12,1,K*%
%TO.N,Net-(LED12-K)*%
X249440000Y-169760000D03*
D20*
%TO.P,LED12,2,A*%
%TO.N,Net-(D37-K)*%
X251980000Y-169760000D03*
%TD*%
D31*
%TO.P,D14,1,K*%
%TO.N,LD3*%
X198250000Y-192200000D03*
D11*
%TO.P,D14,2,A*%
%TO.N,GND*%
X198250000Y-204900000D03*
%TD*%
D17*
%TO.P,D54,1,K*%
%TO.N,+22vdc*%
X57910000Y-59500000D03*
D18*
%TO.P,D54,2,A*%
%TO.N,SD2*%
X47750000Y-59500000D03*
%TD*%
D12*
%TO.P,R20,1*%
%TO.N,Net-(LED21-K)*%
X85350000Y-99400000D03*
%TO.P,R20,2*%
%TO.N,+5V*%
X92970000Y-99400000D03*
%TD*%
%TO.P,R65,1*%
%TO.N,GND*%
X83490000Y-104170000D03*
%TO.P,R65,2*%
%TO.N,SW_3*%
X91110000Y-104170000D03*
%TD*%
D17*
%TO.P,D38,1,K*%
%TO.N,Net-(D38-K)*%
X199430000Y-178010000D03*
D18*
%TO.P,D38,2,A*%
%TO.N,MX7*%
X189270000Y-178010000D03*
%TD*%
D31*
%TO.P,D17,1,K*%
%TO.N,LD6*%
X278470000Y-181520000D03*
D11*
%TO.P,D17,2,A*%
%TO.N,GND*%
X278470000Y-194220000D03*
%TD*%
D17*
%TO.P,D57,1,K*%
%TO.N,+22vdc*%
X57490000Y-99000000D03*
D18*
%TO.P,D57,2,A*%
%TO.N,SD4*%
X47330000Y-99000000D03*
%TD*%
D19*
%TO.P,LED18,1,K*%
%TO.N,Net-(LED18-K)*%
X228525000Y-50150000D03*
D20*
%TO.P,LED18,2,A*%
%TO.N,Net-(D43-K)*%
X231065000Y-50150000D03*
%TD*%
D27*
%TO.P,L5,1,G*%
%TO.N,Net-(L5-G)*%
X327340000Y-178630000D03*
D28*
%TO.P,L5,2,D*%
%TO.N,LD5*%
X327340000Y-181170000D03*
%TO.P,L5,3,S*%
%TO.N,GND*%
X327340000Y-183710000D03*
%TD*%
D17*
%TO.P,D58,1,K*%
%TO.N,+22vdc*%
X57690000Y-117390000D03*
D18*
%TO.P,D58,2,A*%
%TO.N,SD5*%
X47530000Y-117390000D03*
%TD*%
D12*
%TO.P,R60,1*%
%TO.N,SW_2*%
X98980000Y-111920000D03*
%TO.P,R60,2*%
%TO.N,SW3*%
X106600000Y-111920000D03*
%TD*%
%TO.P,R93,1*%
%TO.N,Net-(S6-G)*%
X47230000Y-90610000D03*
%TO.P,R93,2*%
%TO.N,S6*%
X54850000Y-90610000D03*
%TD*%
D35*
%TO.P,SW2,1,A*%
%TO.N,Net-(D28-K)*%
X37170000Y-180460000D03*
D36*
%TO.P,SW2,2,B*%
%TO.N,SW_1*%
X32570000Y-180460000D03*
%TD*%
D10*
%TO.P,D10,1,K*%
%TO.N,MX5*%
X134110000Y-175930000D03*
D11*
%TO.P,D10,2,A*%
%TO.N,GND*%
X121410000Y-175930000D03*
%TD*%
D12*
%TO.P,R102,1*%
%TO.N,Net-(L6-G)*%
X296000000Y-177530000D03*
%TO.P,R102,2*%
%TO.N,GND*%
X296000000Y-185150000D03*
%TD*%
D37*
%TO.P,U1,1,QB*%
%TO.N,S3*%
X76680000Y-66280000D03*
D38*
%TO.P,U1,2,QC*%
%TO.N,S4*%
X76680000Y-68820000D03*
%TO.P,U1,3,QD*%
%TO.N,S5*%
X76680000Y-71360000D03*
%TO.P,U1,4,QE*%
%TO.N,S6*%
X76680000Y-73900000D03*
%TO.P,U1,5,QF*%
%TO.N,Net-(LED13-A)*%
X76680000Y-76440000D03*
%TO.P,U1,6,QG*%
%TO.N,Net-(LED21-A)*%
X76680000Y-78980000D03*
%TO.P,U1,7,QH*%
%TO.N,unconnected-(U1-QH-Pad7)*%
X76680000Y-81520000D03*
%TO.P,U1,8,GND*%
%TO.N,GND*%
X76680000Y-84060000D03*
%TO.P,U1,9,QH'*%
%TO.N,unconnected-(U1-QH&apos;-Pad9)*%
X84300000Y-84060000D03*
%TO.P,U1,10,~{SRCLR}*%
%TO.N,Net-(U1-~{SRCLR})*%
X84300000Y-81520000D03*
%TO.P,U1,11,SRCLK*%
%TO.N,a2*%
X84300000Y-78980000D03*
%TO.P,U1,12,RCLK*%
%TO.N,a1*%
X84300000Y-76440000D03*
%TO.P,U1,13,~{OE}*%
%TO.N,GND*%
X84300000Y-73900000D03*
%TO.P,U1,14,SER*%
%TO.N,a0*%
X84300000Y-71360000D03*
%TO.P,U1,15,QA*%
%TO.N,S2*%
X84300000Y-68820000D03*
%TO.P,U1,16,VCC*%
%TO.N,+5V*%
X84300000Y-66280000D03*
%TD*%
D39*
%TO.P,C17,1*%
%TO.N,Net-(U4-BYPASS)*%
X184020000Y-41032700D03*
D12*
%TO.P,C17,2*%
%TO.N,GND*%
X184020000Y-38532700D03*
%TD*%
%TO.P,R59,1*%
%TO.N,SW_1*%
X98680000Y-120620000D03*
%TO.P,R59,2*%
%TO.N,SW2*%
X106300000Y-120620000D03*
%TD*%
D13*
%TO.P,M5,1,G*%
%TO.N,Net-(M5-G)*%
X137010000Y-170280000D03*
D14*
%TO.P,M5,2,D*%
%TO.N,MX5*%
X134470000Y-170280000D03*
%TO.P,M5,3,S*%
%TO.N,18vdc Ret*%
X131930000Y-170280000D03*
%TD*%
D22*
%TO.P,D21,1,K*%
%TO.N,+22vdc*%
X65350000Y-38660000D03*
D18*
%TO.P,D21,2,A*%
%TO.N,GND*%
X65350000Y-48820000D03*
%TD*%
D12*
%TO.P,R90,1*%
%TO.N,Net-(S4-G)*%
X38540000Y-108580000D03*
%TO.P,R90,2*%
%TO.N,GND*%
X30920000Y-108580000D03*
%TD*%
D31*
%TO.P,D16,1,K*%
%TO.N,LD5*%
X314400000Y-180660000D03*
D11*
%TO.P,D16,2,A*%
%TO.N,GND*%
X314400000Y-193360000D03*
%TD*%
D12*
%TO.P,R5,1*%
%TO.N,Net-(LED10-K)*%
X322100000Y-173590000D03*
%TO.P,R5,2*%
%TO.N,LD5*%
X322100000Y-181210000D03*
%TD*%
%TO.P,R89,1*%
%TO.N,Net-(S4-G)*%
X47750000Y-108640000D03*
%TO.P,R89,2*%
%TO.N,S4*%
X55370000Y-108640000D03*
%TD*%
%TO.P,R95,1*%
%TO.N,Net-(L3-G)*%
X205320000Y-184690000D03*
%TO.P,R95,2*%
%TO.N,L3*%
X205320000Y-177070000D03*
%TD*%
%TO.P,R79,1*%
%TO.N,Net-(M6-G)*%
X154350000Y-185400000D03*
%TO.P,R79,2*%
%TO.N,M6*%
X154350000Y-177780000D03*
%TD*%
%TO.P,C8,1*%
%TO.N,MX7*%
X159680000Y-167250000D03*
%TO.P,C8,2*%
%TO.N,GND*%
X149680000Y-167250000D03*
%TD*%
D25*
%TO.P,D63,1,K*%
%TO.N,Vled*%
X271150000Y-194330000D03*
D18*
%TO.P,D63,2,A*%
%TO.N,LD6*%
X271150000Y-184170000D03*
%TD*%
D13*
%TO.P,M1,1,G*%
%TO.N,Net-(M1-G)*%
X59810000Y-147350000D03*
D14*
%TO.P,M1,2,D*%
%TO.N,MX1*%
X57270000Y-147350000D03*
%TO.P,M1,3,S*%
%TO.N,18vdc Ret*%
X54730000Y-147350000D03*
%TD*%
D12*
%TO.P,R8,1*%
%TO.N,Net-(r16-K)*%
X192880000Y-184620000D03*
%TO.P,R8,2*%
%TO.N,LD3*%
X192880000Y-192240000D03*
%TD*%
%TO.P,R57,1*%
%TO.N,+3V3*%
X179760000Y-81790000D03*
%TO.P,R57,2*%
%TO.N,Net-(J4-EN_{slash}_RESET)*%
X179760000Y-74170000D03*
%TD*%
%TO.P,R99,1*%
%TO.N,Net-(L5-G)*%
X318070000Y-177760000D03*
%TO.P,R99,2*%
%TO.N,L5*%
X318070000Y-170140000D03*
%TD*%
%TO.P,R10,1*%
%TO.N,Net-(LED15-K)*%
X344610000Y-61070000D03*
%TO.P,R10,2*%
%TO.N,LD5*%
X336990000Y-61070000D03*
%TD*%
D19*
%TO.P,LED7,1,K*%
%TO.N,Net-(D25-K)*%
X93975000Y-176920000D03*
D20*
%TO.P,LED7,2,A*%
%TO.N,Net-(LED7-A)*%
X96515000Y-176920000D03*
%TD*%
D12*
%TO.P,C4,1*%
%TO.N,MX3*%
X110280000Y-181170000D03*
%TO.P,C4,2*%
%TO.N,GND*%
X120280000Y-181170000D03*
%TD*%
%TO.P,R58,1*%
%TO.N,SW_0*%
X98680000Y-128270000D03*
%TO.P,R58,2*%
%TO.N,SW1*%
X106300000Y-128270000D03*
%TD*%
D26*
%TO.P,D12,1,K*%
%TO.N,MX7*%
X159180000Y-177280000D03*
D11*
%TO.P,D12,2,A*%
%TO.N,GND*%
X171880000Y-177280000D03*
%TD*%
D33*
%TO.P,C18,1*%
%TO.N,Net-(C18-Pad1)*%
X146040000Y-38070000D03*
D12*
%TO.P,C18,2*%
%TO.N,To Speaker*%
X142540000Y-38070000D03*
%TD*%
D39*
%TO.P,D33,1,K*%
%TO.N,Audio*%
X172800000Y-44680000D03*
D12*
%TO.P,D33,2,A*%
%TO.N,GND*%
X172800000Y-37060000D03*
%TD*%
D33*
%TO.P,D31,1,K*%
%TO.N,SW3*%
X106600000Y-116090000D03*
D12*
%TO.P,D31,2,A*%
%TO.N,GND*%
X98980000Y-116090000D03*
%TD*%
D13*
%TO.P,S5,1,G*%
%TO.N,Net-(S5-G)*%
X47290000Y-121615000D03*
D14*
%TO.P,S5,2,D*%
%TO.N,SD5*%
X44750000Y-121615000D03*
%TO.P,S5,3,S*%
%TO.N,GND*%
X42210000Y-121615000D03*
%TD*%
D12*
%TO.P,R19,1*%
%TO.N,+5V*%
X93090000Y-93790000D03*
%TO.P,R19,2*%
%TO.N,Net-(LED13-K)*%
X85470000Y-93790000D03*
%TD*%
%TO.P,R78,1*%
%TO.N,Net-(M5-G)*%
X134310000Y-162830000D03*
%TO.P,R78,2*%
%TO.N,GND*%
X126690000Y-162830000D03*
%TD*%
D25*
%TO.P,D25,1,K*%
%TO.N,Net-(D25-K)*%
X93970000Y-166940000D03*
D18*
%TO.P,D25,2,A*%
%TO.N,5.6vac*%
X93970000Y-156780000D03*
%TD*%
D12*
%TO.P,R75,1*%
%TO.N,Net-(M4-G)*%
X141950000Y-176300000D03*
%TO.P,R75,2*%
%TO.N,M4*%
X141950000Y-168680000D03*
%TD*%
%TO.P,R73,1*%
%TO.N,Net-(M3-G)*%
X105190000Y-183010000D03*
%TO.P,R73,2*%
%TO.N,M3*%
X105190000Y-175390000D03*
%TD*%
D19*
%TO.P,LED11,1,K*%
%TO.N,Net-(LED11-K)*%
X287681700Y-169760000D03*
D20*
%TO.P,LED11,2,A*%
%TO.N,Net-(D36-K)*%
X290221700Y-169760000D03*
%TD*%
D12*
%TO.P,R12,1*%
%TO.N,Net-(LED17-K)*%
X266480000Y-60890000D03*
%TO.P,R12,2*%
%TO.N,LD7*%
X258860000Y-60890000D03*
%TD*%
D30*
%TO.P,R17,1*%
%TO.N,+5V*%
X292490000Y-63940000D03*
%TO.P,R17,2*%
%TO.N,Net-(U2-Reset)*%
X284870000Y-63940000D03*
%TD*%
D10*
%TO.P,D4,1,K*%
%TO.N,SD3*%
X43310000Y-42570000D03*
D11*
%TO.P,D4,2,A*%
%TO.N,GND*%
X30610000Y-42570000D03*
%TD*%
D32*
%TO.P,C10,1*%
%TO.N,+18vdc*%
X129590000Y-43430000D03*
D12*
%TO.P,C10,2*%
%TO.N,GND*%
X129590000Y-45430000D03*
%TD*%
D32*
%TO.P,C21,1*%
%TO.N,+5V*%
X100100000Y-47450000D03*
D12*
%TO.P,C21,2*%
%TO.N,GND*%
X100100000Y-49450000D03*
%TD*%
D27*
%TO.P,L6,1,G*%
%TO.N,Net-(L6-G)*%
X288880000Y-178310000D03*
D28*
%TO.P,L6,2,D*%
%TO.N,LD6*%
X288880000Y-180850000D03*
%TO.P,L6,3,S*%
%TO.N,GND*%
X288880000Y-183390000D03*
%TD*%
D12*
%TO.P,R101,1*%
%TO.N,Net-(L6-G)*%
X278960000Y-177250000D03*
%TO.P,R101,2*%
%TO.N,L6*%
X278960000Y-169630000D03*
%TD*%
D15*
%TO.P,U10,1,GND*%
%TO.N,GND*%
X354296000Y-96360000D03*
D16*
%TO.P,U10,2,VCC*%
%TO.N,+5V*%
X356836000Y-96360000D03*
%TO.P,U10,3,SLC*%
%TO.N,SCL_0*%
X359376000Y-96360000D03*
%TO.P,U10,4,SDA*%
%TO.N,SDA_0*%
X361916000Y-96360000D03*
D23*
%TO.P,U10,5*%
%TO.N,N/C*%
X369706000Y-96430000D03*
%TO.P,U10,6*%
X346656000Y-96430000D03*
%TO.P,U10,7*%
X346656000Y-119480000D03*
D24*
%TO.P,U10,8*%
X369706000Y-119480000D03*
%TD*%
D13*
%TO.P,M8,1,G*%
%TO.N,Net-(M8-G)*%
X162260000Y-148780000D03*
D14*
%TO.P,M8,2,D*%
%TO.N,MX8*%
X159720000Y-148780000D03*
%TO.P,M8,3,S*%
%TO.N,18vdc Ret*%
X157180000Y-148780000D03*
%TD*%
D12*
%TO.P,R9,1*%
%TO.N,Net-(LED14-K)*%
X380570000Y-62210000D03*
%TO.P,R9,2*%
%TO.N,LD4*%
X372950000Y-62210000D03*
%TD*%
D17*
%TO.P,D34,1,K*%
%TO.N,Net-(D34-K)*%
X367370000Y-161790000D03*
D18*
%TO.P,D34,2,A*%
%TO.N,MX8*%
X357210000Y-161790000D03*
%TD*%
D12*
%TO.P,R7,1*%
%TO.N,Net-(LED12-K)*%
X245120000Y-173330000D03*
%TO.P,R7,2*%
%TO.N,LD7*%
X245120000Y-180950000D03*
%TD*%
D33*
%TO.P,D32,1,K*%
%TO.N,SW4*%
X106630000Y-108310000D03*
D12*
%TO.P,D32,2,A*%
%TO.N,GND*%
X99010000Y-108310000D03*
%TD*%
D39*
%TO.P,U4,1,BYPASS*%
%TO.N,Net-(U4-BYPASS)*%
X148490000Y-52555000D03*
D12*
%TO.P,U4,2,+*%
%TO.N,GND*%
X151030000Y-52555000D03*
%TO.P,U4,3,GND*%
X153570000Y-52555000D03*
%TO.P,U4,4,GND*%
X156110000Y-52555000D03*
%TO.P,U4,5,GND*%
X158650000Y-52555000D03*
%TO.P,U4,6,-*%
%TO.N,Net-(U4--)*%
X161190000Y-52555000D03*
%TO.P,U4,7,GND*%
%TO.N,GND*%
X163730000Y-52555000D03*
%TO.P,U4,8*%
%TO.N,Net-(C18-Pad1)*%
X163730000Y-44935000D03*
%TO.P,U4,9,NC*%
%TO.N,unconnected-(U4-NC-Pad9)*%
X161190000Y-44935000D03*
%TO.P,U4,10,GND*%
%TO.N,GND*%
X158650000Y-44935000D03*
%TO.P,U4,11,GND*%
X156110000Y-44935000D03*
%TO.P,U4,12,GND*%
X153570000Y-44935000D03*
%TO.P,U4,13,NC*%
%TO.N,unconnected-(U4-NC-Pad13)*%
X151030000Y-44935000D03*
%TO.P,U4,14,VS*%
%TO.N,+18vdc*%
X148490000Y-44935000D03*
%TD*%
D17*
%TO.P,D19,1,K*%
%TO.N,Vled*%
X133480000Y-155870000D03*
D18*
%TO.P,D19,2,A*%
%TO.N,GND*%
X123320000Y-155870000D03*
%TD*%
D19*
%TO.P,LED16,1,K*%
%TO.N,Net-(LED16-K)*%
X306132500Y-50150000D03*
D20*
%TO.P,LED16,2,A*%
%TO.N,Net-(D41-K)*%
X308672500Y-50150000D03*
%TD*%
D12*
%TO.P,C14,1*%
%TO.N,SW_3*%
X94970000Y-103480000D03*
%TO.P,C14,2*%
%TO.N,GND*%
X94970000Y-108480000D03*
%TD*%
D10*
%TO.P,D6,1,K*%
%TO.N,MX1*%
X56620000Y-154250000D03*
D11*
%TO.P,D6,2,A*%
%TO.N,GND*%
X43920000Y-154250000D03*
%TD*%
D40*
%TO.N,GND*%
X122470000Y-48790000D03*
X255740000Y-140170000D03*
X326240000Y-102840000D03*
X242210000Y-102840000D03*
X255920000Y-102840000D03*
X354296000Y-102914000D03*
X298160000Y-102840000D03*
X158032100Y-141357100D03*
X270330000Y-102840000D03*
%TO.N,SW_1*%
X86084400Y-183046300D03*
%TO.N,I2C SCL*%
X286440000Y-114400000D03*
D41*
%TO.N,+18vdc*%
X145820000Y-173260000D03*
D42*
X113930000Y-43950000D03*
X100600000Y-204240000D03*
D40*
%TO.N,MX6*%
X187810000Y-56430000D03*
X180030000Y-192760000D03*
%TO.N,MX7*%
X189000000Y-58270000D03*
D42*
X183070000Y-184560000D03*
X179930000Y-220720000D03*
X189704400Y-167410000D03*
D40*
%TO.N,+5V*%
X125730000Y-47710000D03*
X106080000Y-38800000D03*
X93110000Y-66570000D03*
D41*
X106080000Y-60190000D03*
D42*
%TO.N,LD3*%
X157450000Y-201700000D03*
X190110000Y-198510000D03*
D40*
%TO.N,LD4*%
X345096500Y-216087400D03*
%TO.N,LD5*%
X309614400Y-212824300D03*
D42*
%TO.N,LD6*%
X274180000Y-209400000D03*
X156460000Y-213130000D03*
%TO.N,LD7*%
X186080000Y-209020000D03*
X190020000Y-182370000D03*
X155911200Y-209141200D03*
D40*
%TO.N,L7*%
X194970000Y-91160000D03*
X160360000Y-91190000D03*
%TO.N,S4*%
X66760000Y-104920000D03*
%TO.N,L6*%
X193380000Y-89922500D03*
X193370000Y-155970000D03*
X278960000Y-156010000D03*
X157950000Y-89890000D03*
%TO.N,S5*%
X59710000Y-80010000D03*
%TO.N,SD4*%
X61740000Y-94280000D03*
%TO.N,SD5*%
X64968800Y-112649400D03*
%TO.N,M2*%
X84420000Y-118150000D03*
X149810000Y-118160000D03*
%TO.N,M3*%
X152850000Y-127930000D03*
X116370000Y-144330000D03*
%TO.N,M4*%
X138940000Y-165680000D03*
X142240000Y-159200000D03*
%TO.N,M7*%
X168530000Y-103620000D03*
%TO.N,M8*%
X128920000Y-137560000D03*
X129255000Y-78825000D03*
%TO.N,L3*%
X188520000Y-86190000D03*
X147670000Y-86130000D03*
%TO.N,L4*%
X150230000Y-87410000D03*
X355170000Y-156030000D03*
X190147500Y-153010000D03*
X190100000Y-87447500D03*
%TO.N,L5*%
X191755000Y-154330000D03*
X152880000Y-88700000D03*
X312450000Y-154330000D03*
X191750000Y-88685000D03*
%TO.N,I2C SDA*%
X181457200Y-97038200D03*
X280720000Y-114400000D03*
D42*
%TO.N,18vdc Ret*%
X117960000Y-187482100D03*
X119370000Y-146800000D03*
X118775000Y-170675000D03*
D40*
X126950000Y-66440000D03*
D42*
X135940000Y-146800000D03*
D40*
X131000000Y-62300000D03*
%TO.N,SW_3*%
X88582200Y-102645700D03*
%TO.N,a2*%
X145100000Y-91200000D03*
%TO.N,a1*%
X147870000Y-89860000D03*
%TO.N,Net-(U4-BYPASS)*%
X151653200Y-38861500D03*
%TO.N,Net-(C18-Pad1)*%
X163574800Y-47158200D03*
%TO.N,SW1*%
X110180000Y-82180000D03*
%TO.N,SW2*%
X108730000Y-83019714D03*
%TO.N,SW3*%
X104370000Y-83989857D03*
%TO.N,SW4*%
X106670000Y-85040000D03*
%TO.N,+3V3*%
X180140000Y-93560000D03*
%TO.N,M1*%
X142770000Y-121800000D03*
%TO.N,Net-(M4-G)*%
X137450000Y-176060000D03*
%TD*%
D43*
%TO.N,GND*%
X30430000Y-99020000D02*
X30920000Y-99510000D01*
X30070000Y-117860000D02*
X30540000Y-117390000D01*
X278470000Y-194220000D02*
X287995800Y-184694200D01*
X30560000Y-57952000D02*
X30457700Y-57849700D01*
D44*
X242184000Y-102814000D02*
X242210000Y-102840000D01*
D43*
X198250000Y-204900000D02*
X205220000Y-197930000D01*
X122470000Y-48790000D02*
X122385000Y-48875000D01*
X168691700Y-41168300D02*
X168691700Y-50056000D01*
X287995800Y-184694200D02*
X288880000Y-184694200D01*
X171880000Y-177280000D02*
X169910000Y-179250000D01*
X30370000Y-72050000D02*
X30370000Y-78970000D01*
X151414600Y-173290400D02*
X151406800Y-173282600D01*
X152869900Y-148481400D02*
X152870000Y-148481400D01*
X155520000Y-196410000D02*
X156160000Y-197050000D01*
X354880000Y-193790000D02*
X356844200Y-193790000D01*
X42210000Y-102912500D02*
X42210000Y-104264200D01*
X162536300Y-53748700D02*
X159843700Y-53748700D01*
X83490000Y-104170000D02*
X83300000Y-104360000D01*
X140130000Y-74000000D02*
X140130000Y-51100000D01*
X30370000Y-57937400D02*
X30370000Y-72050000D01*
X83030000Y-121704200D02*
X83212300Y-121704200D01*
X98790000Y-124920000D02*
X99874500Y-123835500D01*
X288880000Y-183390000D02*
X288880000Y-184694200D01*
X42210000Y-65507500D02*
X42210000Y-66859200D01*
X30457700Y-57849700D02*
X30370000Y-57937400D01*
X30430000Y-99020000D02*
X31090000Y-98360000D01*
D44*
X298240000Y-102760000D02*
X298160000Y-102840000D01*
D43*
X100195900Y-109495900D02*
X99010000Y-108310000D01*
D44*
X291682500Y-70897500D02*
X291682500Y-69110000D01*
D43*
X42210000Y-120263300D02*
X41669800Y-119723100D01*
X82970000Y-120520000D02*
X82970000Y-121644200D01*
X40840000Y-49366700D02*
X40840000Y-62785800D01*
X98980000Y-116090000D02*
X100195900Y-114874100D01*
X63620000Y-154170000D02*
X63620000Y-152917600D01*
X163730000Y-52555000D02*
X162536300Y-53748700D01*
X121885000Y-38985000D02*
X122470000Y-39570000D01*
X41589600Y-67479600D02*
X41589600Y-82237900D01*
X99874500Y-123835500D02*
X99874500Y-116984500D01*
X151406800Y-173282600D02*
X151406800Y-167250000D01*
X169830000Y-185830000D02*
X164204800Y-191455200D01*
X40840000Y-62785800D02*
X42210000Y-64155800D01*
X63620000Y-152917600D02*
X63952300Y-152585300D01*
X30457700Y-53147700D02*
X30457700Y-57849700D01*
X30540000Y-117390000D02*
X30540000Y-108960000D01*
X42210000Y-66859200D02*
X41589600Y-67479600D01*
X121410000Y-168990000D02*
X121410000Y-175930000D01*
X166192700Y-52555000D02*
X163730000Y-52555000D01*
X120709702Y-37809702D02*
X121885000Y-38985000D01*
X41577300Y-100928100D02*
X42210000Y-101560800D01*
X168691700Y-50056000D02*
X166192700Y-52555000D01*
X99874500Y-116984500D02*
X98980000Y-116090000D01*
X30020000Y-52710000D02*
X30457700Y-53147700D01*
X303800000Y-174080000D02*
X303800000Y-177350000D01*
X122470000Y-39570000D02*
X122470000Y-48790000D01*
X48060000Y-142500000D02*
X52540000Y-138020000D01*
D44*
X270330000Y-102840000D02*
X270200000Y-102710000D01*
D43*
X155520000Y-194117000D02*
X155520000Y-196410000D01*
X99855100Y-125985100D02*
X99855100Y-131564900D01*
X157599600Y-192037400D02*
X155855000Y-192037400D01*
X47470000Y-142500000D02*
X48060000Y-142500000D01*
X121840002Y-32790000D02*
X120709702Y-33920300D01*
X254290000Y-111160000D02*
X255650000Y-109800000D01*
X42210000Y-137240000D02*
X42210000Y-121615000D01*
X30560000Y-59430000D02*
X30560000Y-57952000D01*
X164204800Y-191455200D02*
X158181800Y-191455200D01*
X159843700Y-53748700D02*
X158650000Y-52555000D01*
X42210000Y-121615000D02*
X42210000Y-120263300D01*
X255740000Y-122550000D02*
X254290000Y-121100000D01*
X356844200Y-193790000D02*
X365730000Y-184904200D01*
X140250000Y-96960000D02*
X140250000Y-74120000D01*
X255740000Y-183760000D02*
X255740000Y-122550000D01*
X255650000Y-109800000D02*
X255650000Y-103110000D01*
X158181800Y-191455200D02*
X157599600Y-192037400D01*
X152870000Y-148481400D02*
X152870000Y-142490000D01*
X122385000Y-48875000D02*
X122360000Y-48900000D01*
X151718300Y-149633000D02*
X152869900Y-148481400D01*
X124420000Y-165980000D02*
X121410000Y-168990000D01*
D44*
X291650000Y-71160000D02*
X291650000Y-70930000D01*
D43*
X42210000Y-84210000D02*
X42210000Y-85561700D01*
X140250000Y-74120000D02*
X140130000Y-74000000D01*
D44*
X123320000Y-155870000D02*
X123320000Y-159460000D01*
X297150000Y-72010000D02*
X292780000Y-72010000D01*
X298240000Y-96360000D02*
X298240000Y-102760000D01*
D43*
X169910000Y-182320000D02*
X169830000Y-182400000D01*
X82970000Y-121644200D02*
X83030000Y-121704200D01*
X42210000Y-64155800D02*
X42210000Y-65507500D01*
X63952300Y-152585300D02*
X64040000Y-152673000D01*
D44*
X270200000Y-102710000D02*
X270200000Y-96340000D01*
D43*
X83030000Y-128130000D02*
X83030000Y-121704200D01*
X169830000Y-182400000D02*
X169830000Y-185830000D01*
X31090000Y-98360000D02*
X31090000Y-90040000D01*
X153570000Y-44935000D02*
X153570000Y-52555000D01*
X30610000Y-52120000D02*
X30020000Y-52710000D01*
X83212300Y-121704200D02*
X83300000Y-121616500D01*
D44*
X242184000Y-96360000D02*
X242184000Y-102814000D01*
D43*
X151718300Y-154280500D02*
X151718300Y-149633000D01*
X30370000Y-78970000D02*
X30450000Y-79050000D01*
X158032100Y-141357100D02*
X160570000Y-138819200D01*
X47470000Y-142500000D02*
X47470000Y-150700000D01*
X140130000Y-51100000D02*
X138090000Y-49060000D01*
D44*
X291650000Y-70930000D02*
X291682500Y-70897500D01*
X298240000Y-96360000D02*
X298240000Y-73100000D01*
D43*
X118390000Y-195390000D02*
X120400000Y-193380000D01*
X68720000Y-141610000D02*
X63952300Y-146377700D01*
X126690000Y-163710000D02*
X124420000Y-165980000D01*
D44*
X291930000Y-71160000D02*
X291650000Y-71160000D01*
X298240000Y-73100000D02*
X297150000Y-72010000D01*
D43*
X120400000Y-193380000D02*
X120400000Y-185060000D01*
X152180000Y-154742200D02*
X151718300Y-154280500D01*
X254290000Y-121100000D02*
X254290000Y-111160000D01*
X42210000Y-85561700D02*
X41577300Y-86194400D01*
X152180000Y-166476800D02*
X152180000Y-163340000D01*
X41589600Y-82237900D02*
X42210000Y-82858300D01*
X83300000Y-104360000D02*
X83300000Y-111520000D01*
X121410000Y-175930000D02*
X120280000Y-177060000D01*
X120709702Y-33920300D02*
X120709702Y-37809702D01*
D44*
X292780000Y-72010000D02*
X291930000Y-71160000D01*
D43*
X126690000Y-162830000D02*
X126690000Y-163710000D01*
X30610000Y-42570000D02*
X30610000Y-52120000D01*
X42210000Y-84210000D02*
X42210000Y-82858300D01*
X155855000Y-192037400D02*
X151414600Y-187597000D01*
X100195900Y-114874100D02*
X100195900Y-109495900D01*
X151414600Y-187597000D02*
X151414600Y-173290400D01*
X30540000Y-108960000D02*
X30920000Y-108580000D01*
X30920000Y-99510000D02*
X30920000Y-108580000D01*
X256970000Y-184990000D02*
X255740000Y-183760000D01*
X42210000Y-47996700D02*
X40840000Y-49366700D01*
X157599600Y-192037400D02*
X155520000Y-194117000D01*
X30070000Y-126930000D02*
X30070000Y-117860000D01*
X41577300Y-86194400D02*
X41577300Y-100928100D01*
X64040000Y-152673000D02*
X64040000Y-158720000D01*
X151406800Y-167250000D02*
X152180000Y-166476800D01*
X205220000Y-197930000D02*
X205220000Y-194940000D01*
X47470000Y-150700000D02*
X43920000Y-154250000D01*
X365730000Y-183600000D02*
X365730000Y-184904200D01*
X120280000Y-177060000D02*
X120280000Y-181170000D01*
X41669800Y-119723100D02*
X41669800Y-104804400D01*
X149680000Y-167250000D02*
X151406800Y-167250000D01*
X63952300Y-146377700D02*
X63952300Y-152585300D01*
X31090000Y-90040000D02*
X31090000Y-79690000D01*
D44*
X354296000Y-102914000D02*
X354296000Y-96360000D01*
D43*
X99855100Y-131564900D02*
X98730000Y-132690000D01*
X160570000Y-138819200D02*
X160570000Y-134480000D01*
X169910000Y-179250000D02*
X169910000Y-182320000D01*
X120280000Y-181170000D02*
X120400000Y-181290000D01*
X42210000Y-46645000D02*
X42210000Y-47996700D01*
D44*
X123320000Y-159460000D02*
X126690000Y-162830000D01*
D43*
X303800000Y-177350000D02*
X296000000Y-185150000D01*
X172800000Y-37060000D02*
X168691700Y-41168300D01*
X83300000Y-121616500D02*
X83300000Y-111520000D01*
X152180000Y-163340000D02*
X152180000Y-154742200D01*
X47470000Y-142500000D02*
X42210000Y-137240000D01*
X31090000Y-79690000D02*
X30450000Y-79050000D01*
X41669800Y-104804400D02*
X42210000Y-104264200D01*
D44*
X326268000Y-96360000D02*
X326268000Y-102812000D01*
X326268000Y-102812000D02*
X326240000Y-102840000D01*
D43*
X98790000Y-124920000D02*
X99855100Y-125985100D01*
X255650000Y-103110000D02*
X255920000Y-102840000D01*
X42210000Y-102912500D02*
X42210000Y-101560800D01*
X120400000Y-181290000D02*
X120400000Y-185060000D01*
%TO.N,SW_1*%
X86088800Y-125021200D02*
X90590000Y-120520000D01*
X87748400Y-225005000D02*
X86084400Y-223341000D01*
X90160000Y-32790000D02*
X89744900Y-33205100D01*
X89744900Y-33205100D02*
X89744900Y-119674900D01*
X86084400Y-223341000D02*
X86084400Y-183046300D01*
X86088800Y-183041900D02*
X86088800Y-125021200D01*
X32570000Y-180460000D02*
X32570000Y-165710000D01*
X90825000Y-225005000D02*
X87748400Y-225005000D01*
X89744900Y-119674900D02*
X90590000Y-120520000D01*
X92340000Y-223490000D02*
X90825000Y-225005000D01*
X86084400Y-183046300D02*
X86088800Y-183041900D01*
%TO.N,I2C SCL*%
X286420000Y-100100000D02*
X286420000Y-114380000D01*
X290581500Y-83131500D02*
X290581500Y-91028500D01*
X288210000Y-98310000D02*
X286420000Y-100100000D01*
X290560000Y-83110000D02*
X290581500Y-83131500D01*
X289142500Y-69110000D02*
X290560000Y-70527500D01*
X170730000Y-105540000D02*
X178950000Y-113760000D01*
X290560000Y-70527500D02*
X290560000Y-83110000D01*
X290581500Y-91028500D02*
X288210000Y-93400000D01*
X286420000Y-114380000D02*
X286440000Y-114400000D01*
X170730000Y-96960000D02*
X170730000Y-105540000D01*
X288210000Y-93400000D02*
X288210000Y-98310000D01*
%TO.N,5.6vac com*%
X89740000Y-133135500D02*
X92333300Y-130542200D01*
X102040000Y-92724000D02*
X102040000Y-32790000D01*
X89740000Y-170890000D02*
X89740000Y-133135500D01*
X92333300Y-130542200D02*
X92333300Y-102430700D01*
X92333300Y-102430700D02*
X102040000Y-92724000D01*
D45*
%TO.N,+18vdc*%
X138090000Y-38900000D02*
X138090000Y-33200000D01*
D44*
X145257900Y-175667300D02*
X145257900Y-203262100D01*
X144125000Y-44935000D02*
X148490000Y-44935000D01*
D45*
X113930000Y-162410000D02*
X105000000Y-171340000D01*
D46*
X138090000Y-38900000D02*
X144125000Y-44935000D01*
D45*
X100600000Y-204240000D02*
X100600000Y-204320000D01*
X113930000Y-43950000D02*
X113930000Y-162410000D01*
D44*
X145257900Y-203262100D02*
X144100000Y-204420000D01*
X145820000Y-173260000D02*
X145820000Y-175105200D01*
X145820000Y-175105200D02*
X145257900Y-175667300D01*
D45*
X100600000Y-175740000D02*
X100600000Y-204240000D01*
D44*
X145820000Y-173260000D02*
X145841100Y-173238900D01*
X138090000Y-33200000D02*
X137680000Y-32790000D01*
D45*
X105000000Y-171340000D02*
X100600000Y-175740000D01*
D43*
%TO.N,MX1*%
X80639000Y-55283240D02*
X81010000Y-54912240D01*
X57050000Y-142920000D02*
X57050000Y-147130000D01*
X56620000Y-154250000D02*
X57050000Y-153820000D01*
D45*
X62410000Y-207170000D02*
X59660000Y-204420000D01*
D43*
X80399000Y-109427200D02*
X80399000Y-56442480D01*
X81010000Y-54897100D02*
X81345300Y-54561800D01*
X72620000Y-214580000D02*
X72540000Y-214660000D01*
X57470000Y-142500000D02*
X57050000Y-142920000D01*
X57050000Y-147130000D02*
X57270000Y-147350000D01*
X80399000Y-56442480D02*
X80639000Y-56202479D01*
D45*
X72540000Y-214660000D02*
X72540000Y-223490000D01*
D43*
X57470000Y-142500000D02*
X57470000Y-132356200D01*
D45*
X59660000Y-204420000D02*
X59660000Y-157290000D01*
D43*
X81345300Y-54561800D02*
X84691800Y-54561800D01*
X57470000Y-132356200D02*
X80399000Y-109427200D01*
D45*
X62410000Y-210020000D02*
X62410000Y-207170000D01*
D43*
X84691800Y-54561800D02*
X85930000Y-55800000D01*
X80639000Y-56202479D02*
X80639000Y-55283240D01*
X57050000Y-147570000D02*
X57270000Y-147350000D01*
D45*
X57050000Y-153820000D02*
X57050000Y-147570000D01*
D43*
X81010000Y-54912240D02*
X81010000Y-54897100D01*
D45*
X59660000Y-157290000D02*
X56620000Y-154250000D01*
%TO.N,MX2*%
X76500000Y-214870000D02*
X76500000Y-223490000D01*
X74090000Y-154170000D02*
X74090000Y-158670000D01*
D43*
X76790000Y-214580000D02*
X76500000Y-214870000D01*
X77933500Y-148971000D02*
X75326500Y-148971000D01*
X81790000Y-55760000D02*
X80900000Y-56650000D01*
D45*
X74090000Y-147620000D02*
X74090000Y-154170000D01*
D43*
X77933500Y-146269000D02*
X77933500Y-148971000D01*
D45*
X75327300Y-160007300D02*
X74040000Y-158720000D01*
D43*
X80900000Y-56650000D02*
X80900000Y-140810000D01*
D45*
X76790000Y-214580000D02*
X81020000Y-210350000D01*
X75327300Y-195537300D02*
X75327300Y-160007300D01*
D43*
X76841000Y-145770780D02*
X77131000Y-146060779D01*
D45*
X74090000Y-154170000D02*
X76320000Y-154170000D01*
D43*
X75326500Y-148971000D02*
X75326500Y-146383500D01*
D45*
X81020000Y-210350000D02*
X81020000Y-201230000D01*
X81020000Y-201230000D02*
X75327300Y-195537300D01*
D43*
X74090000Y-158670000D02*
X74040000Y-158720000D01*
X80900000Y-140810000D02*
X76841000Y-144869000D01*
X77131000Y-146269000D02*
X77933500Y-146269000D01*
X76841000Y-144869000D02*
X76841000Y-145770780D01*
X75326500Y-146383500D02*
X74090000Y-147620000D01*
X77131000Y-146060779D02*
X77131000Y-146269000D01*
%TO.N,MX3*%
X110280000Y-181170000D02*
X110160000Y-181290000D01*
D45*
X111620000Y-214580000D02*
X105690000Y-208650000D01*
X112140000Y-223490000D02*
X112140000Y-215100000D01*
D43*
X110160000Y-181290000D02*
X110160000Y-188890000D01*
D45*
X110160000Y-188890000D02*
X110160000Y-190920000D01*
D43*
X112140000Y-215100000D02*
X111620000Y-214580000D01*
D45*
X105690000Y-208650000D02*
X105690000Y-195390000D01*
X110160000Y-190920000D02*
X105690000Y-195390000D01*
%TO.N,MX4*%
X134010000Y-195390000D02*
X120060000Y-209340000D01*
X134210000Y-189300000D02*
X134210000Y-195190000D01*
X120060000Y-209340000D02*
X120060000Y-223490000D01*
X116150000Y-223440000D02*
X116150000Y-214580000D01*
D43*
X134210000Y-195190000D02*
X134010000Y-195390000D01*
X134210000Y-185560000D02*
X134210000Y-189300000D01*
X116100000Y-223490000D02*
X116150000Y-223440000D01*
D45*
%TO.N,MX5*%
X139531000Y-172481000D02*
X139102000Y-172910000D01*
D43*
X132460000Y-214800000D02*
X132240000Y-214580000D01*
D45*
X139531000Y-172481000D02*
X139531000Y-187099000D01*
D43*
X134470000Y-166030000D02*
X134470000Y-170280000D01*
D45*
X138691000Y-202962050D02*
X138691000Y-205877950D01*
D43*
X134470000Y-175570000D02*
X134110000Y-175930000D01*
D45*
X138684900Y-197924497D02*
X138684900Y-202955950D01*
X138684900Y-205884050D02*
X138684900Y-208135100D01*
X139531000Y-187099000D02*
X139660000Y-187099000D01*
X139102000Y-172910000D02*
X135270000Y-172910000D01*
X138684900Y-208135100D02*
X132240000Y-214580000D01*
D43*
X134420000Y-165980000D02*
X134470000Y-166030000D01*
D45*
X138691000Y-205877950D02*
X138684900Y-205884050D01*
X139660000Y-187099000D02*
X139660000Y-196949397D01*
X132460000Y-223490000D02*
X132460000Y-214800000D01*
X134470000Y-172110000D02*
X134470000Y-170280000D01*
X139660000Y-196949397D02*
X138684900Y-197924497D01*
X135270000Y-172910000D02*
X134470000Y-172110000D01*
D43*
X134110000Y-171480000D02*
X134110000Y-175930000D01*
D45*
X138684900Y-202955950D02*
X138691000Y-202962050D01*
D43*
%TO.N,MX6*%
X159720000Y-189720000D02*
X159720000Y-182510000D01*
D45*
X141120000Y-200540000D02*
X141120000Y-211360000D01*
X141220000Y-211460000D02*
X138100000Y-214580000D01*
D43*
X187810000Y-56430000D02*
X186030000Y-58210000D01*
X186030000Y-58210000D02*
X186030000Y-176230000D01*
X186030000Y-176230000D02*
X180030000Y-182230000D01*
X136390000Y-214580000D02*
X136420000Y-214610000D01*
D45*
X143460000Y-197050000D02*
X143460000Y-198200000D01*
X136420000Y-214610000D02*
X136420000Y-223490000D01*
D43*
X159720000Y-182510000D02*
X159910000Y-182320000D01*
D45*
X141120000Y-211360000D02*
X141220000Y-211460000D01*
X143460000Y-198200000D02*
X141120000Y-200540000D01*
D43*
X180030000Y-182230000D02*
X180030000Y-192760000D01*
D45*
X138100000Y-214580000D02*
X136390000Y-214580000D01*
D46*
%TO.N,MX7*%
X187330000Y-165035600D02*
X187330000Y-59940000D01*
D45*
X144340000Y-223490000D02*
X144340000Y-214820000D01*
D46*
X187330000Y-59940000D02*
X189000000Y-58270000D01*
D43*
X188950000Y-58320000D02*
X189000000Y-58270000D01*
D45*
X183070000Y-184560000D02*
X183070000Y-217580000D01*
D43*
X159690000Y-171110000D02*
X159690000Y-176770000D01*
D45*
X159690000Y-167260000D02*
X159690000Y-171110000D01*
D43*
X159690000Y-176770000D02*
X159180000Y-177280000D01*
D45*
X189270000Y-167844400D02*
X189704400Y-167410000D01*
D46*
X189704400Y-167410000D02*
X187330000Y-165035600D01*
D43*
X144340000Y-214820000D02*
X144100000Y-214580000D01*
X159680000Y-167250000D02*
X159690000Y-167260000D01*
D45*
X189270000Y-178010000D02*
X189270000Y-167844400D01*
X183070000Y-217580000D02*
X179930000Y-220720000D01*
%TO.N,MX8*%
X160570000Y-144480000D02*
X159720000Y-145330000D01*
X159720000Y-145330000D02*
X159720000Y-148780000D01*
%TO.N,+22vdc*%
X57490000Y-99000000D02*
X57490000Y-79640000D01*
D44*
X57690000Y-99200000D02*
X57490000Y-99000000D01*
X57910000Y-43050000D02*
X57420000Y-42560000D01*
X65350000Y-38660000D02*
X65880000Y-38130000D01*
D45*
X57910000Y-59500000D02*
X57800000Y-59610000D01*
X57800000Y-78190000D02*
X56920000Y-79070000D01*
X57800000Y-59610000D02*
X57800000Y-78190000D01*
X57910000Y-59500000D02*
X57910000Y-43050000D01*
D44*
X57490000Y-79640000D02*
X56920000Y-79070000D01*
D45*
X65880000Y-38130000D02*
X65880000Y-32790000D01*
X57690000Y-117390000D02*
X57690000Y-99200000D01*
D44*
%TO.N,+5V*%
X300780000Y-96360000D02*
X300780000Y-71740000D01*
X298150000Y-69110000D02*
X294222500Y-69110000D01*
X126500000Y-61658300D02*
X137590000Y-72748300D01*
X100100000Y-43890000D02*
X100100000Y-47450000D01*
X125730000Y-47710000D02*
X126500000Y-48480000D01*
X93090000Y-93790000D02*
X93110000Y-93770000D01*
X300780000Y-71740000D02*
X298150000Y-69110000D01*
X94870000Y-38660000D02*
X100100000Y-43890000D01*
X94120000Y-37910000D02*
X94870000Y-38660000D01*
X93090000Y-99280000D02*
X92970000Y-99400000D01*
X93110000Y-93770000D02*
X93110000Y-66570000D01*
X93090000Y-93790000D02*
X93090000Y-99280000D01*
X137590000Y-72748300D02*
X137590000Y-74000000D01*
X94120000Y-32790000D02*
X94120000Y-37910000D01*
X106080000Y-60190000D02*
X105960000Y-60310000D01*
X126500000Y-48480000D02*
X126500000Y-61658300D01*
X106080000Y-38800000D02*
X106080000Y-60190000D01*
D45*
%TO.N,Vled*%
X148390000Y-202290000D02*
X148390000Y-171075200D01*
D43*
X117790000Y-38660000D02*
X117880000Y-38570000D01*
D45*
X148340000Y-202340000D02*
X148340000Y-204420000D01*
X117880000Y-38570000D02*
X117880000Y-32790000D01*
X148390000Y-202290000D02*
X148340000Y-202340000D01*
X119381600Y-40251600D02*
X117790000Y-38660000D01*
X148390000Y-171075200D02*
X119381600Y-142066800D01*
X119381600Y-142066800D02*
X119381600Y-40251600D01*
D43*
%TO.N,LD3*%
X148300000Y-223490000D02*
X148340000Y-223450000D01*
D45*
X157450000Y-203730000D02*
X148340000Y-212840000D01*
X192880000Y-192240000D02*
X190398400Y-194721600D01*
X157450000Y-201700000D02*
X157450000Y-203730000D01*
X148340000Y-212840000D02*
X148340000Y-214580000D01*
X148340000Y-223450000D02*
X148340000Y-214580000D01*
X190398400Y-194721600D02*
X190110000Y-195010000D01*
X190110000Y-195010000D02*
X190110000Y-198510000D01*
%TO.N,LD4*%
X160130000Y-214580000D02*
X160130000Y-223419999D01*
X160130000Y-223419999D02*
X160200001Y-223490000D01*
X345096500Y-190873500D02*
X354880000Y-181090000D01*
X345096500Y-216087400D02*
X345096500Y-190873500D01*
D43*
X372950000Y-62210000D02*
X372950000Y-167590000D01*
X372950000Y-167590000D02*
X359670000Y-180870000D01*
%TO.N,LD5*%
X336990000Y-61070000D02*
X335928800Y-62131200D01*
D45*
X309614400Y-185445600D02*
X314400000Y-180660000D01*
X309614400Y-212824300D02*
X309614400Y-185445600D01*
D43*
X335928800Y-172581200D02*
X327340000Y-181170000D01*
X335928800Y-62131200D02*
X335928800Y-172581200D01*
D45*
X164160000Y-214630000D02*
X164160000Y-223490000D01*
%TO.N,LD6*%
X275000000Y-181520000D02*
X274180000Y-182340000D01*
X274180000Y-182340000D02*
X274180000Y-209400000D01*
D43*
X298850000Y-61240000D02*
X309980000Y-72370000D01*
D45*
X156460000Y-213130000D02*
X156460000Y-223250006D01*
X278470000Y-181520000D02*
X275000000Y-181520000D01*
D43*
X309980000Y-72370000D02*
X309980000Y-159750000D01*
D45*
X156460000Y-223250006D02*
X156220006Y-223490000D01*
D43*
X309980000Y-159750000D02*
X288880000Y-180850000D01*
%TO.N,LD7*%
X186041000Y-208469000D02*
X186220000Y-208290000D01*
D45*
X152250000Y-223480000D02*
X152250000Y-214580000D01*
D43*
X258710000Y-62770000D02*
X258860000Y-62620000D01*
X245120000Y-180950000D02*
X242900000Y-178730000D01*
D45*
X152250000Y-212802400D02*
X152250000Y-214580000D01*
D43*
X152260000Y-223490000D02*
X152250000Y-223480000D01*
D45*
X155982400Y-209070000D02*
X155911200Y-209141200D01*
D43*
X206900000Y-49990000D02*
X217890000Y-60980000D01*
X248000000Y-163030000D02*
X248000000Y-105300000D01*
D45*
X186080000Y-209020000D02*
X186080000Y-186310000D01*
X186220000Y-209020000D02*
X186080000Y-209020000D01*
D43*
X253310000Y-64890000D02*
X255430000Y-62770000D01*
X258860000Y-62620000D02*
X258860000Y-60890000D01*
X242900000Y-168130000D02*
X248000000Y-163030000D01*
D45*
X155911200Y-209141200D02*
X152250000Y-212802400D01*
X186080000Y-209020000D02*
X186030000Y-209070000D01*
D43*
X248000000Y-105300000D02*
X253310000Y-99990000D01*
X242900000Y-178730000D02*
X242900000Y-168130000D01*
X255430000Y-62770000D02*
X258710000Y-62770000D01*
X217890000Y-60980000D02*
X220710000Y-60980000D01*
X253310000Y-99990000D02*
X253310000Y-64890000D01*
X186220000Y-209020000D02*
X186041000Y-208841000D01*
D45*
X186080000Y-186310000D02*
X190020000Y-182370000D01*
D43*
X186041000Y-208841000D02*
X186041000Y-208469000D01*
%TO.N,L7*%
X160360000Y-91190000D02*
X160450000Y-91100000D01*
X194970000Y-91160000D02*
X194970000Y-161880000D01*
X210550000Y-177460000D02*
X233300000Y-177460000D01*
X194970000Y-161880000D02*
X210550000Y-177460000D01*
X160450000Y-91100000D02*
X160450000Y-74000000D01*
%TO.N,S4*%
X66780000Y-71940000D02*
X69900000Y-68820000D01*
X66760000Y-104920000D02*
X66760000Y-102820000D01*
X69900000Y-68820000D02*
X76680000Y-68820000D01*
X66780000Y-102800000D02*
X66780000Y-71940000D01*
X66760000Y-102820000D02*
X66780000Y-102800000D01*
%TO.N,L6*%
X157930000Y-74020000D02*
X157930000Y-89870000D01*
X193370000Y-156002500D02*
X193362500Y-156010000D01*
X157930000Y-89870000D02*
X157950000Y-89890000D01*
X157910000Y-74000000D02*
X157930000Y-74020000D01*
X278960000Y-169630000D02*
X278960000Y-156010000D01*
X193370000Y-89932500D02*
X193370000Y-156002500D01*
X193380000Y-90172500D02*
X193380000Y-89922500D01*
X193380000Y-89922500D02*
X193432500Y-89922500D01*
X193362500Y-90190000D02*
X193380000Y-90172500D01*
X193380000Y-89922500D02*
X193370000Y-89932500D01*
%TO.N,S5*%
X59710000Y-122510000D02*
X54790000Y-127430000D01*
X59710000Y-80010000D02*
X59710000Y-122510000D01*
D45*
%TO.N,SD4*%
X61740000Y-47890000D02*
X73800000Y-35830000D01*
X44750000Y-100200000D02*
X43570000Y-99020000D01*
X61740000Y-94280000D02*
X61740000Y-47890000D01*
X73800000Y-35830000D02*
X73800000Y-32790000D01*
X44750000Y-102912500D02*
X44750000Y-100200000D01*
D43*
X43570000Y-99020000D02*
X43130000Y-99020000D01*
D45*
%TO.N,SD5*%
X64968800Y-53579000D02*
X77760000Y-40787800D01*
X77760000Y-40787800D02*
X77760000Y-32790000D01*
D43*
X43240000Y-120105000D02*
X43240000Y-117390000D01*
D45*
X64968800Y-112649400D02*
X64968800Y-53579000D01*
D43*
X44750000Y-121615000D02*
X43240000Y-120105000D01*
D45*
%TO.N,SD2*%
X57960000Y-34320000D02*
X50570000Y-41710000D01*
X44820000Y-60990000D02*
X43260000Y-59430000D01*
D43*
X57960000Y-32790000D02*
X57960000Y-34320000D01*
X44750000Y-65507500D02*
X44820000Y-65437500D01*
D45*
X44820000Y-65437500D02*
X44820000Y-60990000D01*
X50570000Y-56680000D02*
X47750000Y-59500000D01*
X50570000Y-41710000D02*
X50570000Y-56680000D01*
%TO.N,SD6*%
X53800000Y-68290000D02*
X52610000Y-69480000D01*
X45136500Y-83823500D02*
X44750000Y-84210000D01*
X52999000Y-42991000D02*
X52999000Y-54298842D01*
X45310000Y-79070000D02*
X45136500Y-79243500D01*
X46760000Y-79070000D02*
X45310000Y-79070000D01*
X45136500Y-79243500D02*
X45136500Y-83823500D01*
X61920000Y-34070000D02*
X53800000Y-42190000D01*
X52610000Y-69480000D02*
X52610000Y-73220000D01*
X52610000Y-73220000D02*
X46760000Y-79070000D01*
X53800000Y-55099842D02*
X53800000Y-68290000D01*
D43*
X44750000Y-84210000D02*
X43150000Y-82610000D01*
D45*
X52999000Y-54298842D02*
X53800000Y-55099842D01*
D43*
X61920000Y-32790000D02*
X61920000Y-34070000D01*
D45*
X53800000Y-42190000D02*
X52999000Y-42991000D01*
D43*
X43150000Y-82610000D02*
X43150000Y-79050000D01*
D45*
%TO.N,SD3*%
X54000000Y-32790000D02*
X47260000Y-39530000D01*
X43310000Y-42570000D02*
X44750000Y-44010000D01*
X47260000Y-39530000D02*
X47260000Y-42560000D01*
X44750000Y-44010000D02*
X44750000Y-46645000D01*
D43*
%TO.N,M2*%
X83499100Y-147530900D02*
X81790000Y-149240000D01*
X150410000Y-96960000D02*
X150410000Y-117560000D01*
X149810000Y-118160000D02*
X150410000Y-117560000D01*
X84430000Y-118160000D02*
X84430000Y-129435400D01*
X84420000Y-118150000D02*
X84430000Y-118160000D01*
X84430000Y-129435400D02*
X83499100Y-130366300D01*
X83499100Y-130366300D02*
X83499100Y-147530900D01*
%TO.N,M3*%
X116370000Y-164210000D02*
X105190000Y-175390000D01*
X152950000Y-127830000D02*
X152950000Y-96960000D01*
X152850000Y-127930000D02*
X152950000Y-127830000D01*
X116370000Y-144330000D02*
X116370000Y-164210000D01*
%TO.N,M4*%
X142957701Y-158482299D02*
X142957701Y-141462299D01*
X138950000Y-165680000D02*
X141950000Y-168680000D01*
X142957701Y-141462299D02*
X155490000Y-128930000D01*
X138940000Y-165680000D02*
X138950000Y-165680000D01*
X155490000Y-128930000D02*
X155490000Y-96960000D01*
X142240000Y-159200000D02*
X142957701Y-158482299D01*
%TO.N,M5*%
X158030000Y-96960000D02*
X158030000Y-129330000D01*
X158030000Y-129330000D02*
X144510000Y-142850000D01*
X144510000Y-142850000D02*
X144510000Y-162890000D01*
%TO.N,M6*%
X154350000Y-177780000D02*
X154557700Y-177572300D01*
X160570000Y-131300000D02*
X154600000Y-137270000D01*
X154600000Y-137270000D02*
X154600000Y-141487700D01*
X160570000Y-96960000D02*
X160570000Y-131300000D01*
X159941500Y-97588500D02*
X160570000Y-96960000D01*
X154557700Y-177572300D02*
X154557700Y-141530000D01*
%TO.N,M7*%
X168530000Y-103620000D02*
X168470000Y-103680000D01*
X168470000Y-103680000D02*
X168470000Y-161950000D01*
X168470000Y-161950000D02*
X169860000Y-163340000D01*
%TO.N,M8*%
X128920000Y-79160000D02*
X129255000Y-78825000D01*
X128920000Y-137560000D02*
X128920000Y-79160000D01*
X129255000Y-78825000D02*
X129330000Y-78750000D01*
%TO.N,L3*%
X147750000Y-86050000D02*
X147670000Y-86130000D01*
X188520000Y-160270000D02*
X205320000Y-177070000D01*
X147750000Y-74000000D02*
X147750000Y-86050000D01*
X188520000Y-86190000D02*
X188520000Y-160270000D01*
%TO.N,L4*%
X190120000Y-152982500D02*
X190147500Y-153010000D01*
X150290000Y-87350000D02*
X150230000Y-87410000D01*
X190147500Y-87627500D02*
X190100000Y-87580000D01*
X150290000Y-74000000D02*
X150290000Y-87350000D01*
X355160000Y-156040000D02*
X355170000Y-156030000D01*
X355160000Y-170100000D02*
X355160000Y-156040000D01*
X190100000Y-87447500D02*
X190120000Y-87467500D01*
X190100000Y-87580000D02*
X190100000Y-87447500D01*
X190120000Y-87467500D02*
X190120000Y-152982500D01*
%TO.N,L5*%
X153130000Y-88700000D02*
X153145000Y-88685000D01*
X152830000Y-88650000D02*
X152880000Y-88700000D01*
X191755000Y-88685000D02*
X191755000Y-154330000D01*
X152880000Y-88700000D02*
X153130000Y-88700000D01*
X152830000Y-74000000D02*
X152830000Y-88650000D01*
X312450000Y-164520000D02*
X312450000Y-154330000D01*
X318070000Y-170140000D02*
X312450000Y-164520000D01*
%TO.N,I2C SDA*%
X285363500Y-74523500D02*
X285363500Y-91136500D01*
X285330000Y-70382500D02*
X285330000Y-74490000D01*
X285330000Y-74490000D02*
X285363500Y-74523500D01*
X280850000Y-95650000D02*
X280720000Y-95650000D01*
X280720000Y-114400000D02*
X280690000Y-114430000D01*
X280720000Y-95650000D02*
X280720000Y-114400000D01*
X181457200Y-97038200D02*
X183500000Y-99081000D01*
X286602500Y-69110000D02*
X285330000Y-70382500D01*
X284790000Y-91710000D02*
X280850000Y-95650000D01*
X183500000Y-99081000D02*
X183500000Y-113540000D01*
X285363500Y-91136500D02*
X284790000Y-91710000D01*
%TO.N,5.6vac*%
X111650000Y-139770000D02*
X111390000Y-140030000D01*
X110630000Y-32790000D02*
X109960003Y-32790000D01*
X111650000Y-33810000D02*
X110630000Y-32790000D01*
X111390000Y-140030000D02*
X110900000Y-140030000D01*
X111650000Y-33810000D02*
X111650000Y-139770000D01*
X94150000Y-156780000D02*
X93970000Y-156780000D01*
X110900000Y-140030000D02*
X94150000Y-156780000D01*
D45*
%TO.N,18vdc Ret*%
X135930000Y-146790000D02*
X135920000Y-146790000D01*
X119370000Y-170080000D02*
X119320000Y-170130000D01*
X135920000Y-146790000D02*
X126950000Y-137820000D01*
X157150000Y-171110000D02*
X156460000Y-171800000D01*
X135040000Y-38460000D02*
X133720000Y-37140000D01*
X131000000Y-49670000D02*
X131000000Y-62300000D01*
X135940000Y-146800000D02*
X135930000Y-146790000D01*
X156460000Y-181240000D02*
X157020000Y-181800000D01*
X135120000Y-45550000D02*
X135040000Y-45470000D01*
X118775000Y-170675000D02*
X116550000Y-172900000D01*
X116550000Y-172990000D02*
X116550000Y-186420000D01*
X157020000Y-181800000D02*
X157020000Y-189547219D01*
X157020000Y-189547219D02*
X157186390Y-189713609D01*
X116550000Y-186420000D02*
X117580000Y-187450000D01*
X135120000Y-45550000D02*
X131000000Y-49670000D01*
X135040000Y-45350000D02*
X135040000Y-38460000D01*
X156460000Y-171800000D02*
X156460000Y-181240000D01*
X126950000Y-137820000D02*
X126950000Y-66440000D01*
X133720000Y-37140000D02*
X133720000Y-32790000D01*
X116550000Y-172900000D02*
X116550000Y-172990000D01*
D44*
X157380000Y-170880000D02*
X157150000Y-171110000D01*
D45*
X119320000Y-170130000D02*
X118775000Y-170675000D01*
X119370000Y-146800000D02*
X119370000Y-170080000D01*
X135040000Y-45470000D02*
X135040000Y-45350000D01*
D43*
%TO.N,SW_3*%
X85587100Y-129237900D02*
X85587100Y-105640800D01*
X84760000Y-130065000D02*
X85587100Y-129237900D01*
X84760000Y-223150000D02*
X84760000Y-130065000D01*
X85587100Y-105640800D02*
X88582200Y-102645700D01*
X84420000Y-223490000D02*
X84760000Y-223150000D01*
%TO.N,SW_0*%
X92517300Y-131067600D02*
X94630000Y-128954900D01*
X92517300Y-219707300D02*
X92517300Y-131067600D01*
X94630000Y-128954900D02*
X94630000Y-127830000D01*
X96300000Y-223490000D02*
X92517300Y-219707300D01*
%TO.N,SW_2*%
X90920000Y-111520000D02*
X91831600Y-112431600D01*
X91831600Y-130084300D02*
X88380000Y-133535900D01*
X88380000Y-133535900D02*
X88380000Y-223490000D01*
X91831600Y-112431600D02*
X91831600Y-130084300D01*
%TO.N,a2*%
X145100000Y-91200000D02*
X145330000Y-91430000D01*
X145330000Y-91430000D02*
X145330000Y-96960000D01*
%TO.N,a1*%
X147870000Y-96960000D02*
X147870000Y-89860000D01*
%TO.N,Net-(U1-~{SRCLR})*%
X87620000Y-74190000D02*
X87620000Y-78200000D01*
X87620000Y-78200000D02*
X84300000Y-81520000D01*
%TO.N,Net-(D34-K)*%
X366705000Y-162455000D02*
X366705000Y-169760000D01*
X367370000Y-161790000D02*
X366705000Y-162455000D01*
%TO.N,Net-(D35-K)*%
X328463300Y-161613300D02*
X328380000Y-161530000D01*
X328463300Y-169760000D02*
X328463300Y-161613300D01*
%TO.N,Net-(D36-K)*%
X291630000Y-161960000D02*
X290221700Y-163368300D01*
X290221700Y-163368300D02*
X290221700Y-169760000D01*
%TO.N,Net-(D37-K)*%
X251980000Y-161980000D02*
X252910000Y-161050000D01*
X251980000Y-169760000D02*
X251980000Y-161980000D01*
%TO.N,Net-(D38-K)*%
X199475000Y-178055000D02*
X199430000Y-178010000D01*
X199475000Y-184560000D02*
X199475000Y-178055000D01*
%TO.N,Net-(D39-K)*%
X383625000Y-50390000D02*
X383625000Y-55505000D01*
X383625000Y-55505000D02*
X384730000Y-56610000D01*
%TO.N,Net-(D40-K)*%
X347476300Y-55756300D02*
X347476300Y-50150000D01*
X348240000Y-56520000D02*
X347476300Y-55756300D01*
%TO.N,Net-(D41-K)*%
X309130000Y-56430000D02*
X308672500Y-55972500D01*
X308672500Y-55972500D02*
X308672500Y-50150000D01*
%TO.N,Net-(D42-K)*%
X269940000Y-56960000D02*
X269868800Y-56888800D01*
X269868800Y-56888800D02*
X269868800Y-50150000D01*
%TO.N,Net-(D43-K)*%
X231065000Y-55355000D02*
X232140000Y-56430000D01*
X231065000Y-50150000D02*
X231065000Y-55355000D01*
%TO.N,Net-(D44-K)*%
X52250000Y-210020000D02*
X44265000Y-202035000D01*
X44265000Y-202035000D02*
X44265000Y-199520000D01*
%TO.N,Net-(D53-K)*%
X85680000Y-47930000D02*
X85680000Y-32790000D01*
X85930000Y-48180000D02*
X85680000Y-47930000D01*
%TO.N,Audio*%
X156820000Y-72550000D02*
X155370000Y-74000000D01*
X167330000Y-54870000D02*
X156820000Y-54870000D01*
X156820000Y-54870000D02*
X156820000Y-72550000D01*
X170040000Y-47440000D02*
X170040000Y-49570000D01*
X170040000Y-52160000D02*
X167330000Y-54870000D01*
X172800000Y-44680000D02*
X170040000Y-47440000D01*
X170040000Y-49570000D02*
X170040000Y-52160000D01*
%TO.N,Net-(U4-BYPASS)*%
X149760000Y-51285000D02*
X148490000Y-52555000D01*
X149760000Y-40754700D02*
X149760000Y-51285000D01*
X151653200Y-38861500D02*
X149760000Y-40754700D01*
%TO.N,Net-(C18-Pad1)*%
X163730000Y-44935000D02*
X163574800Y-45090200D01*
X163574800Y-45090200D02*
X163574800Y-47158200D01*
%TO.N,Net-(C19-Pad1)*%
X176480000Y-52110000D02*
X176890000Y-51700000D01*
X176890000Y-51700000D02*
X176890000Y-41980000D01*
%TO.N,SW1*%
X110190000Y-82130000D02*
X110190000Y-124380000D01*
X109510000Y-125060000D02*
X106300000Y-128270000D01*
X106300000Y-132640000D02*
X106300000Y-128270000D01*
X106350000Y-132690000D02*
X106300000Y-132640000D01*
X110190000Y-124380000D02*
X109450000Y-125120000D01*
%TO.N,SW2*%
X106410000Y-124920000D02*
X106410000Y-120730000D01*
X107900000Y-119020000D02*
X106300000Y-120620000D01*
X106410000Y-120730000D02*
X106300000Y-120620000D01*
X108729999Y-83019715D02*
X108729999Y-119020000D01*
X108730000Y-83019714D02*
X108729999Y-83019715D01*
X108729999Y-119020000D02*
X107900000Y-119020000D01*
%TO.N,SW3*%
X104310000Y-109250000D02*
X106600000Y-111540000D01*
X106600000Y-111920000D02*
X106600000Y-116090000D01*
X104370000Y-83989857D02*
X104310000Y-84049857D01*
X104310000Y-84049857D02*
X104310000Y-109250000D01*
X106600000Y-111540000D02*
X106600000Y-111920000D01*
%TO.N,SW4*%
X106630000Y-108310000D02*
X106600000Y-108280000D01*
X106600000Y-85110000D02*
X106600000Y-103930000D01*
X106600000Y-108280000D02*
X106600000Y-103930000D01*
X106670000Y-85040000D02*
X106600000Y-85110000D01*
%TO.N,+3V3*%
X180140000Y-93560000D02*
X180140000Y-98855900D01*
X180140000Y-98855900D02*
X180108200Y-98887700D01*
X179760000Y-88779500D02*
X179760000Y-81790000D01*
X183500000Y-121160000D02*
X184460000Y-122120000D01*
X180140000Y-89159500D02*
X179760000Y-88779500D01*
X184460000Y-122120000D02*
X184460000Y-124180000D01*
X180108200Y-120221800D02*
X178950000Y-121380000D01*
X180140000Y-93560000D02*
X180140000Y-89159500D01*
X180108200Y-98887700D02*
X180108200Y-120221800D01*
%TO.N,Net-(U4--)*%
X157380000Y-42500000D02*
X148990000Y-34110000D01*
X161190000Y-52555000D02*
X157380000Y-48745000D01*
X157380000Y-48745000D02*
X157380000Y-42500000D01*
%TO.N,M1*%
X142790000Y-96960000D02*
X142790000Y-121780000D01*
X142790000Y-121780000D02*
X142770000Y-121800000D01*
%TO.N,Net-(L3-G)*%
X205220000Y-189860000D02*
X205220000Y-188555800D01*
X205220000Y-188555800D02*
X205320000Y-188455800D01*
X205320000Y-188455800D02*
X205320000Y-184690000D01*
%TO.N,Net-(M1-G)*%
X59590000Y-145678300D02*
X60160000Y-145108300D01*
X59590000Y-147130000D02*
X59590000Y-145678300D01*
X60160000Y-145108300D02*
X60160000Y-138020000D01*
X59810000Y-147350000D02*
X59590000Y-147130000D01*
%TO.N,Net-(M2-G)*%
X76630000Y-146268300D02*
X76340000Y-145978300D01*
X76340000Y-145978300D02*
X76340000Y-141610000D01*
X76630000Y-147620000D02*
X76630000Y-146268300D01*
%TO.N,Net-(M3-G)*%
X112700000Y-185140000D02*
X112700000Y-188890000D01*
X112780000Y-185060000D02*
X112700000Y-185140000D01*
%TO.N,Net-(M4-G)*%
X137530000Y-187168300D02*
X137530000Y-181270000D01*
X136750000Y-189300000D02*
X136750000Y-187948300D01*
X137530000Y-181270000D02*
X137530000Y-176140000D01*
X137530000Y-176140000D02*
X137450000Y-176060000D01*
X136750000Y-187948300D02*
X137530000Y-187168300D01*
%TO.N,Net-(M5-G)*%
X137010000Y-163010000D02*
X136890000Y-162890000D01*
X137010000Y-170280000D02*
X137010000Y-163010000D01*
%TO.N,Net-(M6-G)*%
X162210000Y-185830000D02*
X162260000Y-185880000D01*
X162260000Y-185880000D02*
X162260000Y-189720000D01*
%TO.N,Net-(M7-G)*%
X162230000Y-171110000D02*
X162230000Y-169758300D01*
X162230000Y-169758300D02*
X162240000Y-169748300D01*
X162240000Y-169748300D02*
X162240000Y-163340000D01*
%TO.N,Net-(S2-G)*%
X47840000Y-72230000D02*
X47290000Y-71680000D01*
X47290000Y-71680000D02*
X47290000Y-65507500D01*
%TO.N,Net-(S3-G)*%
X47290000Y-53380000D02*
X47380000Y-53470000D01*
X47290000Y-46645000D02*
X47290000Y-53380000D01*
%TO.N,Net-(S4-G)*%
X47290000Y-102912500D02*
X47290000Y-108180000D01*
X47290000Y-108180000D02*
X47750000Y-108640000D01*
%TO.N,Net-(S5-G)*%
X47170000Y-127430000D02*
X47290000Y-127310000D01*
X47290000Y-127310000D02*
X47290000Y-121615000D01*
%TO.N,Net-(S6-G)*%
X47230000Y-90610000D02*
X47290000Y-90550000D01*
X47290000Y-90550000D02*
X47290000Y-84210000D01*
%TO.N,Net-(C15-Pad1)*%
X156610000Y-34110000D02*
X167540000Y-45040000D01*
X167540000Y-45040000D02*
X167540000Y-49570000D01*
%TO.N,Net-(D55-K)*%
X81720000Y-48070000D02*
X81720000Y-32790000D01*
X81790000Y-48140000D02*
X81720000Y-48070000D01*
%TO.N,Net-(D25-K)*%
X93975000Y-166945000D02*
X93970000Y-166940000D01*
X93975000Y-176920000D02*
X93975000Y-166945000D01*
%TO.N,Net-(LED7-A)*%
X97360000Y-170890000D02*
X96515000Y-171735000D01*
X96515000Y-171735000D02*
X96515000Y-176920000D01*
%TO.N,Net-(LED9-K)*%
X359670000Y-173250000D02*
X362913300Y-170006700D01*
X362913300Y-170006700D02*
X362913300Y-169760000D01*
X364165000Y-169760000D02*
X362913300Y-169760000D01*
%TO.N,Net-(LED10-K)*%
X325923300Y-169760000D02*
X325923300Y-171011700D01*
X324678300Y-171011700D02*
X322100000Y-173590000D01*
X325923300Y-171011700D02*
X324678300Y-171011700D01*
%TO.N,Net-(LED11-K)*%
X287681700Y-169760000D02*
X286430000Y-169760000D01*
X286430000Y-170580000D02*
X283680000Y-173330000D01*
X286430000Y-169760000D02*
X286430000Y-170580000D01*
%TO.N,Net-(LED14-K)*%
X380570000Y-62210000D02*
X381085000Y-61695000D01*
X381085000Y-61695000D02*
X381085000Y-50390000D01*
%TO.N,Net-(LED15-K)*%
X344610000Y-51728000D02*
X344610000Y-61070000D01*
X344936300Y-51401700D02*
X344610000Y-51728000D01*
X344936300Y-50150000D02*
X344936300Y-51401700D01*
%TO.N,Net-(LED16-K)*%
X306132500Y-60902500D02*
X306470000Y-61240000D01*
X306132500Y-50150000D02*
X306132500Y-60902500D01*
%TO.N,Net-(LED17-K)*%
X267328800Y-50150000D02*
X267328800Y-51401700D01*
X266480000Y-60890000D02*
X266480000Y-52250500D01*
X266480000Y-52250500D02*
X267328800Y-51401700D01*
%TO.N,Net-(LED18-K)*%
X228330000Y-51596700D02*
X228330000Y-60980000D01*
X228525000Y-51401700D02*
X228330000Y-51596700D01*
X228525000Y-50150000D02*
X228525000Y-51401700D01*
%TO.N,Net-(LED19-K)*%
X41590000Y-193350000D02*
X41725000Y-193485000D01*
X41725000Y-193485000D02*
X41725000Y-199520000D01*
%TO.N,Net-(LED13-A)*%
X71330000Y-91120000D02*
X71330000Y-79310000D01*
X74200000Y-76440000D02*
X76680000Y-76440000D01*
X71330000Y-79310000D02*
X74200000Y-76440000D01*
%TO.N,Net-(LED21-A)*%
X73440000Y-82220000D02*
X76680000Y-78980000D01*
X71330000Y-98590000D02*
X73440000Y-96480000D01*
X73440000Y-96480000D02*
X73440000Y-82220000D01*
%TD*%
M02*
