M48
; DRILL file {KiCad 9.0.5} date 2025-11-19T14:50:08-0600
; FORMAT={3:3/ absolute / metric / suppress leading zeros}
; #@! TF.CreationDate,2025-11-19T14:50:08-06:00
; #@! TF.GenerationSoftware,Kicad,Pcbnew,9.0.5
; #@! TF.FileFunction,MixedPlating,1,2
FMAT,2
METRIC,TZ
; #@! TA.AperFunction,Plated,PTH,ViaDrill
T1C0.300
; #@! TA.AperFunction,Plated,PTH,ViaDrill
T2C0.400
; #@! TA.AperFunction,Plated,PTH,ViaDrill
T3C0.700
; #@! TA.AperFunction,Plated,PTH,ComponentDrill
T4C0.700
; #@! TA.AperFunction,Plated,PTH,ViaDrill
T5C0.800
; #@! TA.AperFunction,Plated,PTH,ComponentDrill
T6C0.800
; #@! TA.AperFunction,Plated,PTH,ComponentDrill
T7C0.900
; #@! TA.AperFunction,Plated,PTH,ComponentDrill
T8C1.000
; #@! TA.AperFunction,Plated,PTH,ComponentDrill
T9C1.100
; #@! TA.AperFunction,Plated,PTH,ComponentDrill
T10C1.200
; #@! TA.AperFunction,Plated,PTH,ComponentDrill
T11C1.750
; #@! TA.AperFunction,Plated,PTH,ComponentDrill
T12C1.753
; #@! TA.AperFunction,Plated,PTH,ComponentDrill
T13C2.000
; #@! TA.AperFunction,Plated,PTH,ComponentDrill
T14C2.200
%
G90
G05
T1
X59710Y-80010
X61740Y-94280
X64969Y-112649
X66760Y-104920
X84420Y-118150
X86084Y-183046
X88582Y-102646
X93110Y-66570
X104370Y-83990
X106080Y-38800
X106670Y-85040
X108730Y-83020
X110180Y-82180
X116370Y-144330
X122470Y-48790
X125730Y-47710
X126950Y-66440
X128920Y-137560
X129255Y-78825
X131000Y-62300
X137450Y-176060
X137590Y-66590
X138940Y-165680
X142240Y-159200
X142770Y-121800
X145100Y-91200
X147670Y-86130
X147870Y-89860
X149810Y-118160
X150230Y-87410
X152850Y-127930
X152880Y-88700
X157950Y-89890
X158032Y-141357
X160360Y-91190
X168530Y-103620
X180030Y-192760
X180140Y-93560
X181457Y-97038
X187810Y-56430
X188520Y-86190
X189000Y-58270
X190100Y-87448
X190148Y-153010
X191750Y-88685
X191755Y-154330
X193370Y-155970
X193380Y-89923
X194970Y-91160
X242210Y-102840
X255740Y-140170
X255920Y-102840
X270330Y-102840
X278960Y-156010
X280720Y-114400
X286440Y-114400
X298160Y-102840
X309614Y-212824
X312450Y-154330
X326240Y-102840
X345097Y-216087
X354296Y-102914
X355170Y-156030
T2
X106080Y-60190
X145820Y-173260
T3
X100600Y-204240
X117960Y-187482
X118775Y-170675
X119370Y-146800
X135940Y-146800
X155911Y-209141
X156460Y-213130
X157450Y-201700
X179930Y-220720
X183070Y-184560
X186080Y-209020
X189704Y-167410
X190020Y-182370
X190110Y-198510
X274180Y-209400
T4
X87620Y-66570
X87620Y-74190
X284870Y-63940
X292490Y-63940
T5
X113930Y-43950
T6
X30020Y-52710
X30070Y-126930
X30370Y-72050
X30920Y-108580
X31090Y-90040
X37640Y-52710
X37690Y-126930
X37990Y-72050
X38540Y-108580
X38710Y-90040
X41590Y-193350
X47170Y-127430
X47230Y-90610
X47380Y-53470
X47470Y-142500
X47750Y-108640
X47840Y-72230
X49210Y-193350
X52540Y-138020
X54790Y-127430
X54850Y-90610
X55000Y-53470
X55370Y-108640
X55460Y-72230
X57470Y-142500
X60160Y-138020
X64040Y-158720
X64090Y-130060
X64090Y-137680
X68720Y-141610
X74040Y-158720
X76340Y-141610
X76680Y-66280
X76680Y-68820
X76680Y-71360
X76680Y-73900
X76680Y-76440
X76680Y-78980
X76680Y-81520
X76680Y-84060
X81790Y-48140
X81790Y-55760
X81790Y-141620
X81790Y-149240
X82970Y-120520
X83030Y-128130
X83300Y-111520
X83490Y-104170
X84300Y-66280
X84300Y-68820
X84300Y-71360
X84300Y-73900
X84300Y-76440
X84300Y-78980
X84300Y-81520
X84300Y-84060
X85350Y-99400
X85470Y-93790
X85930Y-48180
X85930Y-55800
X89740Y-170890
X90590Y-120520
X90650Y-128130
X90920Y-111520
X91110Y-104170
X92970Y-99400
X93090Y-93790
X94570Y-120030
X94570Y-125030
X94630Y-127830
X94630Y-132830
X94790Y-111250
X94790Y-116250
X94970Y-103480
X94970Y-108480
X97360Y-170890
X98680Y-120620
X98680Y-128270
X98730Y-132690
X98790Y-124920
X98980Y-103930
X98980Y-111920
X98980Y-116090
X99010Y-108310
X100100Y-47450
X100100Y-49450
X105190Y-175390
X105190Y-183010
X106300Y-120620
X106300Y-128270
X106350Y-132690
X106410Y-124920
X106600Y-103930
X106600Y-111920
X106600Y-116090
X106630Y-108310
X110280Y-181170
X112780Y-185060
X120280Y-181170
X120400Y-185060
X124210Y-185560
X124420Y-165980
X126690Y-162830
X129590Y-43430
X129590Y-45430
X129910Y-181270
X134210Y-185560
X134310Y-162830
X134420Y-165980
X136890Y-162890
X137530Y-181270
X141950Y-168680
X141950Y-176300
X142540Y-38070
X143860Y-44800
X143860Y-54800
X144510Y-162890
X146040Y-38070
X148380Y-142720
X148380Y-150340
X148490Y-44935
X148490Y-52555
X149680Y-167250
X151030Y-44935
X151030Y-52555
X152180Y-163340
X152870Y-142490
X152870Y-150110
X153570Y-44935
X153570Y-52555
X154350Y-177780
X154350Y-185400
X155220Y-32930
X155220Y-35430
X156110Y-44935
X156110Y-52555
X158200Y-39610
X158650Y-44935
X158650Y-52555
X159680Y-167250
X159800Y-163340
X159910Y-182320
X160570Y-134480
X160570Y-144480
X161190Y-44935
X161190Y-52555
X162210Y-185830
X162240Y-163340
X163730Y-44935
X163730Y-52555
X168360Y-39610
X168380Y-62830
X169830Y-185830
X169860Y-163340
X169910Y-182320
X170880Y-62830
X172800Y-37060
X172800Y-44680
X174460Y-124180
X176890Y-36980
X176890Y-41980
X178950Y-113760
X178950Y-121380
X179760Y-74170
X179760Y-81790
X183500Y-113540
X183500Y-121160
X184460Y-124180
X192880Y-184620
X192880Y-192240
X205320Y-177070
X205320Y-184690
X212420Y-189010
X212420Y-196630
X220710Y-60980
X228330Y-60980
X233300Y-177460
X240920Y-177460
X245120Y-173330
X245120Y-180950
X256970Y-177370
X256970Y-184990
X258860Y-60890
X266480Y-60890
X278960Y-169630
X278960Y-177250
X283680Y-173330
X283680Y-180950
X296000Y-177530
X296000Y-185150
X298850Y-61240
X306470Y-61240
X318070Y-170140
X318070Y-177760
X322100Y-173590
X322100Y-181210
X333500Y-177290
X333500Y-184910
X336990Y-61070
X344610Y-61070
X355160Y-170100
X355160Y-177720
X359670Y-173250
X359670Y-180870
X372380Y-177180
X372380Y-184800
X372950Y-62210
X380570Y-62210
T7
X41725Y-199520
X44265Y-199520
X68680Y-98870
X68790Y-91120
X71220Y-98870
X71330Y-91120
X93975Y-176920
X96515Y-176920
X196935Y-184560
X199475Y-184560
X228525Y-50150
X231065Y-50150
X249440Y-169760
X251980Y-169760
X267329Y-50150
X269869Y-50150
X287682Y-169760
X290222Y-169760
X306133Y-50150
X308673Y-50150
X325923Y-169760
X328463Y-169760
X344936Y-50150
X347476Y-50150
X364165Y-169760
X366705Y-169760
X381085Y-50390
X383625Y-50390
T8
X137590Y-74000
X137810Y-96960
X140130Y-74000
X140250Y-96960
X142670Y-74000
X142790Y-96960
X145210Y-74000
X145330Y-96960
X147750Y-74000
X147870Y-96960
X150290Y-74000
X150410Y-96960
X152830Y-74000
X152950Y-96960
X155370Y-74000
X155490Y-96960
X157910Y-74000
X158030Y-96960
X160450Y-74000
X160570Y-96960
X162990Y-74000
X163110Y-96960
X165530Y-74000
X165650Y-96960
X168070Y-74000
X168190Y-96960
X170610Y-74000
X170730Y-96960
X173150Y-74000
X173270Y-96960
X190760Y-64560
X190760Y-67060
X190760Y-69560
X214130Y-96400
X216670Y-96400
X219210Y-96400
X221750Y-96400
X242184Y-96360
X244724Y-96360
X247264Y-96360
X249804Y-96360
X266283Y-69110
X266383Y-84470
X268823Y-69110
X268923Y-84470
X270200Y-96340
X271363Y-69110
X271463Y-84470
X272740Y-96340
X273902Y-69110
X274003Y-84470
X275280Y-96340
X276443Y-69110
X276542Y-84470
X277820Y-96340
X278983Y-69110
X279083Y-84470
X281523Y-69110
X281623Y-84470
X284063Y-69110
X284162Y-84470
X286602Y-69110
X286702Y-84470
X289142Y-69110
X289243Y-84470
X291683Y-69110
X291783Y-84470
X294222Y-69110
X294323Y-84470
X298240Y-96360
X300780Y-96360
X303320Y-96360
X305860Y-96360
X326268Y-96360
X328808Y-96360
X331348Y-96360
X333888Y-96360
X354296Y-96360
X356836Y-96360
X359376Y-96360
X361916Y-96360
T9
X42210Y-46645
X42210Y-65507
X42210Y-84210
X42210Y-102913
X42210Y-121615
X43773Y-181130
X44310Y-166140
X44750Y-46645
X44750Y-65507
X44750Y-84210
X44750Y-102913
X44750Y-121615
X46760Y-79070
X47260Y-42560
X47290Y-46645
X47290Y-65507
X47290Y-84210
X47290Y-102913
X47290Y-121615
X47330Y-99000
X47530Y-117390
X47750Y-59500
X52250Y-210020
X53932Y-181130
X54470Y-166140
X54730Y-147350
X56920Y-79070
X57270Y-147350
X57420Y-42560
X57490Y-99000
X57690Y-117390
X57910Y-59500
X59810Y-147350
X62410Y-210020
X65350Y-38660
X65350Y-48820
X71550Y-147620
X72620Y-204420
X72620Y-214580
X74090Y-147620
X76630Y-147620
X76790Y-204420
X76790Y-214580
X93970Y-156780
X93970Y-166940
X94870Y-38660
X94870Y-48820
X107620Y-188890
X110160Y-188890
X111620Y-204420
X111620Y-214580
X112700Y-188890
X116150Y-204420
X116150Y-214580
X123320Y-155870
X131670Y-189300
X131930Y-170280
X132240Y-204420
X132240Y-214580
X133480Y-155870
X134210Y-189300
X134470Y-170280
X136390Y-204420
X136390Y-214580
X136750Y-189300
X137010Y-170280
X138090Y-38900
X138090Y-49060
X144100Y-204420
X144100Y-214580
X148340Y-204420
X148340Y-214580
X152250Y-204420
X152250Y-214580
X157150Y-171110
X157180Y-148780
X157180Y-189720
X159690Y-171110
X159720Y-148780
X159720Y-189720
X160130Y-204420
X160130Y-214580
X162230Y-171110
X162260Y-148780
X162260Y-189720
X164110Y-204420
X164110Y-214580
X189270Y-178010
X199430Y-178010
X205220Y-189860
X205220Y-192400
X205220Y-194940
X221980Y-56430
X232140Y-56430
X236210Y-157870
X236210Y-168030
X242750Y-161050
X251020Y-178150
X251020Y-180690
X251020Y-183230
X252910Y-161050
X259780Y-56960
X269940Y-56960
X271150Y-184170
X271150Y-194330
X281470Y-161960
X288880Y-178310
X288880Y-180850
X288880Y-183390
X291630Y-161960
X298970Y-56430
X309130Y-56430
X318220Y-161530
X327340Y-178630
X327340Y-181170
X327340Y-183710
X328380Y-161530
X338080Y-56520
X348240Y-56520
X357210Y-161790
X365730Y-178520
X365730Y-181060
X365730Y-183600
X367370Y-161790
X374570Y-56610
X384730Y-56610
T10
X30430Y-99020
X30450Y-79050
X30540Y-117390
X30560Y-59430
X30610Y-42570
X43130Y-99020
X43150Y-79050
X43240Y-117390
X43260Y-59430
X43310Y-42570
X43920Y-154250
X56620Y-154250
X63620Y-154170
X76320Y-154170
X105690Y-195390
X118390Y-195390
X121310Y-195390
X121410Y-175930
X134010Y-195390
X134110Y-175930
X143460Y-197050
X156160Y-197050
X159180Y-177280
X171880Y-177280
X198250Y-192200
X198250Y-204900
X206900Y-37290
X206900Y-49990
X278470Y-181520
X278470Y-194220
X303800Y-161380
X303800Y-174080
X314400Y-180660
X314400Y-193360
X354880Y-181090
X354880Y-193790
T11
X32570Y-165710
X32570Y-180460
X37170Y-165710
X37170Y-180460
T12
X50040Y-32790
X54000Y-32790
X57960Y-32790
X61920Y-32790
X65880Y-32790
X69830Y-32790
X72540Y-223490
X73800Y-32790
X76500Y-223490
X77760Y-32790
X80460Y-223490
X81720Y-32790
X84420Y-223490
X85680Y-32790
X88380Y-223490
X90160Y-32790
X92340Y-223490
X94120Y-32790
X96300Y-223490
X98130Y-32790
X100260Y-223490
X102040Y-32790
X104220Y-223490
X106000Y-32790
X108180Y-223490
X109960Y-32790
X112140Y-223490
X113920Y-32790
X116100Y-223490
X117880Y-32790
X120060Y-223490
X121840Y-32790
X124560Y-223490
X125800Y-32790
X128500Y-223490
X129880Y-32790
X132460Y-223490
X133720Y-32790
X136420Y-223490
X137680Y-32790
X140380Y-223490
X144340Y-223490
X148300Y-223490
X152260Y-223490
X156220Y-223490
X160200Y-223490
X164160Y-223490
T13
X206490Y-96470
X206490Y-119520
X229540Y-96470
X229540Y-119520
X234544Y-96430
X234544Y-119480
X257594Y-96430
X257594Y-119480
X262560Y-96410
X262560Y-119460
X285610Y-96410
X285610Y-119460
X290600Y-96430
X290600Y-119480
X313650Y-96430
X313650Y-119480
X318628Y-96430
X318628Y-119480
X341678Y-96430
X341678Y-119480
X346656Y-96430
X346656Y-119480
X369706Y-96430
X369706Y-119480
T14
X197760Y-62660
X197760Y-71460
M30
