M48
; DRILL file {KiCad 9.0.5} date 2025-11-19T11:56:58-0600
; FORMAT={-:-/ absolute / metric / decimal}
; #@! TF.CreationDate,2025-11-19T11:56:58-06:00
; #@! TF.GenerationSoftware,Kicad,Pcbnew,9.0.5
; #@! TF.FileFunction,Plated,1,2,PTH
FMAT,2
METRIC
; #@! TA.AperFunction,Plated,PTH,ViaDrill
T1C0.300
; #@! TA.AperFunction,Plated,PTH,ViaDrill
T2C0.400
; #@! TA.AperFunction,Plated,PTH,ViaDrill
T3C0.700
; #@! TA.AperFunction,Plated,PTH,ComponentDrill
T4C0.700
; #@! TA.AperFunction,Plated,PTH,ViaDrill
T5C0.800
; #@! TA.AperFunction,Plated,PTH,ComponentDrill
T6C0.800
; #@! TA.AperFunction,Plated,PTH,ComponentDrill
T7C0.900
; #@! TA.AperFunction,Plated,PTH,ComponentDrill
T8C1.000
; #@! TA.AperFunction,Plated,PTH,ComponentDrill
T9C1.100
; #@! TA.AperFunction,Plated,PTH,ComponentDrill
T10C1.200
; #@! TA.AperFunction,Plated,PTH,ComponentDrill
T11C1.750
; #@! TA.AperFunction,Plated,PTH,ComponentDrill
T12C1.753
; #@! TA.AperFunction,Plated,PTH,ComponentDrill
T13C2.000
%
G90
G05
T1
X59.71Y-80.01
X61.74Y-94.28
X64.969Y-112.649
X66.76Y-104.92
X84.42Y-118.15
X86.084Y-183.046
X88.582Y-102.646
X93.11Y-66.57
X104.37Y-83.99
X106.08Y-38.8
X106.67Y-85.04
X108.73Y-83.02
X110.18Y-82.18
X116.37Y-144.33
X122.47Y-48.79
X125.73Y-47.71
X126.95Y-66.44
X128.92Y-137.56
X129.255Y-78.825
X131.0Y-62.3
X137.45Y-176.06
X138.94Y-165.68
X142.24Y-159.2
X142.77Y-121.8
X145.1Y-91.2
X147.67Y-86.13
X147.87Y-89.86
X149.81Y-118.16
X150.23Y-87.41
X151.653Y-38.861
X152.85Y-127.93
X152.88Y-88.7
X157.95Y-89.89
X158.032Y-141.357
X160.36Y-91.19
X163.575Y-47.158
X168.53Y-103.62
X180.03Y-192.76
X180.14Y-93.56
X181.457Y-97.038
X187.81Y-56.43
X188.52Y-86.19
X189.0Y-58.27
X190.1Y-87.447
X190.147Y-153.01
X191.75Y-88.685
X191.755Y-154.33
X193.37Y-155.97
X193.38Y-89.922
X194.97Y-91.16
X242.21Y-102.84
X255.74Y-140.17
X255.92Y-102.84
X270.33Y-102.84
X278.96Y-156.01
X280.72Y-114.4
X286.44Y-114.4
X298.16Y-102.84
X309.614Y-212.824
X312.45Y-154.33
X326.24Y-102.84
X345.096Y-216.087
X354.296Y-102.914
X355.17Y-156.03
T2
X106.08Y-60.19
X145.82Y-173.26
T3
X100.6Y-204.24
X117.96Y-187.482
X118.775Y-170.675
X119.37Y-146.8
X135.94Y-146.8
X155.911Y-209.141
X156.46Y-213.13
X157.45Y-201.7
X179.93Y-220.72
X183.07Y-184.56
X186.08Y-209.02
X189.704Y-167.41
X190.02Y-182.37
X190.11Y-198.51
X274.18Y-209.4
T4
X87.62Y-66.57
X87.62Y-74.19
X284.87Y-63.94
X292.49Y-63.94
T5
X113.93Y-43.95
T6
X30.02Y-52.71
X30.07Y-126.93
X30.37Y-72.05
X30.92Y-108.58
X31.09Y-90.04
X37.64Y-52.71
X37.69Y-126.93
X37.99Y-72.05
X38.54Y-108.58
X38.71Y-90.04
X41.59Y-193.35
X47.17Y-127.43
X47.23Y-90.61
X47.38Y-53.47
X47.47Y-142.5
X47.75Y-108.64
X47.84Y-72.23
X49.21Y-193.35
X52.54Y-138.02
X54.79Y-127.43
X54.85Y-90.61
X55.0Y-53.47
X55.37Y-108.64
X55.46Y-72.23
X57.47Y-142.5
X60.16Y-138.02
X64.04Y-158.72
X64.09Y-130.06
X64.09Y-137.68
X68.72Y-141.61
X74.04Y-158.72
X76.34Y-141.61
X76.68Y-66.28
X76.68Y-68.82
X76.68Y-71.36
X76.68Y-73.9
X76.68Y-76.44
X76.68Y-78.98
X76.68Y-81.52
X76.68Y-84.06
X81.79Y-48.14
X81.79Y-55.76
X81.79Y-141.62
X81.79Y-149.24
X82.97Y-120.52
X83.03Y-128.13
X83.3Y-111.52
X83.49Y-104.17
X84.3Y-66.28
X84.3Y-68.82
X84.3Y-71.36
X84.3Y-73.9
X84.3Y-76.44
X84.3Y-78.98
X84.3Y-81.52
X84.3Y-84.06
X85.35Y-99.4
X85.47Y-93.79
X85.93Y-48.18
X85.93Y-55.8
X89.74Y-170.89
X90.59Y-120.52
X90.65Y-128.13
X90.92Y-111.52
X91.11Y-104.17
X92.97Y-99.4
X93.09Y-93.79
X94.57Y-120.03
X94.57Y-125.03
X94.63Y-127.83
X94.63Y-132.83
X94.79Y-111.25
X94.79Y-116.25
X94.97Y-103.48
X94.97Y-108.48
X97.36Y-170.89
X98.68Y-120.62
X98.68Y-128.27
X98.73Y-132.69
X98.79Y-124.92
X98.98Y-103.93
X98.98Y-111.92
X98.98Y-116.09
X99.01Y-108.31
X100.1Y-47.45
X100.1Y-49.45
X105.19Y-175.39
X105.19Y-183.01
X106.3Y-120.62
X106.3Y-128.27
X106.35Y-132.69
X106.41Y-124.92
X106.6Y-103.93
X106.6Y-111.92
X106.6Y-116.09
X106.63Y-108.31
X110.28Y-181.17
X112.78Y-185.06
X120.28Y-181.17
X120.4Y-185.06
X124.21Y-185.56
X124.42Y-165.98
X126.69Y-162.83
X129.59Y-43.43
X129.59Y-45.43
X129.91Y-181.27
X134.21Y-185.56
X134.31Y-162.83
X134.42Y-165.98
X136.89Y-162.89
X137.53Y-181.27
X141.95Y-168.68
X141.95Y-176.3
X142.54Y-38.07
X144.51Y-162.89
X146.04Y-38.07
X148.38Y-142.72
X148.38Y-150.34
X148.49Y-44.935
X148.49Y-52.555
X148.99Y-34.11
X149.68Y-167.25
X151.03Y-44.935
X151.03Y-52.555
X152.18Y-163.34
X152.87Y-142.49
X152.87Y-150.11
X153.57Y-44.935
X153.57Y-52.555
X154.35Y-177.78
X154.35Y-185.4
X156.11Y-44.935
X156.11Y-52.555
X156.61Y-34.11
X158.65Y-44.935
X158.65Y-52.555
X159.68Y-167.25
X159.8Y-163.34
X159.91Y-182.32
X160.57Y-134.48
X160.57Y-144.48
X161.19Y-44.935
X161.19Y-52.555
X162.21Y-185.83
X162.24Y-163.34
X163.73Y-44.935
X163.73Y-52.555
X167.54Y-49.57
X169.83Y-185.83
X169.86Y-163.34
X169.91Y-182.32
X170.04Y-49.57
X172.8Y-37.06
X172.8Y-44.68
X174.46Y-124.18
X176.89Y-36.98
X176.89Y-41.98
X178.95Y-113.76
X178.95Y-121.38
X179.76Y-74.17
X179.76Y-81.79
X183.5Y-113.54
X183.5Y-121.16
X184.02Y-38.533
X184.02Y-41.033
X184.46Y-124.18
X192.7Y-36.56
X192.7Y-46.56
X192.88Y-184.62
X192.88Y-192.24
X205.32Y-177.07
X205.32Y-184.69
X212.42Y-189.01
X212.42Y-196.63
X220.71Y-60.98
X228.33Y-60.98
X233.3Y-177.46
X240.92Y-177.46
X245.12Y-173.33
X245.12Y-180.95
X256.97Y-177.37
X256.97Y-184.99
X258.86Y-60.89
X266.48Y-60.89
X278.96Y-169.63
X278.96Y-177.25
X283.68Y-173.33
X283.68Y-180.95
X296.0Y-177.53
X296.0Y-185.15
X298.85Y-61.24
X306.47Y-61.24
X318.07Y-170.14
X318.07Y-177.76
X322.1Y-173.59
X322.1Y-181.21
X333.5Y-177.29
X333.5Y-184.91
X336.99Y-61.07
X344.61Y-61.07
X355.16Y-170.1
X355.16Y-177.72
X359.67Y-173.25
X359.67Y-180.87
X372.38Y-177.18
X372.38Y-184.8
X372.95Y-62.21
X380.57Y-62.21
T7
X41.725Y-199.52
X44.265Y-199.52
X68.68Y-98.87
X68.79Y-91.12
X71.22Y-98.87
X71.33Y-91.12
X93.975Y-176.92
X96.515Y-176.92
X196.935Y-184.56
X199.475Y-184.56
X228.525Y-50.15
X231.065Y-50.15
X249.44Y-169.76
X251.98Y-169.76
X267.329Y-50.15
X269.869Y-50.15
X287.682Y-169.76
X290.222Y-169.76
X306.132Y-50.15
X308.673Y-50.15
X325.923Y-169.76
X328.463Y-169.76
X344.936Y-50.15
X347.476Y-50.15
X364.165Y-169.76
X366.705Y-169.76
X381.085Y-50.39
X383.625Y-50.39
T8
X137.59Y-74.0
X137.81Y-96.96
X140.13Y-74.0
X140.25Y-96.96
X142.67Y-74.0
X142.79Y-96.96
X145.21Y-74.0
X145.33Y-96.96
X147.75Y-74.0
X147.87Y-96.96
X150.29Y-74.0
X150.41Y-96.96
X152.83Y-74.0
X152.95Y-96.96
X155.37Y-74.0
X155.49Y-96.96
X157.91Y-74.0
X158.03Y-96.96
X160.45Y-74.0
X160.57Y-96.96
X162.99Y-74.0
X163.11Y-96.96
X165.53Y-74.0
X165.65Y-96.96
X168.07Y-74.0
X168.19Y-96.96
X170.61Y-74.0
X170.73Y-96.96
X173.15Y-74.0
X173.27Y-96.96
X214.13Y-96.4
X216.67Y-96.4
X219.21Y-96.4
X221.75Y-96.4
X242.184Y-96.36
X244.724Y-96.36
X247.264Y-96.36
X249.804Y-96.36
X266.282Y-69.11
X266.382Y-84.47
X268.822Y-69.11
X268.923Y-84.47
X270.2Y-96.34
X271.363Y-69.11
X271.462Y-84.47
X272.74Y-96.34
X273.902Y-69.11
X274.002Y-84.47
X275.28Y-96.34
X276.442Y-69.11
X276.542Y-84.47
X277.82Y-96.34
X278.982Y-69.11
X279.082Y-84.47
X281.522Y-69.11
X281.623Y-84.47
X284.062Y-69.11
X284.162Y-84.47
X286.602Y-69.11
X286.702Y-84.47
X289.142Y-69.11
X289.243Y-84.47
X291.683Y-69.11
X291.782Y-84.47
X294.222Y-69.11
X294.322Y-84.47
X298.24Y-96.36
X300.78Y-96.36
X303.32Y-96.36
X305.86Y-96.36
X326.268Y-96.36
X328.808Y-96.36
X331.348Y-96.36
X333.888Y-96.36
X354.296Y-96.36
X356.836Y-96.36
X359.376Y-96.36
X361.916Y-96.36
T9
X42.21Y-46.645
X42.21Y-65.507
X42.21Y-84.21
X42.21Y-102.912
X42.21Y-121.615
X43.773Y-181.13
X44.31Y-166.14
X44.75Y-46.645
X44.75Y-65.507
X44.75Y-84.21
X44.75Y-102.912
X44.75Y-121.615
X46.76Y-79.07
X47.26Y-42.56
X47.29Y-46.645
X47.29Y-65.507
X47.29Y-84.21
X47.29Y-102.912
X47.29Y-121.615
X47.33Y-99.0
X47.53Y-117.39
X47.75Y-59.5
X52.25Y-210.02
X53.932Y-181.13
X54.47Y-166.14
X54.73Y-147.35
X56.92Y-79.07
X57.27Y-147.35
X57.42Y-42.56
X57.49Y-99.0
X57.69Y-117.39
X57.91Y-59.5
X59.81Y-147.35
X62.41Y-210.02
X65.35Y-38.66
X65.35Y-48.82
X71.55Y-147.62
X72.62Y-204.42
X72.62Y-214.58
X74.09Y-147.62
X76.63Y-147.62
X76.79Y-204.42
X76.79Y-214.58
X93.97Y-156.78
X93.97Y-166.94
X94.87Y-38.66
X94.87Y-48.82
X107.62Y-188.89
X110.16Y-188.89
X111.62Y-204.42
X111.62Y-214.58
X112.7Y-188.89
X116.15Y-204.42
X116.15Y-214.58
X123.32Y-155.87
X131.67Y-189.3
X131.93Y-170.28
X132.24Y-204.42
X132.24Y-214.58
X133.48Y-155.87
X134.21Y-189.3
X134.47Y-170.28
X136.39Y-204.42
X136.39Y-214.58
X136.75Y-189.3
X137.01Y-170.28
X138.09Y-38.9
X138.09Y-49.06
X144.1Y-204.42
X144.1Y-214.58
X148.34Y-204.42
X148.34Y-214.58
X152.25Y-204.42
X152.25Y-214.58
X157.15Y-171.11
X157.18Y-148.78
X157.18Y-189.72
X159.69Y-171.11
X159.72Y-148.78
X159.72Y-189.72
X160.13Y-204.42
X160.13Y-214.58
X162.23Y-171.11
X162.26Y-148.78
X162.26Y-189.72
X164.11Y-204.42
X164.11Y-214.58
X189.27Y-178.01
X199.43Y-178.01
X205.22Y-189.86
X205.22Y-192.4
X205.22Y-194.94
X221.98Y-56.43
X232.14Y-56.43
X236.21Y-157.87
X236.21Y-168.03
X242.75Y-161.05
X251.02Y-178.15
X251.02Y-180.69
X251.02Y-183.23
X252.91Y-161.05
X259.78Y-56.96
X269.94Y-56.96
X271.15Y-184.17
X271.15Y-194.33
X281.47Y-161.96
X288.88Y-178.31
X288.88Y-180.85
X288.88Y-183.39
X291.63Y-161.96
X298.97Y-56.43
X309.13Y-56.43
X318.22Y-161.53
X327.34Y-178.63
X327.34Y-181.17
X327.34Y-183.71
X328.38Y-161.53
X338.08Y-56.52
X348.24Y-56.52
X357.21Y-161.79
X365.73Y-178.52
X365.73Y-181.06
X365.73Y-183.6
X367.37Y-161.79
X374.57Y-56.61
X384.73Y-56.61
T10
X30.43Y-99.02
X30.45Y-79.05
X30.54Y-117.39
X30.56Y-59.43
X30.61Y-42.57
X43.13Y-99.02
X43.15Y-79.05
X43.24Y-117.39
X43.26Y-59.43
X43.31Y-42.57
X43.92Y-154.25
X56.62Y-154.25
X63.62Y-154.17
X76.32Y-154.17
X105.69Y-195.39
X118.39Y-195.39
X121.31Y-195.39
X121.41Y-175.93
X134.01Y-195.39
X134.11Y-175.93
X143.46Y-197.05
X156.16Y-197.05
X159.18Y-177.28
X171.88Y-177.28
X176.48Y-52.11
X198.25Y-192.2
X198.25Y-204.9
X201.88Y-52.11
X206.9Y-37.29
X206.9Y-49.99
X278.47Y-181.52
X278.47Y-194.22
X303.8Y-161.38
X303.8Y-174.08
X314.4Y-180.66
X314.4Y-193.36
X354.88Y-181.09
X354.88Y-193.79
T11
X32.57Y-165.71
X32.57Y-180.46
X37.17Y-165.71
X37.17Y-180.46
T12
X54.0Y-32.79
X57.96Y-32.79
X61.92Y-32.79
X65.88Y-32.79
X69.83Y-32.79
X72.54Y-223.49
X73.8Y-32.79
X76.5Y-223.49
X77.76Y-32.79
X80.46Y-223.49
X81.72Y-32.79
X84.42Y-223.49
X85.68Y-32.79
X88.38Y-223.49
X90.16Y-32.79
X92.34Y-223.49
X94.12Y-32.79
X96.3Y-223.49
X98.13Y-32.79
X100.26Y-223.49
X102.04Y-32.79
X104.22Y-223.49
X106.0Y-32.79
X108.18Y-223.49
X109.96Y-32.79
X112.14Y-223.49
X113.92Y-32.79
X116.1Y-223.49
X117.88Y-32.79
X120.06Y-223.49
X121.84Y-32.79
X124.56Y-223.49
X125.8Y-32.79
X128.5Y-223.49
X129.88Y-32.79
X132.46Y-223.49
X133.72Y-32.79
X136.42Y-223.49
X137.68Y-32.79
X140.38Y-223.49
X144.34Y-223.49
X148.3Y-223.49
X152.26Y-223.49
X156.22Y-223.49
X160.2Y-223.49
X164.16Y-223.49
T13
X206.49Y-96.47
X206.49Y-119.52
X229.54Y-96.47
X229.54Y-119.52
X234.544Y-96.43
X234.544Y-119.48
X257.594Y-96.43
X257.594Y-119.48
X262.56Y-96.41
X262.56Y-119.46
X285.61Y-96.41
X285.61Y-119.46
X290.6Y-96.43
X290.6Y-119.48
X313.65Y-96.43
X313.65Y-119.48
X318.628Y-96.43
X318.628Y-119.48
X341.678Y-96.43
X341.678Y-119.48
X346.656Y-96.43
X346.656Y-119.48
X369.706Y-96.43
X369.706Y-119.48
M30
